<?xml version="1.0" encoding="UTF-8"?>
<svg id="_图层_1" xmlns="http://www.w3.org/2000/svg" version="1.1" viewBox="0 0 200 200">
  <!-- Generator: Adobe Illustrator 29.0.1, SVG Export Plug-In . SVG Version: 2.1.0 Build 192)  -->
  <defs>
    <style>
      .st0 {
        fill: #98bbf6;
      }

      .st1 {
        fill: #0057e7;
      }
    </style>
  </defs>
  <path class="st1" d="M100,198.4c-54.3,0-98.4-44.1-98.4-98.4C1.6,45.6,45.7,1.6,100,1.6c54.3,0,98.4,44.1,98.4,98.4,0,54.4-44.1,98.4-98.4,98.4h0ZM99.8,19.2c-44.5,0-80.6,36.1-80.6,80.7,0,44.5,36.1,80.6,80.7,80.6,44.5,0,80.6-36.1,80.6-80.6,0-44.5-36.1-80.7-80.6-80.7,0,0,0,0,0,0h0Z"/>
  <rect class="st0" x="91" y="82.1" width="17.9" height="71.6"/>
  <rect class="st0" x="91" y="46.4" width="17.9" height="17.9"/>
</svg>