<?xml version="1.0" encoding="UTF-8"?>
<svg id="_图层_1" xmlns="http://www.w3.org/2000/svg" version="1.1" viewBox="0 0 200 200">
  <!-- Generator: Adobe Illustrator 29.0.1, SVG Export Plug-In . SVG Version: 2.1.0 Build 192)  -->
  <defs>
    <style>
      .st0 {
        fill: #98bbf6;
      }

      .st1 {
        fill: #0057e7;
      }

      .st2 {
        fill: #fff;
      }
    </style>
  </defs>
  <path class="st1" d="M50.8,57c0,27.2,21.9,49.2,49.1,49.3,27.2,0,49.2-21.9,49.3-49.1,0,0,0-.2,0-.2,0-27.2-21.9-49.2-49.1-49.3-27.2,0-49.2,21.9-49.3,49.1,0,0,0,.2,0,.2Z"/>
  <path class="st1" d="M121.9,159.6c0,0,0-.1,0-.2,0-15.1,9.1-28,22-33.8-9.6-4.5-20.3-7.1-31.6-7.1h-24.6c-40.7,0-73.8,33-73.8,73.8h127.3c-11.6-6.3-19.4-18.6-19.4-32.7Z"/>
  <path class="st0" d="M120.3,159.7c0,20.5,16.5,37.2,37,37.2,20.5,0,37.2-16.5,37.2-37,0,0,0-.1,0-.2,0-20.5-16.5-37.2-37-37.2-20.5,0-37.2,16.5-37.2,37,0,0,0,.1,0,.2Z"/>
  <path class="st2" d="M157.6,144.6c-1.8,0-3.2-.5-4.1-1.5-1-1-1.5-2.3-1.5-3.7s.5-2.7,1.5-3.7c1-1,2.4-1.5,4.1-1.5s3.2.5,4.1,1.5c1,1,1.5,2.3,1.5,3.7s-.5,2.7-1.4,3.7c-1,1-2.3,1.5-4.2,1.5ZM152.3,185.9v-34.5h10.6v34.5h-10.6Z"/>
</svg>