<?xml version="1.0" encoding="UTF-8"?>
<svg id="_图层_1" xmlns="http://www.w3.org/2000/svg" version="1.1" viewBox="0 0 200 200">
  <!-- Generator: Adobe Illustrator 29.0.1, SVG Export Plug-In . SVG Version: 2.1.0 Build 192)  -->
  <defs>
    <style>
      .st0 {
        fill: #98bbf6;
      }

      .st1 {
        fill: #186cef;
      }
    </style>
  </defs>
  <path class="st1" d="M168.7,31.3C150.4,12.9,126,2.8,100,2.8S49.7,12.9,31.3,31.3C12.9,49.6,2.8,74,2.8,100s10.1,50.3,28.5,68.7c18.4,18.4,42.8,28.5,68.7,28.5s39.6-6.1,56.1-17.8c3.8-2.7,4.8-8.1,2-11.9-.8-1.2-1.9-2-3-2.6-2.7-1.4-6.1-1.3-8.8.6-13.5,9.6-29.6,14.7-46.2,14.7-44.2,0-80.1-36-80.1-80.1S55.8,19.8,100,19.8s80.1,35.9,80.1,80.1,1.9,6.1,4.6,7.6c1.2.6,2.5.9,3.9.9,4.7,0,8.5-3.8,8.5-8.5,0-26-10.1-50.3-28.5-68.7h0Z"/>
  <path class="st0" d="M65.6,100c0,19,15.4,34.5,34.5,34.5s34.5-15.4,34.5-34.5c0-19-15.4-34.5-34.5-34.5-19,0-34.5,15.4-34.5,34.5,0,0,0,0,0,0Z"/>
  <path class="st1" d="M160.5,141.9c0,7.4,5.2,13.5,12.2,15,1,.2,2.1.3,3.2.3,8.5,0,15.3-6.9,15.3-15.3s-1.9-8.4-4.9-11.2c-2.7-2.6-6.4-4.1-10.4-4.1-8.5,0-15.3,6.9-15.3,15.3h0Z"/>
</svg>