<?xml version="1.0" encoding="UTF-8"?>
<svg id="_图层_1" xmlns="http://www.w3.org/2000/svg" version="1.1" viewBox="0 0 200 200">
  <!-- Generator: Adobe Illustrator 29.0.1, SVG Export Plug-In . SVG Version: 2.1.0 Build 192)  -->
  <defs>
    <style>
      .st0 {
        fill: #98bbf6;
      }

      .st1 {
        fill: #0057e7;
      }
    </style>
  </defs>
  <path class="st0" d="M26.1,171.5c-.6-.9-1.1-2-1.4-3.1-.3-1.2-.5-2.4-.5-3.6v-95.4l49.4-37.6c.6-.9,1-1.6,1.2-2.4.1-.9,0-1.7-.2-2.5-.3-.8-.8-1.5-1.4-2l-14.3-12.3h90.9c3.8,0,7,1.3,9.6,3.9,2.7,2.6,4,5.8,4,9.5v42.5l9.9-9.5V26c0-6.3-2.4-11.8-7.1-16.4-.5-.5-.9-.9-1.4-1.3s-.9-.8-1.4-1.3l-1.9-.9c-.5-.5-1-.8-1.6-.9l-1.9-.9c-.6-.1-1.3-.3-2-.6-.7-.2-1.4-.4-2-.5-.6,0-1.3-.2-2-.2-.7,0-1.4-.1-2.2-.1H45.1l-.5.2c-.5.1-.8.3-1,.3-.2,0-.5.2-.6.4l-1.2,1.4c-.4.5-.5.9-.5,1.2L14.8,71.1c-.3.6-.5,1.2-.5,1.9v91.9c0,6.3,2.3,11.8,6.9,16.3,4.6,4.6,10.1,6.9,16.5,6.9h26.1l3.5-9.7h-29.6c-3.8,0-7-1.3-9.6-3.9-.8-.9-1.5-1.9-2.1-2.8h0Z"/>
  <polygon class="st0" points="50.7 80.8 133.4 80.8 133.4 90.5 50.7 90.5 50.7 80.8 50.7 80.8 50.7 80.8"/>
  <polygon class="st0" points="113.6 103.5 113.6 113.3 50.7 113.3 50.7 103.5 113.6 103.5 113.6 103.5"/>
  <polygon class="st0" points="90.4 126.3 90.4 136 50.7 136 50.7 126.3 90.4 126.3 90.4 126.3"/>
  <polygon class="st0" points="50.7 58.1 146.7 58.1 146.7 67.8 50.7 67.8 50.7 58.1 50.7 58.1 50.7 58.1 50.7 58.1"/>
  <path class="st1" d="M98.5,146.7l61.8-59.5c1.1-1,2.3-1.8,3.8-2.4,1.4-.6,2.9-.9,4.3-.9s2.9.3,4.3.9c1.4.6,2.7,1.4,3.8,2.4l9.8,9.4c2.2,2.2,3.3,4.8,3.3,7.9s-1.1,5.7-3.4,7.9l-62,59.6-25.8-25.4h0Z"/>
  <polygon class="st1" points="91.4 153.6 81.4 163.2 72.1 193.2 70.6 197.7 107.9 187.9 117.2 178.9 91.4 153.6 91.4 153.6"/>
  <path class="st0" d="M161.8,174c-2.8,2.7-6.2,4-10.2,4h-23l-5.2,10h28.1c6.8,0,12.6-2.3,17.5-7,4.9-4.7,7.3-10.2,7.3-16.7v-28.2l-10.4,9.7v18.5c0,3.8-1.4,7-4.3,9.7h0Z"/>
</svg>