<?xml version="1.0" encoding="UTF-8"?>
<svg id="_图层_1" xmlns="http://www.w3.org/2000/svg" version="1.1" viewBox="0 0 200 200">
  <!-- Generator: Adobe Illustrator 29.0.1, SVG Export Plug-In . SVG Version: 2.1.0 Build 192)  -->
  <defs>
    <style>
      .st0 {
        fill: #98bbf6;
      }

      .st1 {
        fill: #0057e7;
      }
    </style>
  </defs>
  <path class="st1" d="M100.5,196.8c-53.5,0-96.8-43.3-96.8-96.8S47,3.2,100.5,3.2s96.8,43.3,96.8,96.8-43.3,96.8-96.8,96.8ZM100.5,18.5c-45,0-81.5,36.5-81.5,81.5s36.5,81.5,81.5,81.5,81.5-36.5,81.5-81.5S145.5,18.5,100.5,18.5Z"/>
  <path class="st0" d="M47,153.5l33.1-73.9,73.9-33.1-33.1,73.9-73.9,33.1ZM87.7,87.3l-22.9,48.4,48.4-22.9s-25.5-25.5-25.5-25.5Z"/>
  <circle class="st0" cx="19.4" cy="18.3" r="12.7"/>
  <circle class="st0" cx="182" cy="181.5" r="12.7"/>
</svg>