<?xml version="1.0" encoding="UTF-8"?>
<svg id="_图层_1" xmlns="http://www.w3.org/2000/svg" version="1.1" viewBox="0 0 200 200">
  <!-- Generator: Adobe Illustrator 29.0.1, SVG Export Plug-In . SVG Version: 2.1.0 Build 192)  -->
  <path d="M156.44,167.43H42.89v-12.68H4.8v38.18h38.12v-9.57h113.55v11.14h38.11v-38.2h-38.14v11.13h0ZM30.49,180.32h-12.86v-12.97h12.86v12.97ZM169.3,168.91h12.86v12.99h-12.86v-12.99Z" style="fill: #9fbaf1;"/>
  <path d="M144.95,14.11h-.29v85.82c-3.51-1.39-7.44-2.19-11.62-2.19-14.52,0-26.29,9.44-26.29,21.08s11.77,21.08,26.29,21.08,26.04-9.26,26.27-20.74h.03V38.72l24.74-5.87V4.81s-39.13,9.31-39.13,9.31Z" style="fill: #9fbaf1;"/>
  <path d="M60.56,14.11h-.29v85.82c-3.51-1.39-7.44-2.19-11.62-2.19-14.52,0-26.29,9.44-26.29,21.08s11.77,21.08,26.29,21.08,26.04-9.26,26.27-20.74h.03V38.72l24.74-5.87V4.81s-39.13,9.31-39.13,9.31Z" style="fill: #346ad7;"/>
</svg>