<?xml version="1.0" encoding="UTF-8"?>
<svg id="_图层_1" xmlns="http://www.w3.org/2000/svg" version="1.1" viewBox="0 0 200 200">
  <!-- Generator: Adobe Illustrator 29.0.1, SVG Export Plug-In . SVG Version: 2.1.0 Build 192)  -->
  <defs>
    <style>
      .st0 {
        fill: #98bbf6;
      }

      .st1 {
        fill: #346ad7;
      }
    </style>
  </defs>
  <path class="st1" d="M58.2,21.1c-2.5,0-4.6,2-4.6,4.6h0v120c-13.3-7.7-30.3-3.1-37.9,10.2-7.6,13.3-3.1,30.3,10.2,37.9,13.3,7.7,30.3,3.1,37.9-10.2,2.4-4.2,3.7-9,3.7-13.9s0-2.2-.2-3.3c.1-.4.2-.9.2-1.3v-97.5l48.1-8.5V11.8l-57.3,9.3Z"/>
  <path class="st0" d="M165,117.9c-13.3-7.7-30.3-3.1-38,10.2-7.7,13.3-3.1,30.3,10.2,37.9,13.3,7.7,30.3,3.1,37.9-10.2,2.4-4.2,3.7-9,3.7-13.9s0-2.2-.2-3.3c.1-.4.2-.9.2-1.3V7.6c0-2.2-3.8-4.5-3.8-4.5,0,0-1.8-.7-2.8-.5l-56.8,9.2v47.3l49.4-8.7v67.5Z"/>
</svg>