<?xml version="1.0" encoding="utf-8"?>
<!-- Generator: Adobe Illustrator 28.2.0, SVG Export Plug-In . SVG Version: 6.00 Build 0)  -->
<svg version="1.1" id="_图层_1" xmlns="http://www.w3.org/2000/svg" xmlns:xlink="http://www.w3.org/1999/xlink" x="0px" y="0px"
	 viewBox="0 0 200 200" style="enable-background:new 0 0 200 200;" xml:space="preserve">
<style type="text/css">
	.st0{fill:#0057E7;}
	.st1{fill:#98BBF6;}
</style>
<path class="st0" d="M176.2,77.4H23.8c-10.5,0-19.1,7.5-19.1,16.7v83.3c0,9.2,8.6,16.7,19.1,16.7h152.4c10.5,0,19.1-7.5,19.1-16.7
	V94.1C195.3,84.9,186.7,77.4,176.2,77.4L176.2,77.4z M90.5,102.4h19.1v16.7H90.5C90.5,119.1,90.5,102.4,90.5,102.4z M90.5,127.4
	h19.1v16.7H90.5C90.5,144.1,90.5,127.4,90.5,127.4z M61.9,102.4h19.1v16.7H61.9V102.4z M61.9,127.4h19.1v16.7H61.9V127.4z
	 M52.4,144.1H33.3v-16.7h19.1C52.4,127.4,52.4,144.1,52.4,144.1z M52.4,119.1H33.3v-16.7h19.1C52.4,102.4,52.4,119.1,52.4,119.1z
	 M138.1,177.4H61.9v-16.7h76.2V177.4z M138.1,144.1h-19.1v-16.7h19.1V144.1z M138.1,119.1h-19.1v-16.7h19.1V119.1z M166.7,144.1
	h-19.1v-16.7h19.1V144.1z M166.7,119.1h-19.1v-16.7h19.1V119.1z"/>
<path class="st1" d="M181.9,55.1h-18.2V27.6h18.2V55.1z M145.5,59.9h-18.2v-39h18.2V59.9L145.5,59.9z M109.1,74.5H90.9V6.2h18.2
	V74.5z M72.7,65.9H54.5v-45h18.2L72.7,65.9L72.7,65.9z M36.3,67.1H18.1V8.6h18.2L36.3,67.1L36.3,67.1z"/>
</svg>
