<?xml version="1.0" encoding="UTF-8"?>
<svg id="_图层_1" xmlns="http://www.w3.org/2000/svg" version="1.1" viewBox="0 0 200 200">
  <!-- Generator: Adobe Illustrator 29.0.1, SVG Export Plug-In . SVG Version: 2.1.0 Build 192)  -->
  <defs>
    <style>
      .st0 {
        fill: #98bbf6;
      }

      .st1 {
        fill: #0057e7;
      }
    </style>
  </defs>
  <path class="st0" d="M30.4,20.8v105.1c6.4-7.7,11-11.3,16.3-14.4,4.9-2.8,12.1-4.9,18.1-4.9s13,1.6,18.1,6.1c4.6,4,6.9,10.7,6.9,17.2,0,9.9-5.1,19.4-13,26.9-8.6,8.3-16.3,13.8-30.7,22.5-7.5,4.5-11.9,7.5-15.9,10.7h-7.5V20.8h7.7ZM30.4,182c14.4-10.1,24.5-19,30-26.5,5.7-7.5,8.6-13.2,8.6-23.3s-2.2-7.7-5.1-10.1c-3.1-2.4-6-2.8-9.9-2.8-5.7,0-15.2,4.5-23.6,15.6v47.2h0Z"/>
  <path class="st1" d="M86.4,74.3h21l-8.1-42.3h14.2l8.1,42.3h23l-8.1-42.3h14.2l8.1,42.3h22.3l3.4,15.6h-23l6.8,35.6h22.3l2.7,14.9h-22.3l8.8,43.8h-14.2l-8.8-43.8h-23l8.8,43.8h-14.2l-8.8-43.8h-21.6l-2.7-14.9h21.6l-6.8-35.6h-21l-2.7-15.6ZM156.8,125.5l-6.8-35.6h-23l6.8,35.6h23Z"/>
</svg>