<?xml version="1.0" encoding="UTF-8"?>
<svg id="_图层_1" xmlns="http://www.w3.org/2000/svg" version="1.1" viewBox="0 0 200 200">
  <!-- Generator: Adobe Illustrator 29.0.1, SVG Export Plug-In . SVG Version: 2.1.0 Build 192)  -->
  <defs>
    <style>
      .st0 {
        fill: #98bbf6;
      }

      .st1 {
        fill: #0057e7;
      }
    </style>
  </defs>
  <path class="st0" d="M21.4,20.8v105.1c6.4-7.7,11-11.3,16.3-14.4,4.9-2.8,12.1-4.9,18.1-4.9s13,1.6,18.1,6.1c4.6,4,6.9,10.7,6.9,17.2,0,9.9-5.1,19.4-13,26.9-8.6,8.3-16.3,13.8-30.7,22.5-7.5,4.5-11.9,7.5-15.9,10.7h-7.5V20.8h7.7ZM21.4,182c14.4-10.1,24.5-19,30-26.5,5.7-7.5,8.6-13.2,8.6-23.3s-2.2-7.7-5.1-10.1c-3.1-2.4-6-2.8-9.9-2.8-5.7,0-15.2,4.5-23.6,15.6v47.2h0Z"/>
  <path class="st1" d="M155.6,76.7l-20.7,7.3v39.4l20.7-7.3v-39.4ZM160.3,7.5c3.1,0,4.7,1.6,4.7,4.7v35.8l8-2.9c.2-.2.8-.3,1.7-.3s2.4.5,3.7,1.6c.9.9,1.4,2,1.4,3.4v14.8c0,2.2-1.1,3.8-3.4,4.7l-11.4,3.9v39.4l8-2.6c.2-.2.8-.3,1.7-.3s2.4.5,3.7,1.6c.9.9,1.4,2,1.4,3.4v14.8c0,2.2-1.1,3.7-3.4,4.4l-11.4,4.4v38.9c0,2.9-1.6,4.4-4.7,4.4s-4.7-1.5-4.7-4.4v-35.8l-20.7,7.8v38.9c0,3.1-1.6,4.7-4.7,4.7-3.1,0-4.7-1.6-4.7-4.7v-35.8l-7.7,2.9c-.2.2-.9.3-2,.3-1.3,0-2.6-.5-3.4-1.4-1-1-1.5-2.2-1.4-3.5v-14.8c0-2.4,1-4,3.1-4.7l11.4-3.9v-39.4l-7.7,2.6c-.2.2-.9.3-2,.3-1.3,0-2.6-.5-3.4-1.4-1-1-1.5-2.2-1.4-3.5v-14.8c0-2.2,1-3.7,3.1-4.4l11.4-4.4V23c0-2.9,1.6-4.4,4.7-4.4s4.7,1.5,4.7,4.4v35.8l20.7-7.8V12.2c0-3.1,1.6-4.7,4.7-4.7h0Z"/>
</svg>