<?xml version="1.0" encoding="UTF-8"?>
<svg id="_图层_1" xmlns="http://www.w3.org/2000/svg" version="1.1" viewBox="0 0 200 200">
  <!-- Generator: Adobe Illustrator 29.0.1, SVG Export Plug-In . SVG Version: 2.1.0 Build 192)  -->
  <defs>
    <style>
      .st0 {
        fill: #98bbf6;
      }

      .st1 {
        fill: #2356df;
      }
    </style>
  </defs>
  <path class="st1" d="M194.7,196.9H5.3v-88.7h189.3v88.7ZM17.2,184.3h165.6v-62.6H17.2v62.6Z"/>
  <path class="st1" d="M40.9,108.1h11.8v82.8h-11.8v-82.8ZM76.4,108.1h11.8v82.8h-11.8v-82.8ZM111.8,108.1h11.8v82.8h-11.8v-82.8ZM147.3,108.1h11.8v82.8h-11.8v-82.8Z"/>
  <path class="st1" d="M171,108.1h23.7v47.3h-23.7v-47.3ZM105.9,108.1h23.7v47.3h-23.7v-47.3ZM70.4,108.1h23.7v47.3h-23.7v-47.3ZM34.9,108.1h23.7v47.3h-23.7v-47.3Z"/>
  <g>
    <path class="st0" d="M8.5,92.5V11.9h19.7l11.9,55,11.7-55h19.8v80.6h-12.3V29l-13,63.5h-12.7l-12.9-63.5v63.5h-12.3Z"/>
    <path class="st0" d="M84.3,92.5V11.9h13.2v80.6h-13.2Z"/>
    <path class="st0" d="M110,11.9h24.1c5.4,0,9.6.5,12.4,1.5,3.8,1.4,7.1,3.9,9.8,7.4,2.7,3.6,4.8,7.9,6.2,13.1,1.4,5.2,2.1,11.5,2.1,19.1s-.7,12.4-2,17.2c-1.6,5.9-4,10.6-7,14.2-2.3,2.8-5.4,4.9-9.3,6.4-2.9,1.1-6.8,1.7-11.7,1.7h-24.8V11.9ZM123.2,25.5v53.4h9.8c3.7,0,6.3-.3,8-.8,2.1-.7,3.9-1.8,5.3-3.4,1.4-1.6,2.6-4.2,3.5-7.8.9-3.6,1.3-8.5,1.3-14.8s-.4-11-1.3-14.4c-.9-3.3-2.1-5.9-3.7-7.8-1.6-1.9-3.6-3.1-6.1-3.8-1.8-.5-5.5-.8-10.8-.8h-5.9Z"/>
    <path class="st0" d="M175.6,92.5V11.9h13.2v80.6h-13.2Z"/>
  </g>
</svg>