<?xml version="1.0" encoding="UTF-8"?>
<svg id="_图层_1" xmlns="http://www.w3.org/2000/svg" version="1.1" viewBox="0 0 200 200">
  <!-- Generator: Adobe Illustrator 29.0.1, SVG Export Plug-In . SVG Version: 2.1.0 Build 192)  -->
  <defs>
    <style>
      .st0 {
        fill: #98bbf6;
      }

      .st1 {
        fill: #346ad7;
      }
    </style>
  </defs>
  <path class="st1" d="M18.3,6.1v183.8c0,4.5,3.7,8.2,8.2,8.2l121-15.4h-.1c19.4-2.6,34.4-19.2,34.4-39.3s0-.8-.1-1.2V6.1c0-2.3-1.8-4.1-4.1-4.1H22.3c-2.3,0-4.1,1.8-4.1,4.1ZM38.7,22.4h122.5v119.9s0,.5,0,.5c0,.4,0,.9,0,1.3,0,10.5-8.4,18.4-19,18.4s-19.1-8.6-19.1-19.1,0-.5,0-.7h0c0,0,0-13.9,0-13.9,0-2.3-1.5-3.1-3.4-1.9l-81,47.5V22.4Z"/>
  <path class="st0" d="M104.9,39.2c-6.8-2.4-18.5-3.6-25.5-1.1-9,3.3-18.1,9.9-21.4,19.2-3.2,9.1,1.3,21.2,10.4,25.6,5,2.4,16.7,1.3,17.1-14,.3-9.3-8.3-12.6-16.1-10.9-.8-3.3.6-6.6,3.3-8.7,4.6-3.6,11.7-5.6,17.5-5,10.8,1.1,18.2,11.3,20.6,21,5.9,23.6-11.6,50.6-30.8,62.9-6.5,4.2-13.8,7.7-21.4,9.2-2.5.5-11.3.5-11.4,4.4,0,1.3,1.1,2,2.9,2.3,5.2.9,15.8-1.7,17.6-2.2,13.6-4,27.4-12.4,37.2-22.6,10.9-11.5,20.5-25.6,21.5-41.8,1-15.5-5.8-32.9-21.4-38.4ZM144.5,62c4.6,0,8.4-3.7,8.4-8.3s-3.7-8.4-8.4-8.4-8.3,3.7-8.3,8.4c0,4.6,3.7,8.3,8.3,8.3h0ZM144.5,80.5c-4.6,0-8.3,3.7-8.3,8.3s3.7,8.3,8.3,8.3,8.4-3.7,8.4-8.3-3.7-8.3-8.4-8.3h0Z"/>
</svg>