<?xml version="1.0" encoding="UTF-8"?>
<svg id="_图层_1" xmlns="http://www.w3.org/2000/svg" version="1.1" viewBox="0 0 200 200">
  <!-- Generator: Adobe Illustrator 29.0.1, SVG Export Plug-In . SVG Version: 2.1.0 Build 192)  -->
  <defs>
    <style>
      .st0 {
        fill: #98bbf6;
      }

      .st1 {
        fill: #346ad7;
      }
    </style>
  </defs>
  <path class="st1" d="M111.7,11c-11.9-4.2-32.1-6.2-44.2-1.9-15.6,5.6-31.4,17.2-37.1,33.3-5.5,15.8,2.2,36.8,17.9,44.4,8.6,4.2,28.9,2.3,29.6-24.3.5-16.2-14.4-21.8-27.9-18.8-1.4-5.7,1-11.4,5.6-15,8-6.3,20.2-9.8,30.3-8.7,18.7,2,31.5,19.6,35.7,36.3,10.3,40.9-20.2,87.7-53.4,109-11.3,7.2-23.9,13.4-37.1,15.9-4.4.8-19.6.9-19.7,7.6,0,2.3,1.9,3.5,5,4,9,1.6,27.3-2.9,30.5-3.9,23.6-6.9,47.5-21.4,64.4-39.1,18.9-19.9,35.5-44.3,37.3-72.4,1.8-26.9-10.1-57-37-66.5Z"/>
  <path class="st0" d="M180.3,50.5c8,0,14.5-6.5,14.5-14.4s-6.5-14.5-14.5-14.5-14.4,6.5-14.4,14.5c0,8,6.4,14.4,14.4,14.4h0Z"/>
  <path class="st0" d="M180.3,82.6c-8,0-14.4,6.5-14.4,14.4s6.5,14.4,14.4,14.4,14.5-6.5,14.5-14.4-6.5-14.4-14.5-14.4h0Z"/>
</svg>