<?xml version="1.0" encoding="UTF-8"?>
<svg id="_图层_1" xmlns="http://www.w3.org/2000/svg" version="1.1" viewBox="0 0 200 200">
  <!-- Generator: Adobe Illustrator 29.0.1, SVG Export Plug-In . SVG Version: 2.1.0 Build 192)  -->
  <defs>
    <style>
      .st0 {
        fill: #98bbf6;
      }

      .st1 {
        fill: #0057e7;
      }
    </style>
  </defs>
  <path class="st0" d="M178.3,91.6l-14.6,9.7-64.3,42.5-63.1-42.5-14.6-9.7-14.6,9.7,92.2,60.7,92.2-60.7-13.3-9.7h0Z"/>
  <path class="st0" d="M99.4,177.8l-63.1-41.2-14.6-9.7-14.6,9.7,92.2,60.7,92.2-60.7-14.6-9.7-13.3,9.7-64.3,41.2h0Z"/>
  <path class="st1" d="M192.8,63.7L99.4,3.1,7.2,63.7l92.2,60.7,93.4-60.7ZM99.4,22.5l64.3,41.3-64.3,42.5-63.1-42.5s63.1-41.3,63.1-41.3Z"/>
</svg>