<?xml version="1.0" encoding="UTF-8" standalone="no"?>
<!DOCTYPE svg PUBLIC "-//W3C//DTD SVG 1.1//EN" "http://www.w3.org/Graphics/SVG/1.1/DTD/svg11.dtd">
<svg width="100%" height="100%" viewBox="0 0 200 200" version="1.1" xmlns="http://www.w3.org/2000/svg" xmlns:xlink="http://www.w3.org/1999/xlink" xml:space="preserve" xmlns:serif="http://www.serif.com/" style="fill-rule:evenodd;clip-rule:evenodd;stroke-linejoin:round;stroke-miterlimit:2;">
    <g transform="matrix(0.186523,0,0,0.186523,5.24024,4.69457)">
        <g id="图层2">
            <path d="M745.904,682C812.072,682 865.904,735.832 865.904,802L865.904,814L984,814C1005.94,814 1024,832.057 1024,854C1024,875.943 1005.94,894 984,894L865.904,894L865.904,904C865.904,970.168 812.072,1024 745.904,1024C679.744,1024 625.904,970.168 625.904,904L625.904,802C625.904,735.832 679.744,682 745.904,682ZM745.904,762C723.856,762 705.904,779.944 705.904,802L705.904,904C705.904,926.056 723.856,944 745.904,944C767.96,944 785.904,926.056 785.904,904L785.904,802C785.904,779.944 767.96,762 745.904,762ZM394,338C460.168,338 514,391.832 514,458L514,471.76L984,471.76C1005.94,471.76 1024,489.817 1024,511.76C1024,533.703 1005.94,551.76 984,551.76L514,551.76L514,562C514,628.168 460.168,682 394,682C327.832,682 274,628.168 274,562L274,458C274,391.832 327.832,338 394,338ZM394,418C371.944,418 354,435.944 354,458L354,562C354,584.056 371.944,602 394,602C416.056,602 434,584.056 434,562L434,458C434,435.944 416.056,418 394,418ZM746,0C812.168,0 866,53.832 866,120L866,132L984,132C1005.94,132 1024,150.057 1024,172C1024,193.943 1005.94,212 984,212L866,212L866,222C866,288.168 812.168,342 746,342C679.832,342 626,288.168 626,222L626,120C626,53.832 679.832,0 746,0ZM746,80C723.944,80 706,97.944 706,120L706,222C706,244.056 723.944,262 746,262C768.056,262 786,244.056 786,222L786,120C786,97.944 768.056,80 746,80Z" style="fill:#0057e7;fill-rule:nonzero;"/>
        </g>
    </g>
    <g transform="matrix(0.186523,0,0,0.186523,5.24024,4.69457)">
        <path d="M505.904,814C527.847,814 545.904,832.057 545.904,854C545.904,875.943 527.847,894 505.904,894L40,894C18.057,894 0,875.943 0,854C-0,832.057 18.057,814 40,814L505.904,814ZM154,471.76C175.943,471.76 194,489.817 194,511.76C194,533.703 175.943,551.76 154,551.76L40,551.76C18.057,551.76 0,533.703 0,511.76C-0,489.817 18.057,471.76 40,471.76L154,471.76ZM506,132C527.943,132 546,150.057 546,172C546,193.943 527.943,212 506,212L40,212C18.057,212 0,193.943 0,172C-0,150.057 18.057,132 40,132L506,132Z" style="fill:#98bbf6;fill-rule:nonzero;"/>
    </g>
</svg>
