<?xml version="1.0" encoding="UTF-8" standalone="no"?>
<!DOCTYPE svg PUBLIC "-//W3C//DTD SVG 1.1//EN" "http://www.w3.org/Graphics/SVG/1.1/DTD/svg11.dtd">
<svg width="100%" height="100%" viewBox="0 0 200 200" version="1.1" xmlns="http://www.w3.org/2000/svg" xmlns:xlink="http://www.w3.org/1999/xlink" xml:space="preserve" xmlns:serif="http://www.serif.com/" style="fill-rule:evenodd;clip-rule:evenodd;stroke-linejoin:round;stroke-miterlimit:2;">
    <g transform="matrix(0.225361,0,0,0.225361,-15.3846,-15.7523)">
        <path d="M297.3,827.5L136.5,709.1C129,703.6 118.4,708.2 117.4,717.4C109.6,786.9 97.1,900.3 96.1,909.8C94.8,921.8 106.4,930.5 117.6,925.7C129.6,920.5 232.2,875.7 295,848.3C303.5,844.6 304.8,833.1 297.3,827.5ZM505.3,157.7L709.1,307.7C714.4,311.7 722,310.6 725.9,305.2L731.4,297.7C745.3,278.8 761.3,232.1 742.3,218.2L587.8,104.4C568.9,90.4 522.2,114.5 508.2,133.4L502.7,140.9C498.8,146.2 499.9,153.8 505.3,157.7ZM671.2,351.8L467.5,201.7C462.2,197.7 454.6,198.9 450.7,204.2L145.8,632.2C141.8,637.5 143,645.1 148.3,649L352.2,799.1C357.5,803.1 365.1,801.9 369,796.6L673.9,368.6C677.8,363.2 676.7,355.7 671.2,351.8Z" style="fill:#0057e7;fill-rule:nonzero;"/>
    </g>
    <g transform="matrix(0.225361,0,0,0.225361,-15.3846,-15.7523)">
        <path d="M626.8,723.9C626.8,743.8 640.2,760 656.6,760L894.5,760C911,760 924.3,743.9 924.3,723.9C924.3,704.1 910.9,688 894.5,688L656.6,688C640.2,687.9 626.8,704.1 626.8,723.9ZM898.3,854.3L422.9,854.3C406.5,854.3 393.2,870.3 393.2,890.3C393.2,910.2 406.5,926.3 422.9,926.3L898.3,926.3C914.7,926.3 928,910.2 928,890.3C928,870.3 914.7,854.3 898.3,854.3Z" style="fill:#98bbf6;fill-rule:nonzero;"/>
    </g>
</svg>
