<?xml version="1.0" encoding="UTF-8"?>
<svg id="_图层_1" data-name="图层_1" xmlns="http://www.w3.org/2000/svg" version="1.1" viewBox="0 0 200 200">
  <!-- Generator: Adobe Illustrator 29.0.1, SVG Export Plug-In . SVG Version: 2.1.0 Build 192)  -->
  <path d="M180.88,45.4L135.35-.12,19.7,115.53l45.53,45.53,115.65-115.65ZM129.48,17.12l28.46,28.46-5.78,5.77-28.45-28.43,5.78-5.8ZM112.13,34.49l17.06,17.07-5.77,5.78-17.07-17.07,5.78-5.77ZM94.79,51.84l17.07,17.07-5.77,5.77-17.07-17.06,5.77-5.77ZM77.44,69.18l17.06,17.07-5.78,5.77-17.06-17.07,5.77-5.77ZM60.09,86.53l17.07,17.07-5.77,5.77-17.07-17.06,5.77-5.78ZM42.75,103.88l28.46,28.45-5.78,5.78-28.45-28.46,5.77-5.78ZM148.2,176.77H52.28v-10.71H20.11v32.25h32.2v-8.08h95.92v9.41h32.19v-32.27h-32.22v9.4ZM41.81,187.66h-10.86v-10.96h10.86v10.96ZM159.06,178.02h10.86v10.97h-10.86v-10.97Z"/>
</svg>