<?xml version="1.0" encoding="utf-8"?>
<!-- Generator: Adobe Illustrator 28.2.0, SVG Export Plug-In . SVG Version: 6.00 Build 0)  -->
<svg version="1.1" id="图层_1" xmlns="http://www.w3.org/2000/svg" xmlns:xlink="http://www.w3.org/1999/xlink" x="0px" y="0px"
	 viewBox="0 0 443 443" style="enable-background:new 0 0 443 443;" xml:space="preserve">
<style type="text/css">
	.st0{fill:#F4801F;}
	.st1{fill:#F9AB41;}
</style>
<path class="st0" d="M300.1,314.1l2.2-7.6c2.6-9.1,1.6-17.5-2.8-23.6c-4.1-5.7-10.8-9-19.1-9.4l-155.6-2c-1.7,0-3-1.4-3-3.1
	c0-0.4,0.1-0.7,0.2-1c0.5-1.6,2-2.6,3.6-2.8l157.1-2.1c18.5-0.8,38.8-16,45.9-34.4l8.9-23.4c0.3-0.7,0.4-1.4,0.4-2.1
	c0-0.4-0.1-0.7-0.1-1.1c-12.4-55.1-67.1-89.8-122.2-77.5c-34.8,7.8-63,33.1-74.5,66.9c-20.4-15.2-49.2-10.9-64.4,9.5
	c-8.3,11.1-11.1,25.3-7.7,38.8C33,240,4.5,270.1,5.4,306.1c0.1,2.7,0.3,5.3,0.7,8c0.2,1.5,1.5,2.6,3,2.6h287.4
	C298.1,316.8,299.6,315.7,300.1,314.1L300.1,314.1z"/>
<path class="st1" d="M352,206.4c-1.4,0-2.8,0-4.3,0.1c-0.2,0-0.5,0.1-0.7,0.1c-0.8,0.3-1.4,0.9-1.6,1.6l-6.2,21.1
	c-2.6,9.1-1.7,17.5,2.8,23.6c4.5,5.9,11.6,9.4,19,9.4l33.2,2.1c0.9,0,1.8,0.5,2.3,1.3c0.6,0.8,0.7,1.9,0.4,2.8
	c-0.5,1.6-2,2.6-3.6,2.8l-34.5,2.1c-18.7,0.9-38.9,16-46,34.4l-2.5,6.5c-0.4,1,0.1,2,1.1,2.4c0.2,0.1,0.4,0.1,0.6,0.1h118.7
	c1.5,0,2.8-1,3.2-2.4c12.7-45.3-13.8-92.3-59.1-105C367.4,207.5,359.7,206.4,352,206.4L352,206.4z"/>
</svg>
