<?xml version="1.0" encoding="UTF-8" standalone="no"?>
<!DOCTYPE svg PUBLIC "-//W3C//DTD SVG 1.1//EN" "http://www.w3.org/Graphics/SVG/1.1/DTD/svg11.dtd">
<svg width="100%" height="100%" viewBox="0 0 100 100" version="1.1" xmlns="http://www.w3.org/2000/svg" xmlns:xlink="http://www.w3.org/1999/xlink" xml:space="preserve" xmlns:serif="http://www.serif.com/" style="fill-rule:evenodd;clip-rule:evenodd;stroke-linejoin:round;stroke-miterlimit:2;">
    <path d="M41.71,37.397C43.686,35.156 45.728,33.032 47.836,31.024C46.83,27.93 46.243,24.715 46.091,21.465C45.908,15.698 46.792,9.573 50.074,4.737C50.99,3.288 52.583,0.866 54.312,1.065C55.77,1.256 56.566,3.32 57.14,4.506C61.059,12.472 61.863,20.868 57.339,29.941C55.687,33.097 53.583,35.995 51.094,38.544L52.99,48.198C53.219,48.149 53.45,48.112 53.683,48.087C56.017,47.741 58.402,48.134 60.501,49.21C64.962,51.6 67.734,57.63 67.288,62.616C66.89,66.997 64.898,70.024 61.593,72.677C60.548,73.533 59.416,74.275 58.215,74.891L60.501,86.537C60.599,87.527 60.631,88.522 60.597,89.516C60.318,95.658 55.539,99.203 49.62,98.932C45.064,98.645 40.324,95.029 40.3,90.456C40.253,81.591 52.249,82.013 51.373,90.122C51.118,92.512 49.373,94.622 45.629,94.758C48.648,99.76 57.984,96.184 58.621,89.628C58.739,87.952 58.553,86.268 58.072,84.657L56.343,75.664C55.546,75.914 54.727,76.093 53.898,76.198C48.663,76.777 43.417,75.141 39.44,71.689C34.064,66.8 31.641,59.426 33.067,52.301C34.262,46.223 37.759,41.897 41.71,37.397ZM49.525,29.805C47.876,23.807 48.123,16.2 52.368,11.229C56.614,6.259 61.298,13.014 55.117,22.907C53.527,25.412 51.656,27.726 49.541,29.805L49.525,29.805ZM49.525,40.161C48.991,40.695 48.441,41.228 47.884,41.754C44.697,44.821 41.511,47.744 39.121,52.109C36.736,56.287 36.298,61.307 37.927,65.834C39.838,71.801 49.079,75.56 55.969,73.752L52.36,54.937C49.391,55.759 47.172,58.263 46.713,61.31C46.41,63.665 47.338,66.017 49.166,67.531C49.622,67.924 50.103,68.286 50.608,68.614C51.596,69.268 51.11,69.738 50.186,69.459C47.103,68.423 45.255,66.719 44.267,64.544C41.344,58.108 44.928,50.938 51.166,48.676L49.525,40.153L49.525,40.161ZM57.865,73.099L54.248,54.627C55.5,54.572 56.744,54.847 57.857,55.423C60.532,56.675 62.481,59.098 63.13,61.979C64.086,66.416 61.776,71.315 57.96,73.083L57.865,73.123L57.865,73.099Z" style="fill:#00c3ff;"/>
</svg>
