<?xml version="1.0" encoding="UTF-8" standalone="no"?>
<!DOCTYPE svg PUBLIC "-//W3C//DTD SVG 1.1//EN" "http://www.w3.org/Graphics/SVG/1.1/DTD/svg11.dtd">
<svg width="100%" height="100%" viewBox="0 0 100 100" version="1.1" xmlns="http://www.w3.org/2000/svg" xmlns:xlink="http://www.w3.org/1999/xlink" xml:space="preserve" xmlns:serif="http://www.serif.com/" style="fill-rule:evenodd;clip-rule:evenodd;stroke-linejoin:round;stroke-miterlimit:2;">
    <path d="M52.601,4.921C69.87,11.244 76.61,26.613 71.541,43.118C67.253,57.089 58.458,68.02 46.493,76.461C35.464,84.242 23.557,90.501 11.432,96.375C10.899,96.633 9.745,96.568 9.462,96.206C8.792,95.347 9.124,94.582 10.153,93.874C17.153,89.057 24.365,84.49 30.993,79.205C44.853,68.154 53.781,54.028 56.176,36.281C56.905,30.882 56.794,25.445 55.355,20.147C53.88,14.704 50.745,10.77 46.503,8.675C44.113,7.495 41.371,6.915 38.376,6.948C33.288,7.002 29.434,8.486 29.434,8.486C25.151,9.628 21.065,13.683 19.567,17.346C18.769,19.299 19.838,21.132 21.958,21.22C22.853,21.256 23.804,21.087 24.656,20.797C30.757,18.714 36.674,22.497 38.023,27.719C39.377,32.962 35.655,38.515 29.748,40.059C22.283,42.011 14.337,37.806 12.494,30.577C11.139,25.261 12.798,20.36 15.778,15.878C20.379,8.96 27.309,5.761 35.135,4.055C41.594,2.648 50.39,4.112 52.602,4.922L52.601,4.921ZM77.913,44.477C77.929,48.206 80.706,50.985 84.406,50.976C88.022,50.966 90.909,48.038 90.886,44.404C90.863,40.867 88.005,38.045 84.426,38.025C80.7,38.005 77.897,40.782 77.913,44.477L77.913,44.477ZM77.914,18.732C77.926,22.472 80.669,25.222 84.389,25.222C88.021,25.222 90.89,22.338 90.884,18.695C90.878,15.164 88.038,12.357 84.444,12.329C80.688,12.3 77.902,15.031 77.914,18.732L77.914,18.732Z" style="fill:#09f;fill-rule:nonzero;"/>
</svg>
