<?xml version="1.0" standalone="no"?><!DOCTYPE svg PUBLIC "-//W3C//DTD SVG 1.1//EN" "http://www.w3.org/Graphics/SVG/1.1/DTD/svg11.dtd"><svg t="1736498928810" class="icon" viewBox="0 0 1024 1024" version="1.1" xmlns="http://www.w3.org/2000/svg" p-id="3067" xmlns:xlink="http://www.w3.org/1999/xlink" width="200" height="200"><path d="M574.485695 42.92122C453.922712-20.072136 334.253559-7.983729 226.386441 73.849492 142.878373 137.485017 116.870508 227.970169 132.473492 328.382915c11.420203 74.70861 94.67661 127.271051 169.550101 113.013153 63.453288-11.958237 99.623051-77.372746 84.263051-152.714848-15.993492-77.381424-65.353763-104.109559-157.236068-85.530034-6.846915 1.423186-13.797966 2.256271-25.704135 3.688136-7.298169 0.867797-16.462102 1.969898-28.611255 3.566644 9.849492-15.655051 17.928678-30.372881 25.409085-43.98861 13.416136-24.428475 24.871051-45.298983 41.09017-61.639593C363.316068-13.711186 517.757831 30.711322 563.950644 195.011254c74.873492 266.24-66.499254 601.582644-309.777356 731.77817-37.280542 19.915932-75.975593 37.271864-114.688 54.627796-17.954712 8.053153-35.900746 16.097627-53.71661 24.411119l1.909153 15.264542c10.370169-1.865763 20.766373-3.592678 31.153898-5.319593 22.918508-3.818305 45.819661-7.619254 68.338983-12.878102 317.006102-73.936271 552.291797-338.145627 567.521627-640.529355 6.977085-143.047593-53.300068-253.136271-180.206644-319.435933z m237.307661 424.933966a62.516068 62.516068 0 0 0 18.215051 44.084068 62.168949 62.168949 0 0 0 43.971254 18.275797 62.03878 62.03878 0 0 0 43.971254-18.267119 62.359864 62.359864 0 0 0 18.206373-44.092746 62.516068 62.516068 0 0 0-18.206373-44.101423 62.177627 62.177627 0 0 0-43.971254-18.267119 62.03878 62.03878 0 0 0-43.971254 18.267119 62.37722 62.37722 0 0 0-18.215051 44.101423z m4.738169-285.400949a62.516068 62.516068 0 0 1 13.476882-67.96583 62.160271 62.160271 0 0 1 43.971254-18.258441 62.021424 62.021424 0 0 1 43.971254 18.258441 62.37722 62.37722 0 0 1 18.206373 44.101424 62.516068 62.516068 0 0 1-18.206373 44.092745 62.160271 62.160271 0 0 1-43.971254 18.267119 62.021424 62.021424 0 0 1-43.971254-18.267119 62.368542 62.368542 0 0 1-13.476882-20.228339z" p-id="3068"></path></svg>