<?xml version="1.0" standalone="no"?><!DOCTYPE svg PUBLIC "-//W3C//DTD SVG 1.1//EN" "http://www.w3.org/Graphics/SVG/1.1/DTD/svg11.dtd"><svg t="1735573145514" class="icon" viewBox="0 0 1024 1024" version="1.1" xmlns="http://www.w3.org/2000/svg" p-id="58329" xmlns:xlink="http://www.w3.org/1999/xlink" width="200" height="200"><path d="M224 260.266667C294.4 179.2 396.8 128 512 128c83.2 0 160 27.733333 221.866667 72.533333l27.733333-32C691.2 115.2 605.866667 85.333333 512 85.333333c-128 0-243.2 57.6-320 147.2l32 27.733334zM750.933333 213.333333c87.466667 70.4 145.066667 179.2 145.066667 298.666667 0 89.6-32 174.933333-85.333333 238.933333l32 27.733334C902.4 706.133333 938.666667 612.266667 938.666667 512c0-134.4-61.866667-253.866667-160-332.8L750.933333 213.333333zM797.866667 768c-70.4 78.933333-172.8 128-285.866667 128-96 0-185.6-36.266667-253.866667-96L232.533333 832c74.666667 66.133333 172.8 106.666667 279.466667 106.666667 125.866667 0 238.933333-55.466667 317.866667-142.933334L797.866667 768zM215.466667 819.2l27.733333-32C172.8 716.8 128 618.666667 128 512c0-89.6 32-170.666667 83.2-236.8l-32-27.733333C119.466667 320 85.333333 411.733333 85.333333 512c0 119.466667 51.2 228.266667 130.133334 307.2z" fill="#4C64FE" p-id="58330"></path><path d="M919.466667 366.933333l-21.333334 2.133334c-262.4 17.066667-379.733333-194.133333-409.6-260.266667-2.133333-4.266667-2.133333-6.4-6.4-8.533333l-10.666666-10.666667-32 14.933333-19.2 10.666667 8.533333 19.2c21.333333 51.2 145.066667 302.933333 437.333333 302.933333 12.8 0 25.6 0 40.533334-2.133333l19.2-4.266667-6.4-64z" fill="#4C64FE" opacity=".3" p-id="58331"></path><path d="M874.666667 672c-300.8-119.466667-192-507.733333-185.6-526.933333l-10.666667-21.333334-51.2-21.333333v27.733333c-27.733333 108.8-93.866667 477.866667 221.866667 603.733334l19.2 8.533333 23.466666-61.866667-17.066666-8.533333z" fill="#4C64FE" p-id="58332"></path><path d="M842.666667 245.333333l-21.333334 12.8C774.4 285.866667 661.333333 362.666667 618.666667 505.6c-36.266667 115.2-17.066667 243.2 55.466666 379.733333l10.666667 19.2 59.733333-51.2h-12.8c-64-119.466667-81.066667-230.4-51.2-328.533333 40.533333-128 151.466667-198.4 170.666667-209.066667h32l-40.533333-70.4z" fill="#4C64FE" p-id="58333"></path><path d="M919.466667 548.266667c-2.133333 0-179.2-64-362.666667 2.133333-130.133333 46.933333-232.533333 142.933333-298.666667 290.133333l12.8 19.2 36.266667 25.6 8.533333-19.2C501.333333 462.933333 893.866667 605.866667 896 605.866667l21.333333 8.533333 19.2-57.6-17.066666-8.533333zM330.666667 140.8l-12.8-12.8-46.933334 29.866667 8.533334 17.066666 2.133333 2.133334c27.733333 49.066667 157.866667 311.466667-119.466667 541.866666l6.4 12.8 17.066667 51.2 17.066667-14.933333c123.733333-102.4 189.866667-224 196.266666-360.533333 6.4-147.2-59.733333-260.266667-68.266666-266.666667z" fill="#4C64FE" opacity=".3" p-id="58334"></path><path d="M684.8 876.8c-66.133333-160-166.4-266.666667-298.666667-315.733333-153.6-57.6-285.866667-14.933333-285.866666-14.933334l4.266666 8.533334-4.266666 53.333333h21.333333c57.6-14.933333 354.133333-66.133333 505.6 296.533333h8.533333l57.6-10.666666-8.533333-17.066667z" fill="#4C64FE" p-id="58335"></path><path d="M422.4 469.333333c-110.933333-142.933333-283.733333-149.333333-285.866667-149.333333l-21.333333 64h21.333333c2.133333 0 147.2 8.533333 236.8 123.733333 70.4 91.733333 89.6 224 53.333334 398.933334l-4.266667 21.333333 64-8.533333h4.266667c38.4-194.133333 14.933333-345.6-68.266667-450.133334z" fill="#4C64FE" p-id="58336"></path><path d="M584.533333 108.8V106.666667l-66.133333-14.933334 2.133333 21.333334c0 2.133333 23.466667 315.733333-411.733333 373.333333l-21.333333 2.133333 6.4 64 21.333333-2.133333c462.933333-59.733333 469.333333-403.2 469.333333-441.6z" fill="#4C64FE" p-id="58337"></path></svg>