<?xml version="1.0" standalone="no"?><!DOCTYPE svg PUBLIC "-//W3C//DTD SVG 1.1//EN" "http://www.w3.org/Graphics/SVG/1.1/DTD/svg11.dtd"><svg t="1735573414340" class="icon" viewBox="0 0 1024 1024" version="1.1" xmlns="http://www.w3.org/2000/svg" p-id="86169" xmlns:xlink="http://www.w3.org/1999/xlink" width="200" height="200"><path d="M856.4736 192.7168C768.2048 104.448 650.8544 55.9104 526.1312 55.9104S284.0576 104.448 195.7888 192.7168c-88.2688 88.2688-136.8064 205.6192-136.8064 330.3424s48.5376 242.0736 136.8064 330.3424c88.2688 88.2688 205.6192 136.8064 330.3424 136.8064 97.28 0 190.464-29.4912 269.5168-85.6064 18.432-13.1072 22.9376-38.7072 9.8304-57.1392-3.8912-5.5296-9.0112-9.8304-14.5408-12.6976-13.1072-6.7584-29.4912-6.144-42.3936 2.8672-65.1264 46.08-142.1312 70.4512-222.208 70.4512-212.3776 0-385.2288-172.8512-385.2288-385.2288s172.4416-385.024 385.024-385.024S911.36 310.4768 911.36 523.0592c0 15.7696 9.0112 29.4912 22.1184 36.4544 5.7344 2.8672 12.0832 4.5056 18.8416 4.5056 22.528 0 40.96-18.432 40.96-40.96 0-124.928-48.5376-242.0736-136.8064-330.3424z" fill="#186cef" p-id="86170"></path><path d="M526.1312 523.0592m-165.6832 0a165.6832 165.6832 0 1 0 331.3664 0 165.6832 165.6832 0 1 0-331.3664 0Z" fill="#186cdf" p-id="86171"></path><path d="M816.81066666 724.65066666c0 35.4304 24.9856 65.1264 58.5728 72.0896 4.9152 1.024 10.0352 1.6384 15.1552 1.6384 40.7552 0 73.728-32.9728 73.728-73.728 0-21.2992-9.0112-40.5504-23.552-54.0672-13.1072-12.288-30.72-19.6608-50.176-19.6608-40.7552 0-73.728 32.9728-73.728 73.728z" fill="#186cef" p-id="86172"></path></svg>