<?xml version="1.0" standalone="no"?><!DOCTYPE svg PUBLIC "-//W3C//DTD SVG 1.1//EN" "http://www.w3.org/Graphics/SVG/1.1/DTD/svg11.dtd"><svg t="1735572016729" class="icon" viewBox="0 0 1024 1024" version="1.1" xmlns="http://www.w3.org/2000/svg" p-id="28671" xmlns:xlink="http://www.w3.org/1999/xlink" width="200" height="200"><path d="M141.927529 909.086594a376.071165 114.913406 0 1 0 752.142329 0 376.071165 114.913406 0 1 0-752.142329 0Z" fill="#2680EB" opacity=".2" p-id="28672"></path><path d="M406.229361 874.611574a112.817357 34.47502 0 1 0 225.634714 0 112.817357 34.47502 0 1 0-225.634714 0Z" fill="#2680EB" p-id="28673"></path><path d="M529.297397 862.085184h-0.858382c-15.071592 0.099812-29.484426-6.158392-39.695181-17.23751a2258.639817 2258.639817 0 0 1-155.566781-184.861565c-99.113187-133.149035-149.528163-239.598394-149.528162-315.485359C183.778646 154.109607 338.227534-0.129676 528.618676 0.00008 718.830157 0.129835 872.989591 154.289269 873.119346 344.50075a371.090552 371.090552 0 0 1-53.010084 168.063227 1373.44028 1373.44028 0 0 1-151.244927 217.290441l-0.439172 0.439173-99.113187 112.817357a51.73349 51.73349 0 0 1-40.074466 18.974236h0.059887z m-0.848401-356.817455c88.852527 0 160.876772-72.024246 160.876773-160.876772S617.301523 183.514184 528.448996 183.514184c-88.852527 0-160.876772 72.024246-160.876772 160.876773 0.149718 88.79264 72.084133 160.737036 160.876772 160.896735v-0.019963z" fill="#2680EB" p-id="28674"></path></svg>