<?xml version="1.0" standalone="no"?><!DOCTYPE svg PUBLIC "-//W3C//DTD SVG 1.1//EN" "http://www.w3.org/Graphics/SVG/1.1/DTD/svg11.dtd"><svg t="1745251824479" class="icon" viewBox="0 0 1024 1024" version="1.1" xmlns="http://www.w3.org/2000/svg" p-id="15013" xmlns:xlink="http://www.w3.org/1999/xlink" width="200" height="200"><path d="M579.413333 814.72l-15.36-15.146667a59.946667 59.946667 0 0 1 0-85.333333l42.666667-42.666667a60.16 60.16 0 0 1 85.333333 0l1.493334 1.493334 57.6-71.466667a234.666667 234.666667 0 0 0-329.386667-328.32l-71.466667 57.6 1.493334 1.493333a60.16 60.16 0 0 1 0 85.333334l-42.666667 42.666666a59.946667 59.946667 0 0 1-85.333333 0l-15.146667-15.36-79.573333 64a234.666667 234.666667 0 0 0-18.56 347.52l56.533333 56.533334a234.666667 234.666667 0 0 0 347.52-18.56z" fill="#F57C00" p-id="15014"></path><path d="M507.52 624.213333m-22.4 0a22.4 22.4 0 1 0 44.8 0 22.4 22.4 0 1 0-44.8 0Z" fill="#5D4037" p-id="15015"></path><path d="M475.946667 750.72m-22.4 0a22.4 22.4 0 1 0 44.8 0 22.4 22.4 0 1 0-44.8 0Z" fill="#5D4037" p-id="15016"></path><path d="M461.013333 765.866667a48 48 0 0 1 5.973334-73.173334l37.76-26.88a27.946667 27.946667 0 0 0 3.626666-42.666666l14.293334-14.293334a48 48 0 0 1-5.973334 73.813334l-37.973333 27.093333a28.373333 28.373333 0 0 0-11.52 21.333333 27.733333 27.733333 0 0 0 8.106667 21.333334z" fill="#5D4037" p-id="15017"></path><path d="M377.386667 516.48m-22.4 0a22.4 22.4 0 1 0 44.8 0 22.4 22.4 0 1 0-44.8 0Z" fill="#5D4037" p-id="15018"></path><path d="M250.88 548.053333m-22.4 0a22.4 22.4 0 1 0 44.8 0 22.4 22.4 0 1 0-44.8 0Z" fill="#5D4037" p-id="15019"></path><path d="M269.653333 577.066667a47.786667 47.786667 0 0 1-33.92-14.08l14.506667-14.293334a27.733333 27.733333 0 0 0 21.333333 8.106667 28.373333 28.373333 0 0 0 20.266667-11.52L320 507.306667a48.213333 48.213333 0 0 1 73.173333-5.973334l-14.506666 14.293334a27.093333 27.093333 0 0 0-21.333334-7.893334 26.666667 26.666667 0 0 0-20.266666 11.52l-27.093334 37.76a48.853333 48.853333 0 0 1-35.2 20.053334z" fill="#5D4037" p-id="15020"></path><path d="M972.8 53.546667l-2.346667-2.346667a29.653333 29.653333 0 0 0-40.533333 0L510.72 430.08l83.2 83.2L973.866667 94.08a29.653333 29.653333 0 0 0-1.066667-40.533333z" fill="#795548" p-id="15021"></path><path d="M877.759916 42.150305m20.817224 20.817224l62.60252 62.60252q20.817224 20.817224 0 41.634448l0 0q-20.817224 20.817224-41.634447 0l-62.60252-62.602521q-20.817224-20.817224 0-41.634447l0 0q20.817224-20.817224 41.634447 0Z" fill="#795548" p-id="15022"></path><path d="M75.093333 948.906667l178.56-238.08 59.52 59.52-238.08 178.56z" fill="#795548" p-id="15023"></path><path d="M306.837333 595.370667l31.68-31.68 110.570667 110.570666-31.68 31.68z" fill="#F5A766" p-id="15024"></path></svg>