<?xml version="1.0" encoding="utf-8"?>
<!-- Generator: Adobe Illustrator 28.2.0, SVG Export Plug-In . SVG Version: 6.00 Build 0)  -->
<svg version="1.1" id="图层_1" xmlns="http://www.w3.org/2000/svg" xmlns:xlink="http://www.w3.org/1999/xlink" x="0px" y="0px"
	 viewBox="0 0 200 200" style="enable-background:new 0 0 200 200;" xml:space="preserve">
<style type="text/css">
	.st0{fill:#607D8B;}
	.st1{fill:#FFFFFF;}
	.st2{fill:#263238;}
	.st3{fill:#37474F;}
	.st4{fill:#CFD8DC;}
	.st5{fill:#4DD0E1;}
</style>
<path class="st0" d="M2.7,12.1h194.7v184.2H2.7V12.1z"/>
<path class="st1" d="M12.4,121.2h175.2v63.5H12.4V121.2z"/>
<path class="st2" d="M31.9,121.2h9.7v49.4h-9.7V121.2z M46.5,121.2h9.7v49.4h-9.7V121.2z M61.1,121.2h9.7v49.4h-9.7V121.2z
	 M90.3,121.2h9.7v49.4h-9.7V121.2z M104.9,121.2h9.7v49.4h-9.7V121.2z M134.1,121.2h9.7v49.4h-9.7V121.2z M148.7,121.2h9.7v49.4
	h-9.7V121.2z M163.3,121.2h9.7v49.4h-9.7V121.2z"/>
<path class="st3" d="M27,33.1h4.9v68.1H27V33.1z"/>
<path class="st4" d="M22.1,42.9h14.6v9.7H22.1V42.9z"/>
<path class="st3" d="M46.5,33.1h4.9v68.1h-4.9V33.1z"/>
<path class="st4" d="M41.6,81.8h14.6v9.7H41.6V81.8z"/>
<path class="st3" d="M65.9,33.1h4.9v68.1h-4.9V33.1z"/>
<path class="st4" d="M61.1,47.7h14.6v9.7H61.1V47.7z"/>
<path class="st3" d="M100,42.9c0,5.4,4.4,9.7,9.7,9.7c5.4,0,9.7-4.4,9.7-9.7c0,0,0,0,0,0c0-5.4-4.4-9.7-9.7-9.7
	C104.4,33.1,100,37.5,100,42.9z"/>
<path class="st4" d="M104.9,42.9c0,2.7,2.2,4.9,4.9,4.9c2.7,0,4.9-2.2,4.9-4.9c0-2.7-2.2-4.9-4.9-4.9C107,38,104.9,40.2,104.9,42.9z
	"/>
<path class="st3" d="M129.2,42.9c0,5.4,4.4,9.7,9.7,9.7c5.4,0,9.7-4.4,9.7-9.7c0,0,0,0,0,0c0-5.4-4.4-9.7-9.7-9.7
	S129.2,37.5,129.2,42.9C129.2,42.9,129.2,42.9,129.2,42.9z"/>
<path class="st4" d="M134.1,42.9c0,2.7,2.2,4.9,4.9,4.9c2.7,0,4.9-2.2,4.9-4.9c0-2.7-2.2-4.9-4.9-4.9
	C136.2,38,134.1,40.2,134.1,42.9z"/>
<path class="st3" d="M158.4,42.9c0,5.4,4.4,9.7,9.7,9.7c5.4,0,9.7-4.4,9.7-9.7c0,0,0,0,0,0c0-5.4-4.4-9.7-9.7-9.7
	S158.4,37.5,158.4,42.9C158.4,42.9,158.4,42.9,158.4,42.9z"/>
<path class="st4" d="M163.3,42.9c0,2.7,2.2,4.9,4.9,4.9c2.7,0,4.9-2.2,4.9-4.9c0-2.7-2.2-4.9-4.9-4.9
	C165.4,38,163.3,40.2,163.3,42.9z"/>
<path class="st5" d="M100,76.9h19.5v9.7H100L100,76.9z M129.2,76.9h19.5v9.7h-19.5V76.9z M158.4,76.9h19.5v9.7h-19.5V76.9z
	 M100,62.3h19.5v9.7H100L100,62.3z M129.2,62.3h19.5v9.7h-19.5V62.3z M158.4,62.3h19.5v9.7h-19.5V62.3z M100,91.5h19.5v9.7H100
	L100,91.5z M129.2,91.5h19.5v9.7h-19.5V91.5z M158.4,91.5h19.5v9.7h-19.5V91.5z"/>
</svg>
