<?xml version="1.0" encoding="utf-8"?>
<!-- Generator: Adobe Illustrator 28.2.0, SVG Export Plug-In . SVG Version: 6.00 Build 0)  -->
<svg version="1.1" id="图层_1" xmlns="http://www.w3.org/2000/svg" xmlns:xlink="http://www.w3.org/1999/xlink" x="0px" y="0px"
	 viewBox="0 0 200 200" style="enable-background:new 0 0 200 200;" xml:space="preserve">
<style type="text/css">
	.st0{fill:#C85F03;}
	.st1{fill:#994C0F;}
	.st2{fill:#FEA832;}
	.st3{fill:#FE9923;}
	.st4{fill:#32D736;}
</style>
<path class="st0" d="M49.5,34.4L25.1,9.9c-1.4-1.3-3.2-1.8-5-1.4c-1.8,0.4-3.3,1.8-3.9,3.5l-3,8.8l-4.6,14c-0.6,1.9-0.1,4.1,1.3,5.5
	l16.9,16.9c1,1,2.4,1.5,3.8,1.5c1.4,0,2.8-0.5,3.8-1.5l15.3-15.3C51.6,39.9,51.6,36.5,49.5,34.4z"/>
<path class="st1" d="M41.9,49.6l-7.6,7.6c-1,1-2.4,1.5-3.8,1.5s-2.8-0.5-3.8-1.5L9.9,40.3c-1.4-1.4-1.9-3.5-1.3-5.5l4.6-14
	C13.2,20.9,41.9,49.6,41.9,49.6z"/>
<path class="st2" d="M182.4,152.1c-34.4-34.3-60.6-60.6-95-94.9c-2-2.1-5.5-2.1-7.5,0c-4.2,4.1-7.3,7.2-11.4,11.4l-3.9-3.9
	c-2-2-2-5.5,0-7.5l7.6-7.6c2-2.1,2-5.5,0-7.6L57.2,26.8c-2.1-2.1-5.6-2.1-7.6,0L34.3,41.9L19.1,57.2c-2.1,2-2.1,5.5,0,7.5
	c45.3,45.3,79.9,80,125.3,125.4c2.1,2,5.6,2,7.6,0l15.1-15.3l15.3-15.1C184.5,157.6,184.5,154.2,182.4,152.1L182.4,152.1z"/>
<path class="st3" d="M167.2,174.8L152,190.1c-2,2-5.5,2-7.6,0C99.1,144.8,64.5,110,19.1,64.7c-2.1-2-2.1-5.5,0-7.5l15.1-15.3
	L167.2,174.8z"/>
<path class="st4" d="M190.1,39.4c-1,1.1-2.4,1.6-3.8,1.6s-2.8-0.5-3.8-1.6c-4.8-4.7-11.1-7.7-17.7-8.7v37.2c0,3-2.4,5.4-5.4,5.4
	s-5.4-2.4-5.4-5.4v-43c0-3,2.4-5.4,5.4-5.4c12,0,22.8,4.5,30.6,12.4C192.2,33.9,192.2,37.3,190.1,39.4z"/>
<path class="st0" d="M136.9,144.5c-2.1,2-5.6,2-7.6,0c-2.1-2.1-2.1-5.6,0-7.6c2-2.1,5.5-2.1,7.6,0
	C138.9,138.9,138.9,142.4,136.9,144.5z M121.6,129.3c-2,2.1-5.5,2.1-7.6,0c-2-2-2-5.5,0-7.6c2.1-2,5.6-2,7.6,0
	C123.8,123.8,123.8,127.2,121.6,129.3z M106.5,114.1c-2.1,2-5.5,2-7.6,0c-2-2.1-2-5.5,0-7.6c2.1-2.1,5.5-2.1,7.6,0
	C108.5,108.6,108.5,112,106.5,114.1z M91.2,98.9c-2,2.1-5.5,2.1-7.5,0c-2.1-2-2.1-5.5,0-7.5c2-2.1,5.5-2.1,7.5,0
	C93.4,93.4,93.4,96.8,91.2,98.9z M174.8,136.9l-45.6,45.6c-2.1,2.1-5.5,2.1-7.6,0c-2-2-2-5.5,0-7.6l45.6-45.6c2.1-2,5.6-2,7.6,0
	C177,131.4,177,134.8,174.8,136.9L174.8,136.9z"/>
<path class="st4" d="M159.4,55.9c-2.8-2.6-6.6-4.2-10.7-4.2c-8.9,0-16.1,7.2-16.1,16.1c0,8.9,7.2,16.1,16.1,16.1
	c4.2,0,8-1.6,10.7-4.2c3.3-2.9,5.4-7.2,5.4-11.9S162.8,58.8,159.4,55.9z"/>
<path class="st1" d="M152,159.7l-22.8,22.8c-2.1,2.1-5.5,2.1-7.6,0c-2-2-2-5.5,0-7.6l22.8-22.8L152,159.7z"/>
</svg>
