<?xml version="1.0" encoding="utf-8"?>
<!-- Generator: Adobe Illustrator 28.2.0, SVG Export Plug-In . SVG Version: 6.00 Build 0)  -->
<svg version="1.1" id="图层_1" xmlns="http://www.w3.org/2000/svg" xmlns:xlink="http://www.w3.org/1999/xlink" x="0px" y="0px"
	 viewBox="0 0 200 200" style="enable-background:new 0 0 200 200;" xml:space="preserve">
<style type="text/css">
	.st0{fill:#FF9800;}
	.st1{fill:#FFC107;}
</style>
<path class="st0" d="M136,171H64c0,8.4-8,15.2-18,15.2v10.1h107.9v-10.1C144,186.2,136,179.4,136,171z M106,29.1h6v136.8h-6V29.1z
	 M88,29.1h6v136.8h-6V29.1z M70,29.1h6v136.8h-6V29.1z M124,29.1h6v136.8h-6V29.1z M141.9,29.1h6v136.8h-6V29.1z M52.1,29.1h6v136.8
	h-6V29.1z"/>
<path class="st1" d="M46.1,24h107.9v10.1H46.1V24z"/>
<path class="st1" d="M171.9,24c0,5.6,5.4,10.1,12,10.1c6.6,0,12-4.5,12-10.1c1.3-10.1-7.3-19.2-19.3-20.3c-1.6-0.1-3.1-0.1-4.7,0
	c-18,0-24,15.2-24,25.3c0,17.1,12,39.6,12,71c0,20.6-15,45.6-59.9,45.6s-59.9-25-59.9-45.6c0-31.4,12-53.9,12-71
	c0-10.1-6-25.3-24-25.3C16.1,2.6,5.4,9.9,4.1,20c-0.2,1.3-0.2,2.6,0,4c0,5.6,5.4,10.1,12,10.1s12-4.6,12-10.1c0-5.4-5-9.8-11.4-10.1
	h8.4c3,0,9,2.2,9,10.1c0,6.3-24,47.5-24,76c0,57.3,41.9,76,89.9,76s89.9-18.7,89.9-76c0-28.5-24-69.7-24-76
	c0-16.4,17.4-10.1,17.4-10.1C176.9,14.1,171.9,18.6,171.9,24z M46.1,186.2h107.9v10.1H46.1V186.2z"/>
</svg>
