<?xml version="1.0" encoding="utf-8"?>
<!-- Generator: Adobe Illustrator 28.2.0, SVG Export Plug-In . SVG Version: 6.00 Build 0)  -->
<svg version="1.1" id="图层_1" xmlns="http://www.w3.org/2000/svg" xmlns:xlink="http://www.w3.org/1999/xlink" x="0px" y="0px"
	 viewBox="0 0 200 200" style="enable-background:new 0 0 200 200;" xml:space="preserve">
<style type="text/css">
	.st0{fill:#3C61A1;}
	.st1{fill:#FFFFFF;}
	.st2{fill:#263238;}
</style>
<path class="st0" d="M97,53.3L82.5,34.9c-8.3-10.6-21.6-16.8-35.8-16.8C22.5,18.3,2.8,36.4,2.8,58.8v138.4h194.4v-86.7
	c0-22.4-19.7-40.5-44-40.5h-20.5C118.6,70,105.3,63.8,97,53.3z"/>
<path class="st1" d="M13,124.8h174V187H13V124.8z"/>
<path class="st2" d="M28.4,124.8h10.2v44.4H28.4V124.8z M43.7,124.8H54v44.4H43.7V124.8z M59.1,124.8h10.2v44.4H59.1V124.8z
	 M84.7,124.8h10.2v44.4H84.7V124.8z M100,124.8h10.2v44.4H100V124.8z M125.6,124.8h10.2v44.4h-10.2
	C125.6,169.2,125.6,124.8,125.6,124.8z M140.9,124.8h10.2v44.4h-10.2V124.8z M156.3,124.8h10.2v44.4h-10.2V124.8z"/>
</svg>
