<?xml version="1.0" standalone="no"?><!DOCTYPE svg PUBLIC "-//W3C//DTD SVG 1.1//EN" "http://www.w3.org/Graphics/SVG/1.1/DTD/svg11.dtd"><svg t="1736498913540" class="icon" viewBox="0 0 1024 1024" version="1.1" xmlns="http://www.w3.org/2000/svg" p-id="2082" xmlns:xlink="http://www.w3.org/1999/xlink" width="200" height="200"><path d="M547.044052 489.883389l-17.18889-105.404926c49.335336-41.295371 98.840594-94.963703 112.939598-179.177642C661.960105 90.246148 596.379389 7.780611 590.020751 2.18662c-6.358638-5.58952-33.179389-6.640349-74.948751 76.91179-40.870568 81.723249-12.891668 216.408314-12.891668 216.408315l1.502463 9.399336C430.196262 363.980576 340.85338 424.727476 328.475948 540.886638c-15.771389 148.144629 86.852192 211.24807 86.852192 211.248069 19.295022 14.769747 94.543371 46.4109 164.805869 29.499249l15.127476 94.131983c2.535406 18.092157 6.318393 69.046218-6.743197 87.666026-17.193362 24.254044-42.976699 46.889362-80.193956 46.889363a106.46917 106.46917 0 0 1-29.606568-4.368769c-22.993048-7.691179-29.096803-16.82669-29.096803-16.82669 23.766638-2.007755 42.243354-21.106026 42.243353-21.106026a55.975686 55.975686 0 0 0 14.353887-20.426341 56.811878 56.811878 0 0 0-2.790288-48.838987 55.640314 55.640314 0 0 0-16.57628-18.597449 54.446393 54.446393 0 0 0-22.903616-9.363564 54.151266 54.151266 0 0 0-24.620716 1.752874 54.817537 54.817537 0 0 0-21.396681 12.520524 56.006987 56.006987 0 0 0-13.862009 20.766183c-25.783336 49.818271 18.136873 87.795703 18.136874 87.795703 30.46959 20.234061 59.217607 30.371214 85.944454 30.371214a98.876367 98.876367 0 0 0 34.386725-6.076926c21.870672-7.995249 41.036017-23.641432 57.06676-46.406428 18.870218-26.878882 9.497712-94.744594 9.068436-97.762934l-15.342113-95.790952c35.969677-12.104664 69.488908-38.500611 91.878288-88.363598 50.927231-114.191651-49.804856-208.45331-138.163983-199.715773z m57.504979-401.609223c31.068786 37.668891 28.014672 87.402201-45.556821 166.93883a446.60262 446.60262 0 0 1-43.231581 39.855511l-0.558952-2.669555C492.812297 167.596157 573.390812 50.515843 604.414882 88.184734l0.134149 0.089432z m-37.561572 679.985188c-41.559197 9.180227-146.114515-1.484576-191.197345-94.655162-45.078358-93.170585 41.559197-200.543022 102.109345-247.870602 12.59207-9.837555 26.212611-20.104384 40.137222-31.292367l15.641712 97.543825c-26.172367 5.907004-49.26379 21.47717-64.802655 43.7011-83.073677 115.0189 40.436821 184.767162 40.436821 184.767162l3.353712-7.691179c-79.76021-76.567476-28.797205-136.084681 32.486288-147.800314l32.191162 200.587738c-3.568349 1.006114-7.136699 1.922795-10.485939 2.624838l0.129677 0.084961z m23.592244-6.989136l-31.757415-198.052332c37.427424-2.799231 75.462987 12.583127 87.710743 52.876856 27.974428 92.513258-16.375057 129.748402-56.083005 145.086044l0.129677 0.089432z" p-id="2083"></path></svg>