<?xml version="1.0" encoding="UTF-8" standalone="no"?>
<!DOCTYPE svg PUBLIC "-//W3C//DTD SVG 1.1//EN" "http://www.w3.org/Graphics/SVG/1.1/DTD/svg11.dtd">
<svg width="100%" height="100%" viewBox="0 0 100 60" version="1.1" xmlns="http://www.w3.org/2000/svg" xmlns:xlink="http://www.w3.org/1999/xlink" xml:space="preserve" xmlns:serif="http://www.serif.com/" style="fill-rule:evenodd;clip-rule:evenodd;stroke-linejoin:round;stroke-miterlimit:2;">
    <path d="M1.663,57.566L1.663,55.178L7.547,54.31L23.676,2.434L29.56,2.434L46.095,54.527L51.572,55.106L51.572,57.566L29.289,57.566L29.289,55.106L36.424,54.382L31.994,39.623L15.155,39.623L10.861,54.31L17.387,55.178L17.387,57.566L1.663,57.566ZM31.216,37.199L23.473,11.334L15.831,37.199L31.216,37.199Z" style="fill:#00b3ff;fill-rule:nonzero;"/>
    <path d="M55.123,57.566L55.123,55.178L61.716,54.455C61.762,51.199 61.784,47.895 61.784,44.543C61.829,40.129 61.852,35.704 61.852,31.266L61.852,28.155C61.852,23.91 61.829,19.666 61.784,15.421C61.784,12.214 61.762,8.994 61.716,5.762L55.123,5.184L55.123,2.724L77.913,2.724C82.106,2.724 85.499,3.284 88.091,4.406C90.684,5.527 92.566,7.047 93.738,8.964C94.91,10.881 95.496,13.106 95.496,15.638C95.496,17.712 94.967,19.672 93.907,21.517C92.848,23.362 91.089,24.935 88.632,26.238C86.851,27.178 84.575,27.914 81.802,28.444C85.116,28.782 87.877,29.445 90.086,30.434C92.949,31.688 95.04,33.34 96.359,35.39C97.677,37.44 98.337,39.791 98.337,42.444C98.337,44.325 97.982,46.152 97.272,47.925C96.562,49.697 95.372,51.313 93.704,52.772C92.036,54.231 89.782,55.395 86.942,56.263C84.101,57.132 80.562,57.566 76.324,57.566L55.123,57.566ZM71.387,54.961L75.918,54.961C79.886,54.961 82.985,53.9 85.217,51.778C87.449,49.655 88.565,46.592 88.565,42.589C88.565,38.393 87.483,35.282 85.318,33.256C83.154,31.23 79.762,30.217 75.141,30.217L71.184,30.217C71.184,35.161 71.207,39.852 71.252,44.289C71.252,47.907 71.297,51.464 71.387,54.961ZM71.184,27.721L74.532,27.721C78.454,27.721 81.396,26.696 83.357,24.646C85.318,22.596 86.299,19.69 86.299,15.928C86.299,12.624 85.454,10.055 83.763,8.222C82.072,6.39 79.288,5.473 75.411,5.473L71.387,5.473C71.297,8.729 71.252,12.021 71.252,15.349C71.207,19.401 71.184,23.525 71.184,27.721Z" style="fill:#00b3ff;fill-rule:nonzero;"/>
</svg>
