<?xml version="1.0" encoding="UTF-8" standalone="no"?>
<!DOCTYPE svg PUBLIC "-//W3C//DTD SVG 1.1//EN" "http://www.w3.org/Graphics/SVG/1.1/DTD/svg11.dtd">
<svg width="100%" height="100%" viewBox="0 0 100 60" version="1.1" xmlns="http://www.w3.org/2000/svg" xmlns:xlink="http://www.w3.org/1999/xlink" xml:space="preserve" xmlns:serif="http://www.serif.com/" style="fill-rule:evenodd;clip-rule:evenodd;stroke-linejoin:round;stroke-miterlimit:2;">
    <path d="M10.814,45.203L10.814,14.304C10.814,13.554 10.696,13.002 10.462,12.65C10.227,12.298 9.84,12.122 9.3,12.122C8.995,12.122 8.579,12.21 8.051,12.386C7.523,12.562 6.907,12.815 6.203,13.143L1.593,15.36L0.819,13.988C3.001,12.908 5.371,11.677 7.928,10.292C10.485,8.908 13.547,7.184 17.113,5.119L17.113,45.203C17.113,48.652 17.524,50.74 18.345,51.467C19.166,52.194 21.277,52.558 24.679,52.558L25.805,52.558L25.805,54.001L1.664,54.001L1.664,52.558C5.91,52.558 8.497,52.148 9.424,51.326C10.35,50.505 10.814,48.464 10.814,45.203Z" style="fill:#00b3ff;fill-rule:nonzero;"/>
    <path d="M34.955,19.548L33.442,19.337C34.428,14.856 36.299,11.43 39.055,9.061C41.812,6.691 45.302,5.506 49.525,5.506C53.49,5.506 56.657,6.609 59.027,8.814C61.396,11.02 62.581,13.999 62.581,17.753C62.581,20.615 61.772,23.472 60.153,26.322C58.534,29.173 55.472,32.897 50.968,37.496L40.164,48.581L54.135,48.581C57.795,48.581 60.264,48.206 61.543,47.455C62.822,46.705 63.93,45.332 64.869,43.338L66.241,43.76L62.159,54.001L33.372,54.001L33.372,52.699L41.114,44.64L41.818,43.901C51.578,33.695 56.458,26.105 56.458,21.132C56.458,17.894 55.537,15.331 53.695,13.442C51.853,11.553 49.384,10.609 46.287,10.609C43.66,10.609 41.366,11.383 39.407,12.932C37.448,14.48 35.964,16.686 34.955,19.548Z" style="fill:#00b3ff;fill-rule:nonzero;"/>
    <path d="M70.147,16.662C71.766,13.002 73.872,10.228 76.464,8.339C79.057,6.451 82.066,5.506 85.491,5.506C88.588,5.506 91.186,6.374 93.286,8.111C95.386,9.847 96.436,11.958 96.436,14.445C96.436,16.322 95.926,18.087 94.905,19.742C93.885,21.396 92.096,23.278 89.538,25.39C92.729,26.328 95.134,27.842 96.753,29.93C98.372,32.018 99.181,34.634 99.181,37.777C99.181,42.634 97.257,46.699 93.409,49.972C89.562,53.244 84.717,54.881 78.875,54.881C76.036,54.881 73.737,54.441 71.977,53.561C70.218,52.681 69.338,51.549 69.338,50.165C69.338,49.391 69.62,48.746 70.183,48.23C70.746,47.713 71.45,47.455 72.294,47.455C73.796,47.455 75.702,48.271 78.013,49.901C80.324,51.532 82.195,52.347 83.626,52.347C86.254,52.347 88.582,51.256 90.612,49.074C92.641,46.892 93.656,44.335 93.656,41.402C93.656,37.766 92.418,34.991 89.943,33.079C87.468,31.167 83.872,30.211 79.157,30.211L78.347,30.211L78.347,28.768C81.937,28.463 84.869,27.267 87.145,25.179C89.421,23.091 90.559,20.592 90.559,17.683C90.559,15.524 89.808,13.782 88.307,12.457C86.805,11.131 84.858,10.468 82.465,10.468C80.212,10.468 78.148,11.067 76.271,12.263C74.394,13.46 72.763,15.219 71.379,17.542L70.147,16.662Z" style="fill:#00b3ff;fill-rule:nonzero;"/>
</svg>
