<?xml version="1.0" encoding="UTF-8" standalone="no"?>
<!DOCTYPE svg PUBLIC "-//W3C//DTD SVG 1.1//EN" "http://www.w3.org/Graphics/SVG/1.1/DTD/svg11.dtd">
<svg width="100%" height="100%" viewBox="0 0 100 60" version="1.1" xmlns="http://www.w3.org/2000/svg" xmlns:xlink="http://www.w3.org/1999/xlink" xml:space="preserve" xmlns:serif="http://www.serif.com/" style="fill-rule:evenodd;clip-rule:evenodd;stroke-linejoin:round;stroke-miterlimit:2;">
    <path d="M17.655,53.682L17.655,53.018C16.876,52.93 16.004,52.686 15.039,52.287C14.074,51.889 13.369,51.313 12.923,50.56C12.626,50.073 12.459,49.232 12.422,48.036C12.385,46.84 12.367,45.6 12.367,44.316L12.367,22.062C12.367,20.954 12.376,19.858 12.394,18.773C12.413,17.688 12.422,16.592 12.422,15.485C12.459,14.466 12.487,13.381 12.506,12.23C12.524,11.078 12.701,10.126 13.035,9.373C13.517,8.31 14.204,7.602 15.094,7.248C15.985,6.893 16.82,6.65 17.6,6.517L17.6,5.853L0.954,5.853L0.954,6.517C1.919,6.65 2.782,6.882 3.543,7.214C4.304,7.546 4.944,8.089 5.463,8.842C5.686,9.152 5.853,9.584 5.964,10.137C6.076,10.691 6.159,11.311 6.215,11.997C6.271,12.684 6.299,13.426 6.299,14.223L6.299,33.421C6.299,34.75 6.289,36.045 6.271,37.307C6.252,38.57 6.234,39.732 6.215,40.795C6.196,41.858 6.187,42.699 6.187,43.319C6.187,44.028 6.178,44.748 6.159,45.478C6.141,46.209 6.104,46.907 6.048,47.571C5.992,48.235 5.918,48.811 5.825,49.298C5.733,49.785 5.593,50.162 5.408,50.427C4.851,51.18 4.174,51.756 3.376,52.155C2.578,52.553 1.715,52.841 0.787,53.018L0.787,53.682L17.655,53.682ZM39.868,53.682L39.868,53.018C39.089,52.93 38.216,52.686 37.251,52.287C36.286,51.889 35.581,51.313 35.136,50.56C34.839,50.073 34.672,49.232 34.635,48.036C34.598,46.84 34.579,45.6 34.579,44.316L34.579,22.062C34.579,20.954 34.588,19.858 34.607,18.773C34.626,17.688 34.635,16.592 34.635,15.485C34.672,14.466 34.7,13.381 34.718,12.23C34.737,11.078 34.913,10.126 35.247,9.373C35.73,8.31 36.416,7.602 37.307,7.248C38.198,6.893 39.033,6.65 39.812,6.517L39.812,5.853L23.167,5.853L23.167,6.517C24.132,6.65 24.995,6.882 25.755,7.214C26.516,7.546 27.156,8.089 27.676,8.842C27.899,9.152 28.066,9.584 28.177,10.137C28.288,10.691 28.372,11.311 28.428,11.997C28.483,12.684 28.511,13.426 28.511,14.223L28.511,33.421C28.511,34.75 28.502,36.045 28.483,37.307C28.465,38.57 28.446,39.732 28.428,40.795C28.409,41.858 28.4,42.699 28.4,43.319C28.4,44.028 28.39,44.748 28.372,45.478C28.353,46.209 28.316,46.907 28.261,47.571C28.205,48.235 28.131,48.811 28.038,49.298C27.945,49.785 27.806,50.162 27.62,50.427C27.064,51.18 26.386,51.756 25.588,52.155C24.79,52.553 23.928,52.841 23,53.018L23,53.682L39.868,53.682Z" style="fill:#00b3ff;fill-rule:nonzero;"/>
    <path d="M81.732,6.583L81.732,5.853L68.761,5.853L68.761,6.517C69.244,6.561 69.791,6.661 70.403,6.816C71.016,6.971 71.6,7.192 72.157,7.48C72.714,7.768 73.178,8.133 73.549,8.576C73.92,9.019 74.105,9.573 74.105,10.237C74.105,10.724 73.994,11.599 73.771,12.861C73.549,14.123 73.066,15.972 72.324,18.408C71.322,21.597 70.357,24.652 69.429,27.575C68.501,30.498 67.657,33.111 66.896,35.414C66.135,37.717 65.504,39.643 65.003,41.194C64.502,42.744 64.159,43.762 63.973,44.249C63.565,42.921 63.008,41.216 62.303,39.134C61.598,37.053 60.847,34.805 60.049,32.391C59.251,29.978 58.443,27.52 57.627,25.018C56.81,22.515 56.077,20.213 55.428,18.109C54.778,16.005 54.25,14.212 53.841,12.728C53.433,11.244 53.229,10.303 53.229,9.905C53.229,9.24 53.424,8.687 53.813,8.244C54.203,7.801 54.649,7.458 55.15,7.214C55.651,6.971 56.142,6.805 56.625,6.716C57.107,6.628 57.441,6.561 57.627,6.517L57.627,5.853L40.981,5.853L40.981,6.583C41.835,6.628 42.54,6.794 43.097,7.081C43.654,7.369 44.127,7.713 44.516,8.111C44.906,8.51 45.212,8.908 45.435,9.307C45.658,9.705 45.825,10.038 45.936,10.303C46.159,10.835 46.372,11.344 46.576,11.831C46.78,12.318 46.985,12.828 47.189,13.359C47.393,13.891 47.606,14.466 47.829,15.086C48.052,15.706 48.293,16.437 48.553,17.279C49.48,20.113 50.408,22.936 51.336,25.748C52.264,28.561 53.229,31.473 54.231,34.484C55.233,37.496 56.263,40.629 57.321,43.884C58.378,47.139 59.52,50.56 60.744,54.147L61.412,54.147L64.14,47.504C64.957,44.98 65.82,42.312 66.729,39.5C67.638,36.687 68.557,33.886 69.485,31.096C70.413,28.306 71.322,25.593 72.213,22.958C73.103,20.323 73.92,17.943 74.662,15.817C75.107,14.533 75.506,13.47 75.859,12.628C76.212,11.787 76.518,11.089 76.778,10.536C77.037,9.982 77.269,9.562 77.473,9.274C77.678,8.986 77.835,8.775 77.947,8.643C78.058,8.465 78.476,8.111 79.199,7.58C79.923,7.048 80.767,6.716 81.732,6.583Z" style="fill:#00b3ff;fill-rule:nonzero;"/>
    <path d="M99.213,53.682L99.213,53.018C98.433,52.93 97.561,52.686 96.596,52.287C95.631,51.889 94.926,51.313 94.481,50.56C94.184,50.073 94.017,49.232 93.98,48.036C93.943,46.84 93.924,45.6 93.924,44.316L93.924,22.062C93.924,20.954 93.933,19.858 93.952,18.773C93.971,17.688 93.98,16.592 93.98,15.485C94.017,14.466 94.045,13.381 94.063,12.23C94.082,11.078 94.258,10.126 94.592,9.373C95.075,8.31 95.761,7.602 96.652,7.248C97.543,6.893 98.378,6.65 99.157,6.517L99.157,5.853L82.512,5.853L82.512,6.517C83.477,6.65 84.34,6.882 85.1,7.214C85.861,7.546 86.501,8.089 87.021,8.842C87.244,9.152 87.411,9.584 87.522,10.137C87.633,10.691 87.717,11.311 87.773,11.997C87.828,12.684 87.856,13.426 87.856,14.223L87.856,33.421C87.856,34.75 87.847,36.045 87.828,37.307C87.81,38.57 87.791,39.732 87.773,40.795C87.754,41.858 87.745,42.699 87.745,43.319C87.745,44.028 87.735,44.748 87.717,45.478C87.698,46.209 87.661,46.907 87.606,47.571C87.55,48.235 87.476,48.811 87.383,49.298C87.29,49.785 87.151,50.162 86.965,50.427C86.409,51.18 85.731,51.756 84.933,52.155C84.135,52.553 83.273,52.841 82.345,53.018L82.345,53.682L99.213,53.682Z" style="fill:#00b3ff;fill-rule:nonzero;"/>
</svg>
