<?xml version="1.0" encoding="UTF-8"?>
<svg id="_图层_1" xmlns="http://www.w3.org/2000/svg" version="1.1" viewBox="0 0 318 241">
  <!-- Generator: Adobe Illustrator 29.0.1, SVG Export Plug-In . SVG Version: 2.1.0 Build 192)  -->
  <defs>
    <style>
      .st0 {
        fill: #bfbfbf;
      }
    </style>
  </defs>
  <path class="st0" d="M179.2,229.5c9.2,0,16.7-7.5,16.7-16.7v-116.7c0-9.2-7.5-16.7-16.7-16.7H20.8c-9.2,0-16.7,7.5-16.7,16.7v116.7c0,9.2,7.5,16.7,16.7,16.7h158.3ZM87.5,96.2v66.7h8.3v50h-33.5v-50h8.3v-66.7h16.8ZM146,212.8v-50h8.3v-66.7h24.9v116.7h-33.2ZM137.6,162.8v50h-33.5v-50h8.3v-66.7h16.8v66.7h8.3,0ZM54,212.8H20.8v-116.7h24.9v66.7h8.3v50h0Z"/>
  <path class="st0" d="M253.8,22.2c-27.3,0-49.4,22.1-49.4,49.4s22.1,49.4,49.4,49.4,49.4-22.1,49.4-49.4-22.1-49.4-49.4-49.4ZM258.8,96.3h-9.9v-9.9h9.9v9.9ZM258.8,76.5h-9.9v-29.6h9.9v29.6Z"/>
</svg>