<?xml version="1.0" encoding="utf-8"?>
<!-- Generator: Adobe Illustrator 28.2.0, SVG Export Plug-In . SVG Version: 6.00 Build 0)  -->
<svg version="1.1" id="图层_1" xmlns="http://www.w3.org/2000/svg" xmlns:xlink="http://www.w3.org/1999/xlink" x="0px" y="0px"
	 viewBox="0 0 300 52.86" style="enable-background:new 0 0 300 52.86;" xml:space="preserve">
<style type="text/css">
	.st0{fill:#3E3A39;}
	.st1{display:none;fill:url(#SVGID_1_);}
	.st2{fill:url(#SVGID_00000064345884690429625040000011115877402234100895_);}
	.st3{fill:none;}
</style>
<g>
	<path class="st0" d="M15.46,30h6.02c-1.43,5.33-3.2,10.13-5.19,14.55H9.75C12.09,39.83,14.04,35.11,15.46,30z M24.17,40.48h4.2
		V27.06H11.7L14.3,7.4c11.12,0,22.12-0.39,33.38-1.13v5.32c-9.61,0.74-18.96,1.08-28.4,1.17l-1.21,9.09h10.3v-6.02h5.63v6.02h15.45
		v5.19H33.99v18.96h-9.83V40.48z M44.47,30c1.43,5.11,3.38,9.83,5.71,14.55h-6.54c-1.99-4.42-3.77-9.22-5.19-14.55H44.47z"/>
	<path class="st0" d="M82.22,29.31v2.9h8.53v5.07h-8.53v3.12h9.74v5.15H66.76v-3.85l-14.29,2.38v-5.54l4.5-0.74V27.4H53.3v-5.45
		h3.68V13.6h-4.29V8.05h13.46v5.54h-3.64v8.35h3.29v5.45h-3.29v9.44l4.24-0.69v4.24h9.74v-3.12h-8.57v-5.07h8.57v-2.9h-7.88V7.75
		h21.43v21.56H82.22z M76.89,16.11v-3.29h-2.9v3.29H76.89z M76.89,24.2v-3.29h-2.9v3.29H76.89z M84.69,16.11v-3.29h-2.86v3.29H84.69
		z M84.69,24.2v-3.29h-2.86v3.29H84.69z"/>
	<path class="st0" d="M94.25,19.4h10.35v18.44l5.37-1.6v6.45L98.8,46.02V25.15h-4.55V19.4z M103.13,7.06l2.99,9.39h-5.89l-2.99-9.39
		H103.13z M119.1,26.54h-10.3v-5.76h10.26V6.63h5.8v14.16h9.87v5.76h-9.87v19.91h-5.76V26.54z"/>
	<path class="st0" d="M144.73,36.37c0.13-0.69,0.26-1.39,0.35-2.08h-4.29v-18.1c-1.13,0.61-2.38,1.08-3.68,1.34v-5.02
		c2.38-1.17,4.24-2.86,5.41-5.24h13.94v4.72h-4.42l1.3,2.94h-5.67l-1.3-2.94h-0.74c-1.21,1.65-2.81,3.07-4.68,4.11h14.67v-3.59
		c2.38-1.17,4.24-2.86,5.41-5.24h14.59v4.72h-5.15l1.3,2.94h-5.67l-1.3-2.94h-0.65c-1.21,1.65-2.81,3.07-4.67,4.11h12.9v18.18h-4.59
		v2.08h8.27v4.85h-8.27v4.81h-5.63v-4.81h-13.12c-0.61,1.6-1.43,3.2-2.47,4.81h-7.1c1.43-1.65,2.55-3.2,3.38-4.81h-5.76v-4.85
		H144.73z M166.76,21.34v-1.43h-20.35v1.43H166.76z M166.76,25.98v-1.43h-20.35v1.43H166.76z M166.76,30.61v-1.47h-20.35v1.47
		H166.76z M162.17,36.37v-2.08h-11.51c-0.04,0.69-0.13,1.38-0.26,2.08H162.17z"/>
	<path class="st0" d="M178.67,32.51c2.51-0.95,4.42-2.34,5.76-4.16h-5.54v-5.19h17.06v-2.04h5.71v2.04h6.93l-0.69-2.04h5.5
		l0.69,2.04h4.63v5.19h-5.54c1.34,1.82,3.25,3.2,5.76,4.16v5.84c-1-0.35-1.95-0.74-2.81-1.17v8.18H200.1V31.52h8.96
		c-0.74-1-1.34-2.04-1.91-3.16h-16.71c-0.56,1.12-1.17,2.16-1.91,3.16h8.96v13.85h-16.02v-8.18c-0.87,0.43-1.82,0.82-2.81,1.17
		V32.51z M181.05,7.53h16.36v12.94h-16.36V7.53z M191.92,15.8v-3.68h-5.37v3.68H191.92z M192.13,40.61v-4.42h-5.33v4.42H192.13z
		 M200.19,7.53h16.36v12.94h-16.36V7.53z M210.79,40.61v-4.42h-5.32v4.42H210.79z M211.05,15.8v-3.68h-5.37v3.68H211.05z"/>
</g>
<linearGradient id="SVGID_1_" gradientUnits="userSpaceOnUse" x1="223.9068" y1="27.3095" x2="296.5217" y2="27.3095">
	<stop  offset="0" style="stop-color:#1B3C96"/>
	<stop  offset="1" style="stop-color:#000000"/>
</linearGradient>
<rect x="223.91" y="6.65" class="st1" width="72.61" height="41.31"/>
<linearGradient id="SVGID_00000083778206085367049540000010814203115514521519_" gradientUnits="userSpaceOnUse" x1="222.4245" y1="27.2588" x2="298.6516" y2="27.2588">
	<stop  offset="0.0576" style="stop-color:#4E75B9"/>
	<stop  offset="0.9523" style="stop-color:#75B5E3"/>
</linearGradient>
<path style="fill:url(#SVGID_00000083778206085367049540000010814203115514521519_);" d="M265.45,19.41
	c0.01,0.01,0.02,0.03,0.02,0.06v5.37c0,0.03-0.01,0.05-0.02,0.07c-0.02,0.01-0.04,0.02-0.07,0.02c-1.7,0-3.08,0.23-4.13,0.69
	c-1.06,0.47-1.84,1.23-2.35,2.28c-0.51,1.06-0.76,2.5-0.76,4.32v11.27c0,0.03-0.01,0.05-0.02,0.07c-0.02,0.01-0.04,0.02-0.07,0.02
	h-5.55c-0.03,0-0.05-0.01-0.06-0.02c-0.02-0.02-0.03-0.04-0.03-0.07V19.97c0-0.03,0.01-0.06,0.03-0.07
	c0.01-0.02,0.03-0.02,0.06-0.02h5.55c0.03,0,0.05,0,0.07,0.02c0.01,0.01,0.02,0.04,0.02,0.07v2.07c0.14-0.14,0.29-0.25,0.44-0.37
	c1.97-1.53,4.24-2.29,6.8-2.29C265.41,19.38,265.43,19.39,265.45,19.41z M248.79,15.67c0.92,1.55,1.39,3.16,1.39,4.83
	c0,1.64-0.47,3.24-1.39,4.81c-0.92,1.57-2.21,2.85-3.84,3.85c-1.64,0.99-3.48,1.49-5.5,1.49h-5.1v12.84c0,0.03-0.01,0.05-0.03,0.07
	c-0.01,0.01-0.03,0.02-0.06,0.02h-5.82c-0.03,0-0.05-0.01-0.06-0.02c-0.02-0.02-0.03-0.04-0.03-0.07V10.53
	c0-0.03,0.01-0.05,0.03-0.07c0.01-0.01,0.03-0.02,0.06-0.02h11.01c2.02,0,3.86,0.49,5.5,1.45
	C246.58,12.86,247.87,14.12,248.79,15.67z M244.19,20.5c0-0.8-0.18-1.52-0.54-2.17c-0.36-0.64-0.9-1.14-1.61-1.52
	c-0.72-0.37-1.58-0.56-2.59-0.56h-5.1v8.59h5.1c1.01,0,1.87-0.19,2.59-0.58c0.71-0.39,1.25-0.91,1.61-1.57
	C244.01,22.04,244.19,21.31,244.19,20.5z M291.01,31.73c0,2.2-0.55,4.25-1.66,6.15c-1.1,1.89-2.6,3.4-4.49,4.51
	c-1.89,1.12-3.96,1.68-6.19,1.68c-2.24,0-4.31-0.56-6.2-1.68c-1.89-1.11-3.39-2.62-4.49-4.51c-1.11-1.9-1.66-3.95-1.66-6.15
	c0-2.24,0.56-4.3,1.68-6.2c1.12-1.89,2.62-3.39,4.52-4.49c1.89-1.1,3.94-1.66,6.15-1.66c2.23,0,4.3,0.56,6.19,1.66
	c1.89,1.1,3.39,2.6,4.49,4.49C290.46,27.43,291.01,29.49,291.01,31.73z M285.15,31.73c0-1.4-0.26-2.63-0.78-3.69
	c-0.53-1.06-1.28-1.89-2.26-2.48c-0.99-0.6-2.13-0.9-3.44-0.9c-1.32,0-2.46,0.3-3.45,0.9c-0.98,0.59-1.74,1.42-2.26,2.48
	c-0.52,1.06-0.78,2.29-0.78,3.69c0,1.37,0.27,2.59,0.81,3.67c0.53,1.07,1.28,1.9,2.25,2.5c0.97,0.6,2.11,0.89,3.43,0.89
	c1.31,0,2.45-0.29,3.44-0.89c0.98-0.6,1.73-1.43,2.26-2.5C284.89,34.32,285.15,33.1,285.15,31.73z"/>
<g>
	<rect x="-23.51" y="-186.99" class="st3" width="184.7" height="18.11"/>
</g>
<g>
</g>
<g>
</g>
<g>
</g>
<g>
</g>
<g>
</g>
<g>
</g>
</svg>
