<?xml version="1.0" encoding="UTF-8" standalone="no"?>
<!DOCTYPE svg PUBLIC "-//W3C//DTD SVG 1.1//EN" "http://www.w3.org/Graphics/SVG/1.1/DTD/svg11.dtd">
<svg width="100%" height="100%" viewBox="0 0 500 500" version="1.1" xmlns="http://www.w3.org/2000/svg" xmlns:xlink="http://www.w3.org/1999/xlink" xml:space="preserve" xmlns:serif="http://www.serif.com/" style="fill-rule:evenodd;clip-rule:evenodd;stroke-linecap:round;stroke-miterlimit:10;">
    <g id="uner">
        <g id="outFrame">
            <path id="pie11" d="M186.11,11.56L250,250L75.45,75.45C106.09,44.81 144.255,22.775 186.11,11.56Z" style="fill:#eef4fa;stroke:#6e777b;stroke-width:0.5px;"/>
            <path id="pie10" d="M75.45,75.45L250,250L11.56,186.11C22.775,144.255 44.81,106.09 75.45,75.45Z" style="fill:#eef4fa;stroke:#6e777b;stroke-width:0.5px;"/>
            <path id="pie9" d="M11.56,186.11L250,250L11.56,313.89C5.976,293.052 3.148,271.573 3.148,250C3.148,228.427 5.976,206.948 11.56,186.11Z" style="fill:#eef4fa;stroke:#6e777b;stroke-width:0.5px;"/>
            <path id="pie8" d="M11.56,313.89L250,250L75.45,424.55C44.81,393.91 22.775,355.745 11.56,313.89Z" style="fill:#eef4fa;stroke:#6e777b;stroke-width:0.5px;"/>
            <path id="pie7" d="M75.45,424.55L250,250L186.11,488.44C144.255,477.225 106.09,455.19 75.45,424.55Z" style="fill:#eef4fa;stroke:#6e777b;stroke-width:0.5px;"/>
            <path id="pie6" d="M186.11,488.44L250,250L313.89,488.44C293.052,494.024 271.573,496.852 250,496.852C228.427,496.852 206.948,494.024 186.11,488.44Z" style="fill:#eef4fa;stroke:#6e777b;stroke-width:0.5px;"/>
            <path id="pie5" d="M313.89,488.44L250,250L424.55,424.55C393.91,455.19 355.745,477.225 313.89,488.44Z" style="fill:#eef4fa;stroke:#6e777b;stroke-width:0.5px;"/>
            <path id="pie4" d="M424.55,424.55L250,250L488.44,313.89C477.225,355.745 455.19,393.91 424.55,424.55Z" style="fill:#eef4fa;stroke:#6e777b;stroke-width:0.5px;"/>
            <path id="pie3" d="M488.44,313.89L250,250L488.44,186.11C494.024,206.948 496.852,228.427 496.852,250C496.852,271.573 494.024,293.052 488.44,313.89Z" style="fill:#eef4fa;stroke:#6e777b;stroke-width:0.5px;"/>
            <path id="pie2" d="M488.44,186.11L250,250L424.55,75.45C455.19,106.09 477.225,144.255 488.44,186.11Z" style="fill:#eef4fa;stroke:#6e777b;stroke-width:0.5px;"/>
            <path id="pie1" d="M424.55,75.45L250,250L313.89,11.56C355.745,22.775 393.91,44.81 424.55,75.45Z" style="fill:#eef4fa;stroke:#6e777b;stroke-width:0.5px;"/>
            <path id="pie0" d="M313.89,11.56L250,250L186.11,11.56C206.948,5.976 228.427,3.148 250,3.148C271.573,3.148 293.052,5.976 313.89,11.56Z" style="fill:#eef4fa;stroke:#6e777b;stroke-width:0.5px;"/>
        </g>
        <g id="middleFrame">
            <path id="pie111" serif:id="pie11" d="M200.345,64.686L250,250L114.34,114.34C138.154,90.527 167.816,73.402 200.345,64.686Z" style="fill:#fafafa;stroke:#6e777b;stroke-width:0.5px;"/>
            <path id="pie101" serif:id="pie10" d="M114.34,114.34L250,250L64.686,200.345C73.402,167.816 90.527,138.154 114.34,114.34Z" style="fill:#fafafa;stroke:#6e777b;stroke-width:0.5px;"/>
            <path id="pie91" serif:id="pie9" d="M64.686,200.345L250,250L64.686,299.655C60.346,283.46 58.148,266.766 58.148,250C58.148,233.234 60.346,216.54 64.686,200.345Z" style="fill:#fafafa;stroke:#6e777b;stroke-width:0.5px;"/>
            <path id="pie81" serif:id="pie8" d="M64.686,299.655L250,250L114.34,385.66C90.527,361.846 73.402,332.184 64.686,299.655Z" style="fill:#fafafa;stroke:#6e777b;stroke-width:0.5px;"/>
            <path id="pie71" serif:id="pie7" d="M114.34,385.66L250,250L200.345,435.314C167.816,426.598 138.154,409.473 114.34,385.66Z" style="fill:#fafafa;stroke:#6e777b;stroke-width:0.5px;"/>
            <path id="pie61" serif:id="pie6" d="M200.345,435.314L250,250L299.655,435.314C283.46,439.654 266.766,441.852 250,441.852C233.234,441.852 216.54,439.654 200.345,435.314Z" style="fill:#fafafa;stroke:#6e777b;stroke-width:0.5px;"/>
            <path id="pie51" serif:id="pie5" d="M299.655,435.314L250,250L385.659,385.66C361.846,409.473 332.184,426.598 299.655,435.314Z" style="fill:#fafafa;stroke:#6e777b;stroke-width:0.5px;"/>
            <path id="pie41" serif:id="pie4" d="M385.659,385.66L250,250L435.314,299.655C426.598,332.184 409.473,361.846 385.659,385.66Z" style="fill:#fafafa;stroke:#6e777b;stroke-width:0.5px;"/>
            <path id="pie31" serif:id="pie3" d="M435.314,299.655L250,250L435.314,200.345C439.654,216.54 441.852,233.234 441.852,250C441.852,266.766 439.654,283.46 435.314,299.655Z" style="fill:#fafafa;stroke:#6e777b;stroke-width:0.5px;"/>
            <path id="pie21" serif:id="pie2" d="M435.314,200.345L250,250L385.66,114.34C409.473,138.154 426.598,167.816 435.314,200.345Z" style="fill:#fafafa;stroke:#6e777b;stroke-width:0.5px;"/>
            <path id="pie12" serif:id="pie1" d="M385.66,114.34L250,250L299.655,64.686C332.184,73.402 361.846,90.527 385.66,114.34Z" style="fill:#fafafa;stroke:#6e777b;stroke-width:0.5px;"/>
            <path id="pie01" serif:id="pie0" d="M299.655,64.686L250,250L200.345,64.686C216.54,60.346 233.234,58.148 250,58.148C266.766,58.148 283.46,60.346 299.655,64.686Z" style="fill:#fafafa;stroke:#6e777b;stroke-width:0.5px;"/>
        </g>
        <g id="innerFrame">
            <path id="pie112" serif:id="pie11" d="M213.367,113.285L250,250L149.917,149.917C167.486,132.349 189.369,119.715 213.367,113.285Z" style="fill:#eceff1;stroke:#6e777b;stroke-width:0.5px;"/>
            <path id="pie102" serif:id="pie10" d="M149.917,149.917L250,250L113.285,213.367C119.715,189.369 132.349,167.486 149.917,149.917Z" style="fill:#eceff1;stroke:#6e777b;stroke-width:0.5px;"/>
            <path id="pie92" serif:id="pie9" d="M113.285,213.367L250,250L113.285,286.633C110.083,274.685 108.462,262.369 108.462,250C108.462,237.631 110.083,225.315 113.285,213.367Z" style="fill:#eceff1;stroke:#6e777b;stroke-width:0.5px;"/>
            <path id="pie82" serif:id="pie8" d="M113.285,286.633L250,250L149.917,350.083C132.349,332.514 119.715,310.631 113.285,286.633Z" style="fill:#eceff1;stroke:#6e777b;stroke-width:0.5px;"/>
            <path id="pie72" serif:id="pie7" d="M149.917,350.083L250,250L213.367,386.715C189.369,380.285 167.486,367.651 149.917,350.083Z" style="fill:#eceff1;stroke:#6e777b;stroke-width:0.5px;"/>
            <path id="pie62" serif:id="pie6" d="M213.367,386.715L250,250L286.633,386.715C274.685,389.917 262.369,391.538 250,391.538C237.631,391.538 225.315,389.917 213.367,386.715Z" style="fill:#eceff1;stroke:#6e777b;stroke-width:0.5px;"/>
            <path id="pie52" serif:id="pie5" d="M286.633,386.715L250,250L350.083,350.083C332.514,367.651 310.631,380.285 286.633,386.715Z" style="fill:#eceff1;stroke:#6e777b;stroke-width:0.5px;"/>
            <path id="pie42" serif:id="pie4" d="M350.083,350.083L250,250L386.715,286.633C380.285,310.631 367.651,332.514 350.083,350.083Z" style="fill:#eceff1;stroke:#6e777b;stroke-width:0.5px;"/>
            <path id="pie32" serif:id="pie3" d="M386.715,286.633L250,250L386.715,213.367C389.917,225.315 391.538,237.631 391.538,250C391.538,262.369 389.917,274.685 386.715,286.633Z" style="fill:#eceff1;stroke:#6e777b;stroke-width:0.5px;"/>
            <path id="pie22" serif:id="pie2" d="M386.715,213.367L250,250L350.083,149.917C367.651,167.486 380.285,189.369 386.715,213.367Z" style="fill:#eceff1;stroke:#6e777b;stroke-width:0.5px;"/>
            <path id="pie13" serif:id="pie1" d="M350.083,149.917L250,250L286.633,113.285C310.631,119.715 332.514,132.349 350.083,149.917Z" style="fill:#eceff1;stroke:#6e777b;stroke-width:0.5px;"/>
            <path id="pie02" serif:id="pie0" d="M286.633,113.285L250,250L213.367,113.285C225.315,110.083 237.631,108.462 250,108.462C262.369,108.462 274.685,110.083 286.633,113.285Z" style="fill:#eceff1;stroke:#6e777b;stroke-width:0.5px;"/>
        </g>
        <circle cx="250" cy="250" r="94.426" style="fill:#fff;stroke:#263238;stroke-width:2.92px;"/>
        <circle id="outCircle" cx="250" cy="250" r="246.852" style="fill:none;stroke:#002437;stroke-width:1.67px;"/>
        <circle id="middleCircle" cx="250" cy="250" r="140.852" style="fill:none;stroke:#002437;stroke-width:1.67px;"/>
    </g>
    <g id="alters">
        <g id="guohub0">
            <circle id="bgc" cx="250" cy="132.148" r="21" style="fill:none;"/>
            <g id="natural">
                <path d="M246.339,118.072L246.339,140.207L252.372,138.667L252.372,147.488L253.661,147.488L253.661,125.145L247.712,126.685L247.712,118.072L246.339,118.072ZM247.628,130.679L252.455,129.472L252.455,134.798L247.628,135.962L247.628,130.679Z" style="fill:#241813;fill-rule:nonzero;"/>
            </g>
        </g>
        <g id="guohub1">
            <circle id="bgc1" serif:id="bgc" cx="309" cy="148.148" r="21" style="fill:none;"/>
            <g id="sharp">
                <path d="M310.106,135.286L310.106,141.921L307.826,142.466L307.826,136.068L306.771,136.068L306.771,142.738L305.172,143.18L305.172,146.583L306.771,146.175L306.771,151.041L305.172,151.517L305.172,155.022L306.771,154.613L306.771,161.011L307.826,161.011L307.826,154.375L310.106,153.763L310.106,159.888L311.161,159.888L311.161,153.491L312.828,153.082L312.828,149.578L311.161,149.986L311.161,145.12L312.828,144.644L312.828,141.275L311.161,141.649L311.161,135.286L310.106,135.286ZM307.826,145.902L310.106,145.324L310.106,150.224L307.826,150.769L307.826,145.902Z" style="fill:#241813;fill-rule:nonzero;"/>
            </g>
        </g>
        <g id="guohub2">
            <circle id="bgc2" serif:id="bgc" cx="353" cy="192.148" r="21" style="fill:none;"/>
            <g id="sharp1" serif:id="sharp">
                <path d="M346.186,178.642L346.186,185.702L343.761,186.281L343.761,179.475L342.638,179.475L342.638,186.57L340.937,187.041L340.937,190.661L342.638,190.227L342.638,195.403L340.937,195.91L340.937,199.64L342.638,199.205L342.638,206.011L343.761,206.011L343.761,198.951L346.186,198.3L346.186,204.816L347.309,204.816L347.309,198.01L349.083,197.576L349.083,193.847L347.309,194.281L347.309,189.104L349.083,188.598L349.083,185.014L347.309,185.412L347.309,178.642L346.186,178.642ZM343.761,189.937L346.186,189.322L346.186,194.534L343.761,195.114L343.761,189.937Z" style="fill:#241813;fill-rule:nonzero;"/>
            </g>
            <path d="M355.137,200.126L364.966,200.126L364.966,202.838L351.083,202.838L351.083,200.534L358.345,192.571C359.531,191.269 360.358,190.228 360.824,189.451C361.291,188.673 361.524,187.856 361.524,187.001C361.524,185.892 361.184,185.003 360.503,184.332C359.823,183.661 358.928,183.326 357.82,183.326C356.867,183.326 356.012,183.598 355.253,184.142C354.495,184.687 353.863,185.484 353.358,186.534L351.083,184.988C351.627,183.705 352.492,182.66 353.678,181.853C354.865,181.046 356.265,180.642 357.878,180.642C359.881,180.642 361.485,181.196 362.691,182.305C363.897,183.413 364.499,184.92 364.499,186.826C364.499,188.012 364.222,189.125 363.668,190.165C363.114,191.205 362.185,192.445 360.883,193.884L355.137,200.126Z" style="fill:#241813;fill-rule:nonzero;"/>
        </g>
        <g id="guohub3">
            <circle id="bgc3" serif:id="bgc" cx="367.426" cy="250" r="21" style="fill:none;"/>
            <g id="sharp2" serif:id="sharp">
                <path d="M360.612,236.494L360.612,243.553L358.187,244.132L358.187,237.326L357.064,237.326L357.064,244.422L355.363,244.892L355.363,248.513L357.064,248.078L357.064,253.255L355.363,253.762L355.363,257.491L357.064,257.056L357.064,263.862L358.187,263.862L358.187,256.803L360.612,256.151L360.612,262.667L361.734,262.667L361.734,255.862L363.508,255.427L363.508,251.699L361.734,252.133L361.734,246.956L363.508,246.449L363.508,242.865L361.734,243.263L361.734,236.494L360.612,236.494ZM358.187,247.789L360.612,247.173L360.612,252.386L358.187,252.966L358.187,247.789Z" style="fill:#241813;fill-rule:nonzero;"/>
            </g>
            <path d="M372.523,247.769C372.912,247.73 373.204,247.71 373.398,247.71C374.487,247.71 375.513,247.958 376.475,248.454C377.438,248.95 378.22,249.689 378.823,250.671C379.426,251.653 379.727,252.834 379.727,254.215C379.727,255.595 379.421,256.806 378.808,257.846C378.196,258.886 377.34,259.688 376.242,260.252C375.143,260.816 373.874,261.098 372.435,261.098C370.802,261.098 369.344,260.714 368.06,259.946C366.777,259.178 365.805,258.104 365.144,256.723L367.448,255.119C368.031,256.208 368.736,257.029 369.563,257.583C370.389,258.138 371.376,258.415 372.523,258.415C373.767,258.415 374.783,258.021 375.571,257.233C376.358,256.446 376.752,255.44 376.752,254.215C376.752,252.931 376.358,251.91 375.571,251.152C374.783,250.394 373.719,250.015 372.377,250.015C371.56,250.015 370.763,250.238 369.985,250.685L368.381,248.498L374.652,241.615L365.844,241.615L365.844,238.902L378.502,238.902L378.502,241.323L372.465,247.652L372.523,247.769Z" style="fill:#241813;fill-rule:nonzero;"/>
        </g>
        <g id="guohub4">
            <circle id="bgc4" serif:id="bgc" cx="352.435" cy="308" r="21" style="fill:none;"/>
            <g id="sharp3" serif:id="sharp">
                <path d="M345.622,294.494L345.622,301.553L343.197,302.132L343.197,295.326L342.074,295.326L342.074,302.422L340.373,302.892L340.373,306.513L342.074,306.078L342.074,311.255L340.373,311.762L340.373,315.491L342.074,315.056L342.074,321.862L343.197,321.862L343.197,314.803L345.622,314.151L345.622,320.667L346.744,320.667L346.744,313.862L348.518,313.427L348.518,309.699L346.744,310.133L346.744,304.956L348.518,304.449L348.518,300.865L346.744,301.263L346.744,294.494L345.622,294.494ZM343.197,305.789L345.622,305.173L345.622,310.386L343.197,310.966L343.197,305.789Z" style="fill:#241813;fill-rule:nonzero;"/>
            </g>
            <path d="M362.549,311.31L365.291,311.31L365.291,313.965L362.549,313.965L362.549,318.69L359.604,318.69L359.604,313.965L349.512,313.965L349.512,311.865L358.379,296.902L362.549,296.902L362.549,311.31ZM359.604,300.023L352.983,311.31L359.604,311.31L359.604,300.023Z" style="fill:#241813;fill-rule:nonzero;"/>
        </g>
        <g id="guohub5-7">
            <circle id="bgc5" serif:id="bgc" cx="310.435" cy="351.083" r="21" style="fill:none;"/>
            <g id="sharp4" serif:id="sharp">
                <path d="M300.333,335.299L300.333,339.37L298.935,339.704L298.935,335.779L298.287,335.779L298.287,339.871L297.306,340.143L297.306,342.231L298.287,341.98L298.287,344.965L297.306,345.258L297.306,347.408L298.287,347.158L298.287,351.083L298.935,351.083L298.935,347.012L300.333,346.636L300.333,350.394L300.98,350.394L300.98,346.469L302.004,346.218L302.004,344.068L300.98,344.318L300.98,341.333L302.004,341.041L302.004,338.974L300.98,339.203L300.98,335.299L300.333,335.299ZM298.935,341.813L300.333,341.458L300.333,344.464L298.935,344.799L298.935,341.813Z" style="fill:#241813;fill-rule:nonzero;"/>
            </g>
            <g id="flat">
                <path d="M311.133,368.021C311.574,367.546 311.947,367.109 312.252,366.711C312.557,366.312 312.795,365.96 312.965,365.655C313.151,365.332 313.291,365.036 313.384,364.764C313.477,364.493 313.524,364.239 313.524,364.001C313.524,363.526 313.414,363.183 313.193,362.971C312.973,362.759 312.736,362.653 312.481,362.653C312.21,362.653 311.943,362.751 311.68,362.946C311.417,363.141 311.235,363.408 311.133,363.747L311.133,368.021ZM310.345,352.682L311.133,352.682L311.133,362.602C311.76,361.975 312.473,361.661 313.27,361.661C313.812,361.661 314.304,361.844 314.745,362.208C315.186,362.573 315.407,363.103 315.407,363.798C315.407,364.341 315.246,364.841 314.923,365.299C314.601,365.757 314.169,366.214 313.626,366.672L311.871,368.173C311.548,368.444 311.26,368.712 311.006,368.975C310.751,369.237 310.531,369.487 310.345,369.725L310.345,352.682Z" style="fill:#241813;fill-rule:nonzero;"/>
            </g>
            <path d="M308.316,341.216C309.274,341.216 310.122,341.417 310.858,341.82C311.594,342.223 312.163,342.792 312.566,343.529C312.969,344.265 313.17,345.112 313.17,346.07C313.17,347.084 312.955,347.973 312.524,348.737C312.094,349.501 311.486,350.095 310.701,350.518C309.917,350.942 309.004,351.154 307.962,351.154C306.698,351.154 305.625,350.869 304.743,350.299C303.861,349.73 303.212,348.987 302.795,348.07L304.441,346.924C304.858,347.674 305.344,348.247 305.899,348.643C306.455,349.039 307.142,349.237 307.962,349.237C308.879,349.237 309.622,348.949 310.191,348.372C310.76,347.796 311.045,347.056 311.045,346.154C311.045,345.251 310.754,344.518 310.17,343.956C309.587,343.393 308.823,343.112 307.879,343.112C307.323,343.112 306.809,343.233 306.337,343.476C305.865,343.72 305.448,344.07 305.087,344.529L303.337,343.716L303.983,335.299L312.274,335.299L312.274,337.216L305.899,337.216L305.483,342.091C305.844,341.799 306.271,341.581 306.764,341.435C307.257,341.289 307.774,341.216 308.316,341.216Z" style="fill:#241813;fill-rule:nonzero;"/>
            <path d="M319.222,368.602L316.93,368.602L322.91,354.977L315.701,354.977L315.701,353.04L325.347,353.04L325.347,354.519L319.222,368.602Z" style="fill:#241813;fill-rule:nonzero;"/>
        </g>
        <g id="guohub6-6">
            <circle id="bgc6" serif:id="bgc" cx="250" cy="367.725" r="21" style="fill:none;"/>
            <g id="sharp5" serif:id="sharp">
                <path d="M239.898,351.942L239.898,356.013L238.499,356.347L238.499,352.421L237.852,352.421L237.852,356.513L236.871,356.785L236.871,358.873L237.852,358.622L237.852,361.608L236.871,361.9L236.871,364.05L237.852,363.8L237.852,367.725L238.499,367.725L238.499,363.654L239.898,363.278L239.898,367.036L240.545,367.036L240.545,363.111L241.568,362.86L241.568,360.71L240.545,360.96L240.545,357.975L241.568,357.683L241.568,355.616L240.545,355.845L240.545,351.942L239.898,351.942ZM238.499,358.455L239.898,358.1L239.898,361.106L238.499,361.441L238.499,358.455Z" style="fill:#241813;fill-rule:nonzero;"/>
            </g>
            <g id="flat1" serif:id="flat">
                <path d="M245.697,384.663C246.139,384.188 246.512,383.751 246.817,383.353C247.122,382.954 247.359,382.602 247.529,382.297C247.716,381.974 247.856,381.678 247.949,381.407C248.042,381.135 248.089,380.881 248.089,380.643C248.089,380.169 247.978,379.825 247.758,379.613C247.538,379.401 247.3,379.295 247.046,379.295C246.775,379.295 246.507,379.393 246.244,379.588C245.982,379.783 245.799,380.05 245.697,380.389L245.697,384.663ZM244.909,369.324L245.697,369.324L245.697,379.244C246.325,378.617 247.037,378.303 247.834,378.303C248.377,378.303 248.869,378.486 249.31,378.85C249.751,379.215 249.971,379.745 249.971,380.44C249.971,380.983 249.81,381.483 249.488,381.941C249.165,382.399 248.733,382.856 248.191,383.314L246.435,384.815C246.113,385.087 245.825,385.354 245.57,385.617C245.316,385.879 245.095,386.129 244.909,386.367L244.909,369.324Z" style="fill:#241813;fill-rule:nonzero;"/>
            </g>
            <path d="M249.162,357.65C250.078,357.65 250.901,357.862 251.631,358.285C252.36,358.709 252.933,359.299 253.349,360.056C253.766,360.813 253.974,361.671 253.974,362.629C253.974,363.643 253.745,364.539 253.287,365.317C252.828,366.094 252.193,366.702 251.381,367.139C250.568,367.577 249.641,367.796 248.599,367.796C247.585,367.796 246.676,367.577 245.87,367.139C245.065,366.702 244.436,366.094 243.985,365.317C243.533,364.539 243.308,363.65 243.308,362.65C243.308,361.803 243.436,361.032 243.693,360.337C243.95,359.643 244.398,358.761 245.037,357.692L248.412,351.942L250.849,351.942L247.162,358.004L247.245,358.067C247.828,357.789 248.467,357.65 249.162,357.65ZM248.662,365.879C249.592,365.879 250.356,365.58 250.953,364.983C251.551,364.386 251.849,363.608 251.849,362.65C251.849,361.733 251.558,360.987 250.974,360.41C250.391,359.834 249.648,359.546 248.745,359.546C247.773,359.546 246.978,359.834 246.36,360.41C245.742,360.987 245.433,361.733 245.433,362.65C245.433,363.608 245.735,364.386 246.339,364.983C246.943,365.58 247.717,365.879 248.662,365.879Z" style="fill:#241813;fill-rule:nonzero;"/>
            <path d="M257.755,375.39C258.672,375.39 259.495,375.602 260.224,376.026C260.953,376.449 261.526,377.039 261.943,377.796C262.36,378.553 262.568,379.411 262.568,380.369C262.568,381.383 262.339,382.279 261.88,383.057C261.422,383.835 260.787,384.442 259.974,384.88C259.162,385.317 258.235,385.536 257.193,385.536C256.179,385.536 255.269,385.317 254.464,384.88C253.658,384.442 253.03,383.835 252.578,383.057C252.127,382.279 251.901,381.39 251.901,380.39C251.901,379.543 252.03,378.772 252.287,378.078C252.544,377.383 252.991,376.501 253.63,375.432L257.005,369.682L259.443,369.682L255.755,375.744L255.839,375.807C256.422,375.529 257.061,375.39 257.755,375.39ZM257.255,383.619C258.186,383.619 258.95,383.321 259.547,382.723C260.144,382.126 260.443,381.348 260.443,380.39C260.443,379.473 260.151,378.727 259.568,378.151C258.985,377.574 258.241,377.286 257.339,377.286C256.366,377.286 255.571,377.574 254.953,378.151C254.335,378.727 254.026,379.473 254.026,380.39C254.026,381.348 254.328,382.126 254.932,382.723C255.537,383.321 256.311,383.619 257.255,383.619Z" style="fill:#241813;fill-rule:nonzero;"/>
        </g>
        <g id="guohub7-5">
            <circle id="bgc7" serif:id="bgc" cx="192.367" cy="352.609" r="21" style="fill:none;"/>
            <g id="sharp6" serif:id="sharp">
                <path d="M182.265,336.826L182.265,340.897L180.866,341.231L180.866,337.306L180.219,337.306L180.219,341.397L179.238,341.669L179.238,343.757L180.219,343.506L180.219,346.492L179.238,346.784L179.238,348.934L180.219,348.684L180.219,352.609L180.866,352.609L180.866,348.538L182.265,348.162L182.265,351.92L182.912,351.92L182.912,347.995L183.935,347.744L183.935,345.594L182.912,345.844L182.912,342.859L183.935,342.567L183.935,340.5L182.912,340.73L182.912,336.826L182.265,336.826ZM180.866,343.339L182.265,342.984L182.265,345.99L180.866,346.325L180.866,343.339Z" style="fill:#241813;fill-rule:nonzero;"/>
            </g>
            <g id="flat2" serif:id="flat">
                <path d="M189.065,369.547C189.506,369.072 189.879,368.635 190.184,368.237C190.489,367.838 190.727,367.486 190.896,367.181C191.083,366.859 191.223,366.562 191.316,366.291C191.409,366.019 191.456,365.765 191.456,365.528C191.456,365.053 191.346,364.709 191.125,364.497C190.905,364.285 190.667,364.179 190.413,364.179C190.142,364.179 189.875,364.277 189.612,364.472C189.349,364.667 189.167,364.934 189.065,365.273L189.065,369.547ZM188.276,354.208L189.065,354.208L189.065,364.129C189.692,363.501 190.405,363.188 191.202,363.188C191.744,363.188 192.236,363.37 192.677,363.734C193.118,364.099 193.338,364.629 193.338,365.324C193.338,365.867 193.177,366.367 192.855,366.825C192.533,367.283 192.1,367.74 191.558,368.198L189.802,369.699C189.48,369.971 189.192,370.238 188.937,370.501C188.683,370.764 188.463,371.013 188.276,371.251L188.276,354.208Z" style="fill:#241813;fill-rule:nonzero;"/>
            </g>
            <path d="M188.56,352.388L186.269,352.388L192.248,338.763L185.039,338.763L185.039,336.826L194.685,336.826L194.685,338.305L188.56,352.388Z" style="fill:#241813;fill-rule:nonzero;"/>
            <path d="M199.841,360.482C200.8,360.482 201.647,360.684 202.383,361.087C203.119,361.489 203.689,362.059 204.091,362.795C204.494,363.531 204.695,364.378 204.695,365.337C204.695,366.351 204.48,367.239 204.05,368.003C203.619,368.767 203.011,369.361 202.227,369.785C201.442,370.208 200.529,370.42 199.487,370.42C198.223,370.42 197.15,370.135 196.268,369.566C195.386,368.996 194.737,368.253 194.32,367.337L195.966,366.191C196.383,366.941 196.869,367.514 197.425,367.91C197.98,368.305 198.668,368.503 199.487,368.503C200.404,368.503 201.147,368.215 201.716,367.639C202.286,367.062 202.57,366.323 202.57,365.42C202.57,364.517 202.279,363.785 201.695,363.222C201.112,362.66 200.348,362.378 199.404,362.378C198.848,362.378 198.334,362.5 197.862,362.743C197.39,362.986 196.973,363.337 196.612,363.795L194.862,362.982L195.508,354.566L203.8,354.566L203.8,356.482L197.425,356.482L197.008,361.357C197.369,361.066 197.796,360.847 198.289,360.701C198.782,360.555 199.3,360.482 199.841,360.482Z" style="fill:#241813;fill-rule:nonzero;"/>
        </g>
        <g id="guohub-4">
            <circle id="bgc8" serif:id="bgc" cx="147.917" cy="309.609" r="21" style="fill:none;"/>
            <g id="sharp7" serif:id="sharp">
            </g>
            <g id="flat3" serif:id="flat">
                <path d="M138.08,321.43C138.81,320.644 139.428,319.921 139.933,319.262C140.438,318.602 140.831,318.019 141.112,317.514C141.42,316.981 141.652,316.49 141.806,316.041C141.961,315.592 142.038,315.171 142.038,314.778C142.038,313.991 141.855,313.423 141.49,313.072C141.126,312.722 140.733,312.546 140.312,312.546C139.863,312.546 139.42,312.708 138.985,313.03C138.55,313.353 138.249,313.795 138.08,314.357L138.08,321.43ZM136.775,296.041L138.08,296.041L138.08,312.462C139.119,311.423 140.298,310.904 141.617,310.904C142.515,310.904 143.329,311.206 144.059,311.809C144.789,312.413 145.154,313.29 145.154,314.44C145.154,315.339 144.887,316.167 144.354,316.925C143.82,317.683 143.104,318.44 142.207,319.198L139.301,321.683C138.767,322.132 138.291,322.574 137.869,323.009C137.448,323.444 137.083,323.858 136.775,324.251L136.775,296.041Z" style="fill:#241813;fill-rule:nonzero;"/>
            </g>
            <path d="M159.53,313.31L162.271,313.31L162.271,315.965L159.53,315.965L159.53,320.69L156.584,320.69L156.584,315.965L146.492,315.965L146.492,313.865L155.359,298.902L159.53,298.902L159.53,313.31ZM156.584,302.023L149.963,313.31L156.584,313.31L156.584,302.023Z" style="fill:#241813;fill-rule:nonzero;"/>
        </g>
        <g id="guohub-3">
            <circle id="bgc9" serif:id="bgc" cx="132.382" cy="250" r="21" style="fill:none;"/>
            <g id="sharp8" serif:id="sharp">
            </g>
            <g id="flat4" serif:id="flat">
                <path d="M122.544,261.821C123.275,261.035 123.892,260.312 124.397,259.653C124.902,258.993 125.295,258.41 125.576,257.905C125.885,257.372 126.117,256.881 126.27,256.432C126.425,255.983 126.502,255.562 126.502,255.169C126.502,254.383 126.32,253.814 125.955,253.463C125.59,253.113 125.197,252.937 124.776,252.937C124.327,252.937 123.885,253.099 123.45,253.421C123.015,253.744 122.713,254.186 122.544,254.748L122.544,261.821ZM121.239,236.432L122.544,236.432L122.544,252.853C123.583,251.814 124.762,251.296 126.081,251.296C126.979,251.296 127.793,251.597 128.524,252.2C129.253,252.804 129.618,253.681 129.618,254.832C129.618,255.73 129.352,256.558 128.818,257.316C128.284,258.074 127.569,258.831 126.671,259.59L123.766,262.074C123.232,262.523 122.755,262.965 122.334,263.4C121.913,263.835 121.548,264.249 121.239,264.642L121.239,236.432Z" style="fill:#241813;fill-rule:nonzero;"/>
            </g>
            <path d="M138.977,248.16C139.366,248.121 139.658,248.102 139.852,248.102C140.941,248.102 141.967,248.35 142.929,248.845C143.892,249.341 144.675,250.08 145.277,251.062C145.88,252.044 146.182,253.225 146.182,254.606C146.182,255.986 145.875,257.197 145.263,258.237C144.65,259.277 143.795,260.079 142.696,260.643C141.598,261.207 140.329,261.489 138.89,261.489C137.257,261.489 135.798,261.105 134.515,260.337C133.232,259.569 132.259,258.495 131.598,257.114L133.902,255.51C134.486,256.599 135.191,257.42 136.017,257.975C136.843,258.529 137.83,258.806 138.977,258.806C140.222,258.806 141.238,258.412 142.025,257.625C142.813,256.837 143.207,255.831 143.207,254.606C143.207,253.322 142.813,252.302 142.025,251.543C141.238,250.785 140.173,250.406 138.832,250.406C138.015,250.406 137.218,250.629 136.44,251.077L134.836,248.889L141.107,242.006L132.298,242.006L132.298,239.293L144.957,239.293L144.957,241.714L138.919,248.043L138.977,248.16Z" style="fill:#241813;fill-rule:nonzero;"/>
        </g>
        <g id="guohub-2">
            <circle id="bgc10" serif:id="bgc" cx="147.492" cy="191.367" r="21" style="fill:none;"/>
            <g id="sharp9" serif:id="sharp">
            </g>
            <g id="flat5" serif:id="flat">
                <path d="M137.655,203.189C138.385,202.403 139.003,201.68 139.508,201.02C140.012,200.361 140.406,199.778 140.687,199.273C140.995,198.739 141.227,198.248 141.381,197.799C141.535,197.35 141.613,196.929 141.613,196.536C141.613,195.75 141.43,195.182 141.065,194.83C140.701,194.48 140.308,194.304 139.887,194.304C139.438,194.304 138.995,194.466 138.56,194.788C138.125,195.112 137.823,195.553 137.655,196.115L137.655,203.189ZM136.35,177.8L137.655,177.8L137.655,194.22C138.693,193.182 139.873,192.663 141.192,192.663C142.09,192.663 142.904,192.964 143.634,193.567C144.363,194.171 144.729,195.048 144.729,196.199C144.729,197.098 144.462,197.926 143.928,198.683C143.395,199.441 142.679,200.199 141.781,200.957L138.876,203.441C138.342,203.89 137.865,204.333 137.444,204.768C137.023,205.203 136.658,205.616 136.35,206.009L136.35,177.8Z" style="fill:#241813;fill-rule:nonzero;"/>
            </g>
            <path d="M151.127,199.736L160.957,199.736L160.957,202.448L147.073,202.448L147.073,200.144L154.336,192.181C155.522,190.879 156.348,189.838 156.815,189.061C157.282,188.283 157.515,187.466 157.515,186.611C157.515,185.502 157.175,184.613 156.494,183.942C155.813,183.271 154.919,182.936 153.811,182.936C152.858,182.936 152.002,183.208 151.244,183.752C150.486,184.297 149.854,185.094 149.348,186.144L147.073,184.598C147.618,183.315 148.483,182.27 149.669,181.463C150.855,180.656 152.255,180.252 153.869,180.252C155.872,180.252 157.476,180.806 158.682,181.915C159.887,183.023 160.49,184.53 160.49,186.436C160.49,187.622 160.213,188.735 159.659,189.775C159.104,190.815 158.176,192.055 156.873,193.494L151.127,199.736Z" style="fill:#241813;fill-rule:nonzero;"/>
        </g>
        <g id="guohub-1">
            <circle id="bgc11" serif:id="bgc" cx="191.492" cy="147.367" r="21" style="fill:none;"/>
            <g id="sharp10" serif:id="sharp">
            </g>
            <g id="flat6" serif:id="flat">
                <path d="M188.097,160.651C188.956,159.726 189.683,158.875 190.278,158.099C190.872,157.322 191.335,156.636 191.666,156.041C192.029,155.413 192.302,154.835 192.483,154.307C192.665,153.778 192.756,153.282 192.756,152.82C192.756,151.894 192.541,151.225 192.111,150.812C191.682,150.399 191.22,150.192 190.724,150.192C190.195,150.192 189.675,150.383 189.162,150.762C188.65,151.143 188.295,151.663 188.097,152.324L188.097,160.651ZM186.56,130.762L188.097,130.762L188.097,150.093C189.319,148.871 190.708,148.26 192.26,148.26C193.317,148.26 194.276,148.615 195.136,149.325C195.994,150.035 196.424,151.068 196.424,152.423C196.424,153.481 196.11,154.456 195.482,155.347C194.854,156.24 194.012,157.131 192.954,158.024L189.534,160.949C188.906,161.477 188.344,161.998 187.849,162.51C187.353,163.022 186.923,163.509 186.56,163.972L186.56,130.762Z" style="fill:#241813;fill-rule:nonzero;"/>
            </g>
        </g>
    </g>
    <g id="major">
        <g id="M0guohub">
            <circle id="bgc12" serif:id="bgc" cx="250" cy="31.148" r="26" style="fill:none;"/>
            <path d="M262.75,41.461C261.611,43.267 260.09,44.69 258.188,45.732C256.285,46.773 254.153,47.294 251.792,47.294C248.903,47.294 246.361,46.628 244.167,45.294C241.972,43.961 240.271,42.065 239.063,39.607C237.854,37.148 237.25,34.267 237.25,30.961C237.25,27.739 237.847,24.926 239.042,22.523C240.236,20.121 241.931,18.267 244.125,16.961C246.319,15.655 248.875,15.003 251.792,15.003C254.153,15.003 256.299,15.523 258.229,16.565C260.16,17.607 261.667,19.017 262.75,20.794L259.417,23.086C258.583,21.808 257.458,20.794 256.042,20.044C254.625,19.294 253.194,18.919 251.75,18.919C249.694,18.919 247.903,19.405 246.375,20.378C244.847,21.35 243.667,22.746 242.833,24.565C242,26.385 241.583,28.517 241.583,30.961C241.583,33.461 242,35.642 242.833,37.503C243.667,39.364 244.854,40.801 246.396,41.815C247.938,42.829 249.722,43.336 251.75,43.336C253.222,43.336 254.639,42.961 256,42.211C257.361,41.461 258.5,40.433 259.417,39.128L262.75,41.461Z" style="fill:#241813;fill-rule:nonzero;"/>
        </g>
        <g id="guohub">
            <circle id="bgc13" serif:id="bgc" cx="141" cy="60.148" r="26" style="fill:none;"/>
            <path d="M136,62.211L136,75.711L131.875,75.711L131.875,44.586L151.042,44.586L151.042,48.503L136,48.503L136,58.253L149.958,58.253L149.958,62.211L136,62.211Z" style="fill:#241813;fill-rule:nonzero;"/>
        </g>
        <g id="guohub5" serif:id="guohub">
            <circle id="bgc14" serif:id="bgc" cx="359.275" cy="60.148" r="26" style="fill:none;"/>
            <path d="M360.379,47.919C358.324,47.919 356.525,48.405 354.984,49.378C353.442,50.35 352.247,51.753 351.4,53.586C350.553,55.419 350.129,57.6 350.129,60.128C350.129,62.711 350.539,64.912 351.359,66.732C352.178,68.551 353.338,69.94 354.838,70.898C356.338,71.857 358.102,72.336 360.129,72.336C361.74,72.336 363.157,72.072 364.379,71.544C365.602,71.017 366.699,70.211 367.671,69.128L367.671,62.503L360.421,62.503L360.421,58.628L371.796,58.628L371.796,70.669C368.879,74.419 364.99,76.294 360.129,76.294C357.213,76.294 354.678,75.655 352.525,74.378C350.372,73.1 348.72,71.246 347.567,68.815C346.414,66.385 345.838,63.489 345.838,60.128C345.838,56.794 346.428,53.912 347.609,51.482C348.789,49.051 350.47,47.197 352.65,45.919C354.831,44.642 357.407,44.003 360.379,44.003C362.74,44.003 364.859,44.51 366.734,45.523C368.609,46.537 370.115,47.947 371.254,49.753L367.921,52.086C367.032,50.836 365.914,49.829 364.567,49.065C363.22,48.301 361.824,47.919 360.379,47.919Z" style="fill:#241813;fill-rule:nonzero;"/>
        </g>
        <g id="guohub6" serif:id="guohub">
            <circle id="bgc15" serif:id="bgc" cx="440.275" cy="141.148" r="26" style="fill:none;"/>
            <path d="M428.567,156.711L428.567,125.586L440.025,125.586C443.081,125.586 445.692,126.225 447.859,127.503C450.025,128.78 451.671,130.586 452.796,132.919C453.921,135.253 454.484,137.989 454.484,141.128C454.484,144.267 453.893,147.01 452.713,149.357C451.532,151.704 449.803,153.517 447.525,154.794C445.247,156.072 442.511,156.711 439.317,156.711L428.567,156.711ZM439.317,152.753C442.817,152.753 445.497,151.746 447.359,149.732C449.22,147.718 450.15,144.85 450.15,141.128C450.15,137.405 449.247,134.537 447.442,132.523C445.636,130.51 443.039,129.503 439.65,129.503L432.692,129.503L432.692,152.753L439.317,152.753Z" style="fill:#241813;fill-rule:nonzero;"/>
        </g>
        <g id="guohub7" serif:id="guohub">
            <circle id="bgc16" serif:id="bgc" cx="468.525" cy="250" r="26" style="fill:none;"/>
            <path d="M483.067,265.563L478.65,265.563L474.942,255.354L463.734,255.354L460.025,265.563L455.567,265.563L467.15,234.438L471.484,234.438L483.067,265.563ZM469.192,240.354L465.15,251.438L473.484,251.438L469.442,240.354L469.192,240.354Z" style="fill:#241813;fill-rule:nonzero;"/>
        </g>
        <g id="guohub8" serif:id="guohub">
            <circle id="bgc17" serif:id="bgc" cx="440.275" cy="358.852" r="26" style="fill:none;"/>
            <path d="M435.817,360.206L435.817,370.497L451.775,370.497L451.775,374.414L431.692,374.414L431.692,343.289L451.234,343.289L451.234,347.206L435.817,347.206L435.817,356.331L450.359,356.331L450.359,360.206L435.817,360.206Z" style="fill:#241813;fill-rule:nonzero;"/>
        </g>
        <g id="guohub9" serif:id="guohub">
            <circle id="bgc18" serif:id="bgc" cx="358.525" cy="440.275" r="26" style="fill:none;"/>
            <path d="M354.443,428.691C355.467,428.95 356.277,429.436 356.873,430.146C357.469,430.857 357.767,431.785 357.767,432.932C357.767,434.491 357.243,435.698 356.196,436.554C355.149,437.41 353.709,437.838 351.875,437.838L345.227,437.838L345.227,420.713L351.783,420.713C353.373,420.713 354.626,421.099 355.543,421.87C356.46,422.642 356.919,423.708 356.919,425.068C356.919,425.97 356.697,426.715 356.254,427.304C355.81,427.892 355.207,428.309 354.443,428.553L354.443,428.691ZM347.496,422.868L347.496,427.819L351.531,427.819C352.433,427.819 353.155,427.594 353.698,427.143C354.24,426.692 354.511,426.047 354.511,425.206C354.511,424.442 354.24,423.861 353.698,423.464C353.155,423.066 352.418,422.868 351.485,422.868L347.496,422.868ZM351.577,435.683C352.739,435.683 353.663,435.434 354.351,434.938C355.039,434.441 355.383,433.719 355.383,432.771C355.383,431.854 355.046,431.159 354.374,430.685C353.701,430.211 352.784,429.974 351.623,429.974L347.496,429.974L347.496,435.683L351.577,435.683Z" style="fill:#241813;fill-rule:nonzero;"/>
            <path id="flat7" serif:id="flat" d="M369.253,459.688C369.694,459.213 370.068,458.776 370.373,458.378C370.678,457.979 370.915,457.627 371.085,457.322C371.271,456.999 371.411,456.703 371.504,456.431C371.598,456.16 371.644,455.906 371.644,455.668C371.644,455.193 371.534,454.85 371.314,454.638C371.093,454.426 370.856,454.32 370.602,454.32C370.33,454.32 370.063,454.418 369.8,454.613C369.537,454.808 369.355,455.075 369.253,455.414L369.253,459.688ZM368.465,444.349L369.253,444.349L369.253,454.269C369.881,453.642 370.593,453.328 371.39,453.328C371.933,453.328 372.424,453.511 372.866,453.875C373.306,454.24 373.527,454.77 373.527,455.465C373.527,456.008 373.366,456.508 373.043,456.966C372.721,457.424 372.289,457.881 371.746,458.339L369.991,459.84C369.669,460.111 369.38,460.379 369.126,460.642C368.872,460.904 368.651,461.154 368.465,461.392L368.465,444.349Z" style="fill:#241813;fill-rule:nonzero;"/>
            <path d="M365.527,457.544C364.9,458.538 364.063,459.321 363.017,459.894C361.97,460.467 360.797,460.754 359.498,460.754C357.908,460.754 356.51,460.387 355.302,459.653C354.095,458.92 353.159,457.877 352.494,456.524C351.829,455.171 351.497,453.586 351.497,451.767C351.497,449.994 351.825,448.447 352.483,447.125C353.14,445.803 354.072,444.783 355.279,444.064C356.487,443.346 357.893,442.987 359.498,442.987C360.797,442.987 361.977,443.273 363.04,443.846C364.102,444.42 364.931,445.195 365.527,446.173L363.693,447.434C363.234,446.731 362.615,446.173 361.836,445.761C361.056,445.348 360.269,445.142 359.475,445.142C358.344,445.142 357.358,445.409 356.517,445.944C355.677,446.479 355.027,447.247 354.569,448.248C354.11,449.249 353.881,450.422 353.881,451.767C353.881,453.143 354.11,454.342 354.569,455.366C355.027,456.39 355.681,457.181 356.529,457.739C357.377,458.297 358.359,458.576 359.475,458.576C360.285,458.576 361.064,458.37 361.813,457.957C362.562,457.544 363.189,456.979 363.693,456.26L365.527,457.544Z" style="fill:#241813;fill-rule:nonzero;"/>
        </g>
        <g id="guohub10" serif:id="guohub">
            <circle id="bgc19" serif:id="bgc" cx="250" cy="469.275" r="26" style="fill:none;"/>
            <path d="M240.083,459.41L240.083,466.838L237.813,466.838L237.813,449.713L248.359,449.713L248.359,451.868L240.083,451.868L240.083,457.232L247.763,457.232L247.763,459.41L240.083,459.41Z" style="fill:#241813;fill-rule:nonzero;"/>
            <path id="sharp11" serif:id="sharp" d="M254.027,450.942L254.027,455.013L252.629,455.347L252.629,451.421L251.981,451.421L251.981,455.513L251,455.785L251,457.873L251.981,457.622L251.981,460.608L251,460.9L251,463.05L251.981,462.8L251.981,466.725L252.629,466.725L252.629,462.654L254.027,462.278L254.027,466.036L254.674,466.036L254.674,462.111L255.697,461.86L255.697,459.71L254.674,459.96L254.674,456.975L255.697,456.683L255.697,454.616L254.674,454.845L254.674,450.942L254.027,450.942ZM252.629,457.455L254.027,457.1L254.027,460.106L252.629,460.441L252.629,457.455Z" style="fill:#241813;fill-rule:nonzero;"/>
            <path id="flat8" serif:id="flat" d="M260.728,487.688C261.169,487.213 261.542,486.776 261.847,486.378C262.152,485.979 262.39,485.627 262.56,485.322C262.746,484.999 262.886,484.703 262.979,484.431C263.073,484.16 263.119,483.906 263.119,483.668C263.119,483.193 263.009,482.85 262.788,482.638C262.568,482.426 262.331,482.32 262.076,482.32C261.805,482.32 261.538,482.418 261.275,482.613C261.012,482.808 260.83,483.075 260.728,483.414L260.728,487.688ZM259.94,472.349L260.728,472.349L260.728,482.269C261.356,481.642 262.068,481.328 262.865,481.328C263.407,481.328 263.899,481.511 264.34,481.875C264.781,482.24 265.002,482.77 265.002,483.465C265.002,484.008 264.841,484.508 264.518,484.966C264.196,485.424 263.764,485.881 263.221,486.339L261.466,487.84C261.143,488.111 260.855,488.379 260.601,488.642C260.346,488.904 260.126,489.154 259.94,489.392L259.94,472.349Z" style="fill:#241813;fill-rule:nonzero;"/>
            <path d="M250.594,474.142C249.463,474.142 248.474,474.409 247.625,474.944C246.777,475.479 246.12,476.251 245.654,477.26C245.188,478.268 244.955,479.468 244.955,480.859C244.955,482.28 245.18,483.491 245.631,484.492C246.082,485.493 246.72,486.258 247.545,486.785C248.37,487.312 249.341,487.576 250.457,487.576C251.343,487.576 252.122,487.431 252.795,487.14C253.467,486.85 254.071,486.407 254.606,485.811L254.606,482.166L250.617,482.166L250.617,480.033L256.876,480.033L256.876,486.659C255.271,488.722 253.131,489.754 250.457,489.754C248.852,489.754 247.457,489.402 246.273,488.699C245.088,487.996 244.179,486.976 243.545,485.639C242.91,484.301 242.593,482.708 242.593,480.859C242.593,479.025 242.918,477.439 243.568,476.102C244.217,474.765 245.142,473.744 246.342,473.041C247.541,472.338 248.959,471.987 250.594,471.987C251.893,471.987 253.059,472.266 254.09,472.824C255.122,473.381 255.951,474.157 256.578,475.15L254.744,476.434C254.254,475.747 253.639,475.192 252.898,474.772C252.157,474.352 251.389,474.142 250.594,474.142Z" style="fill:#241813;fill-rule:nonzero;"/>
        </g>
        <g id="guohub11" serif:id="guohub">
            <circle id="bgc20" serif:id="bgc" cx="141" cy="440.275" r="26" style="fill:none;"/>
            <path d="M140.849,434.949C140.222,435.943 139.386,436.726 138.339,437.299C137.292,437.872 136.119,438.159 134.82,438.159C133.23,438.159 131.832,437.792 130.625,437.058C129.417,436.325 128.481,435.282 127.816,433.929C127.151,432.576 126.819,430.991 126.819,429.172C126.819,427.399 127.148,425.852 127.805,424.53C128.462,423.208 129.394,422.188 130.602,421.469C131.809,420.751 133.215,420.392 134.82,420.392C136.119,420.392 137.3,420.678 138.362,421.251C139.424,421.825 140.253,422.6 140.849,423.578L139.015,424.839C138.557,424.136 137.938,423.578 137.158,423.166C136.379,422.753 135.592,422.547 134.797,422.547C133.666,422.547 132.68,422.814 131.84,423.349C130.999,423.884 130.349,424.652 129.891,425.653C129.432,426.654 129.203,427.827 129.203,429.172C129.203,430.548 129.432,431.747 129.891,432.771C130.349,433.795 131.003,434.586 131.851,435.144C132.699,435.702 133.681,435.981 134.797,435.981C135.607,435.981 136.386,435.774 137.135,435.362C137.884,434.949 138.511,434.384 139.015,433.665L140.849,434.949Z" style="fill:#241813;fill-rule:nonzero;"/>
            <path id="sharp12" serif:id="sharp" d="M146.027,421.942L146.027,426.013L144.629,426.347L144.629,422.421L143.981,422.421L143.981,426.513L143,426.785L143,428.873L143.981,428.622L143.981,431.608L143,431.9L143,434.05L143.981,433.8L143.981,437.725L144.629,437.725L144.629,433.654L146.027,433.278L146.027,437.036L146.674,437.036L146.674,433.111L147.697,432.86L147.697,430.71L146.674,430.96L146.674,427.975L147.697,427.683L147.697,425.616L146.674,425.845L146.674,421.942L146.027,421.942ZM144.629,428.455L146.027,428.1L146.027,431.106L144.629,431.441L144.629,428.455Z" style="fill:#241813;fill-rule:nonzero;"/>
            <path id="flat9" serif:id="flat" d="M151.728,458.688C152.169,458.213 152.542,457.776 152.847,457.378C153.152,456.979 153.39,456.627 153.56,456.322C153.746,455.999 153.886,455.703 153.979,455.431C154.073,455.16 154.119,454.906 154.119,454.668C154.119,454.193 154.009,453.85 153.788,453.638C153.568,453.426 153.331,453.32 153.076,453.32C152.805,453.32 152.538,453.418 152.275,453.613C152.012,453.808 151.83,454.075 151.728,454.414L151.728,458.688ZM150.94,443.349L151.728,443.349L151.728,453.269C152.356,452.642 153.068,452.328 153.865,452.328C154.407,452.328 154.899,452.511 155.34,452.875C155.781,453.24 156.002,453.77 156.002,454.465C156.002,455.008 155.841,455.508 155.518,455.966C155.196,456.424 154.764,456.881 154.221,457.339L152.466,458.84C152.143,459.111 151.855,459.379 151.601,459.642C151.346,459.904 151.126,460.154 150.94,460.392L150.94,443.349Z" style="fill:#241813;fill-rule:nonzero;"/>
            <path d="M133.994,460.433L133.994,443.308L140.299,443.308C141.98,443.308 143.417,443.659 144.609,444.362C145.801,445.065 146.706,446.059 147.325,447.343C147.944,448.626 148.254,450.132 148.254,451.859C148.254,453.586 147.929,455.095 147.28,456.386C146.63,457.678 145.679,458.675 144.425,459.378C143.172,460.081 141.667,460.433 139.909,460.433L133.994,460.433ZM139.909,458.255C141.835,458.255 143.31,457.701 144.334,456.593C145.358,455.485 145.87,453.907 145.87,451.859C145.87,449.811 145.373,448.233 144.38,447.125C143.386,446.017 141.957,445.463 140.093,445.463L136.264,445.463L136.264,458.255L139.909,458.255Z" style="fill:#241813;fill-rule:nonzero;"/>
        </g>
        <g id="guohub12" serif:id="guohub">
            <circle id="bgc21" serif:id="bgc" cx="60" cy="359.275" r="26" style="fill:none;"/>
            <path id="flat10" serif:id="flat" d="M70.271,370.786C71.016,369.984 71.646,369.246 72.161,368.574C72.676,367.901 73.077,367.306 73.364,366.791C73.678,366.247 73.915,365.746 74.072,365.288C74.229,364.83 74.308,364.401 74.308,364C74.308,363.198 74.122,362.618 73.749,362.26C73.378,361.902 72.977,361.723 72.547,361.723C72.089,361.723 71.638,361.888 71.194,362.217C70.751,362.547 70.443,362.997 70.271,363.57L70.271,370.786ZM68.94,344.887L70.271,344.887L70.271,361.637C71.33,360.578 72.533,360.049 73.879,360.049C74.795,360.049 75.625,360.356 76.37,360.971C77.114,361.587 77.486,362.482 77.486,363.656C77.486,364.572 77.215,365.417 76.67,366.19C76.126,366.963 75.396,367.736 74.48,368.509L71.516,371.043C70.972,371.501 70.486,371.953 70.056,372.396C69.627,372.84 69.254,373.262 68.94,373.663L68.94,344.887Z" style="fill:#241813;fill-rule:nonzero;"/>
            <path d="M65.731,373.663L61.648,373.663L58.219,364.225L47.857,364.225L44.429,373.663L40.307,373.663L51.016,344.887L55.022,344.887L65.731,373.663ZM52.903,350.357L49.167,360.604L56.871,360.604L53.134,350.357L52.903,350.357Z" style="fill:#241813;fill-rule:nonzero;"/>
        </g>
        <g id="guohub13" serif:id="guohub">
            <circle id="bgc22" serif:id="bgc" cx="31.148" cy="250" r="26" style="fill:none;"/>
            <path id="flat11" serif:id="flat" d="M41.419,261.511C42.164,260.709 42.794,259.971 43.309,259.299C43.824,258.626 44.225,258.031 44.512,257.516C44.827,256.972 45.063,256.471 45.22,256.013C45.378,255.555 45.457,255.125 45.457,254.724C45.457,253.922 45.27,253.343 44.898,252.985C44.526,252.627 44.125,252.448 43.696,252.448C43.238,252.448 42.787,252.613 42.343,252.942C41.899,253.271 41.591,253.722 41.419,254.295L41.419,261.511ZM40.088,235.612L41.419,235.612L41.419,252.362C42.479,251.303 43.682,250.773 45.027,250.773C45.943,250.773 46.774,251.081 47.518,251.696C48.263,252.312 48.635,253.207 48.635,254.38C48.635,255.297 48.363,256.142 47.819,256.915C47.274,257.688 46.545,258.461 45.629,259.234L42.665,261.768C42.121,262.226 41.634,262.677 41.205,263.121C40.775,263.565 40.403,263.987 40.088,264.388L40.088,235.612Z" style="fill:#241813;fill-rule:nonzero;"/>
            <path d="M19.314,251.252L19.314,260.767L34.067,260.767L34.067,264.388L15.5,264.388L15.5,235.612L33.567,235.612L33.567,239.233L19.314,239.233L19.314,247.669L32.758,247.669L32.758,251.252L19.314,251.252Z" style="fill:#241813;fill-rule:nonzero;"/>
        </g>
        <g id="guohub14" serif:id="guohub">
            <circle id="bgc23" serif:id="bgc" cx="60.067" cy="141" r="26" style="fill:none;"/>
            <path id="flat12" serif:id="flat" d="M70.338,152.511C71.083,151.709 71.713,150.971 72.228,150.299C72.743,149.626 73.144,149.031 73.431,148.516C73.745,147.972 73.982,147.471 74.139,147.013C74.297,146.555 74.375,146.125 74.375,145.724C74.375,144.922 74.189,144.343 73.817,143.985C73.445,143.627 73.044,143.448 72.615,143.448C72.157,143.448 71.705,143.613 71.262,143.942C70.818,144.271 70.51,144.722 70.338,145.295L70.338,152.511ZM69.007,126.612L70.338,126.612L70.338,143.362C71.398,142.303 72.6,141.773 73.946,141.773C74.862,141.773 75.692,142.081 76.437,142.696C77.181,143.312 77.554,144.207 77.554,145.38C77.554,146.297 77.282,147.142 76.738,147.915C76.193,148.688 75.463,149.461 74.547,150.234L71.584,152.768C71.039,153.226 70.553,153.677 70.123,154.121C69.694,154.565 69.321,154.987 69.007,155.388L69.007,126.612Z" style="fill:#241813;fill-rule:nonzero;"/>
            <path d="M58.46,140.018C60.181,140.454 61.542,141.27 62.543,142.464C63.545,143.658 64.046,145.218 64.046,147.144C64.046,149.764 63.166,151.792 61.407,153.231C59.648,154.669 57.227,155.388 54.145,155.388L42.974,155.388L42.974,126.612L53.991,126.612C56.662,126.612 58.768,127.261 60.309,128.558C61.85,129.854 62.62,131.646 62.62,133.931C62.62,135.446 62.248,136.698 61.503,137.687C60.758,138.676 59.744,139.376 58.46,139.787L58.46,140.018ZM46.788,130.233L46.788,138.554L53.568,138.554C55.083,138.554 56.296,138.175 57.208,137.417C58.12,136.66 58.575,135.575 58.575,134.162C58.575,132.878 58.12,131.903 57.208,131.235C56.296,130.567 55.057,130.233 53.491,130.233L46.788,130.233ZM53.645,151.767C55.596,151.767 57.15,151.349 58.306,150.515C59.461,149.68 60.039,148.467 60.039,146.875C60.039,145.334 59.474,144.165 58.344,143.369C57.214,142.573 55.674,142.175 53.722,142.175L46.788,142.175L46.788,151.767L53.645,151.767Z" style="fill:#241813;fill-rule:nonzero;"/>
        </g>
    </g>
    <g id="minor">
        <g id="guohub15" serif:id="guohub">
            <circle id="bgc24" serif:id="bgc" cx="250" cy="83.648" r="23.5" style="fill:none;"/>
            <path d="M262.24,97.715L258.248,97.715L254.896,88.488L244.765,88.488L241.413,97.715L237.384,97.715L247.853,69.582L251.77,69.582L262.24,97.715ZM249.699,74.93L246.046,84.948L253.578,84.948L249.925,74.93L249.699,74.93Z" style="fill:#241813;fill-rule:nonzero;"/>
        </g>
        <g id="guohub16" serif:id="guohub">
            <circle id="bgc25" serif:id="bgc" cx="333.365" cy="105.465" r="23.5" style="fill:none;"/>
            <path d="M328.62,106.689L328.62,115.991L343.044,115.991L343.044,119.531L324.891,119.531L324.891,91.399L342.554,91.399L342.554,94.939L328.62,94.939L328.62,103.186L341.763,103.186L341.763,106.689L328.62,106.689Z" style="fill:#241813;fill-rule:nonzero;"/>
        </g>
        <g id="guohub17" serif:id="guohub">
            <circle id="bgc26" serif:id="bgc" cx="394.005" cy="166.704" r="23.5" style="fill:none;"/>
            <path d="M399.071,165.743C400.753,166.17 402.083,166.967 403.063,168.135C404.042,169.302 404.531,170.828 404.531,172.711C404.531,175.272 403.671,177.255 401.952,178.661C400.232,180.067 397.865,180.77 394.853,180.77L383.931,180.77L383.931,152.638L394.702,152.638C397.313,152.638 399.372,153.272 400.878,154.54C402.385,155.807 403.138,157.559 403.138,159.793C403.138,161.274 402.774,162.498 402.046,163.465C401.318,164.432 400.326,165.116 399.071,165.518L399.071,165.743ZM387.66,156.178L387.66,164.312L394.288,164.312C395.769,164.312 396.955,163.942 397.847,163.201C398.738,162.461 399.184,161.4 399.184,160.019C399.184,158.764 398.738,157.81 397.847,157.157C396.955,156.504 395.744,156.178 394.212,156.178L387.66,156.178ZM394.363,177.23C396.271,177.23 397.79,176.822 398.92,176.006C400.05,175.19 400.615,174.004 400.615,172.447C400.615,170.941 400.062,169.798 398.958,169.02C397.853,168.242 396.347,167.852 394.438,167.852L387.66,167.852L387.66,177.23L394.363,177.23Z" style="fill:#241813;fill-rule:nonzero;"/>
        </g>
        <g id="guohub18" serif:id="guohub">
            <circle id="bgc27" serif:id="bgc" cx="416.505" cy="250" r="23.5" style="fill:none;"/>
            <path d="M406.986,251.864L406.986,264.066L403.258,264.066L403.258,235.934L420.581,235.934L420.581,239.474L406.986,239.474L406.986,248.286L419.602,248.286L419.602,251.864L406.986,251.864Z" style="fill:#241813;fill-rule:nonzero;"/>
            <path id="sharp13" serif:id="sharp" d="M428.622,236.316L428.622,243.375L426.197,243.954L426.197,237.148L425.074,237.148L425.074,244.243L423.373,244.714L423.373,248.334L425.074,247.9L425.074,253.077L423.373,253.584L423.373,257.313L425.074,256.878L425.074,263.684L426.197,263.684L426.197,256.625L428.622,255.973L428.622,262.489L429.744,262.489L429.744,255.684L431.518,255.249L431.518,251.521L429.744,251.955L429.744,246.778L431.518,246.271L431.518,242.687L429.744,243.085L429.744,236.316L428.622,236.316ZM426.197,247.61L428.622,246.995L428.622,252.208L426.197,252.788L426.197,247.61Z" style="fill:#241813;fill-rule:nonzero;"/>
        </g>
        <g id="guohub19" serif:id="guohub">
            <circle id="bgc28" serif:id="bgc" cx="394.005" cy="333" r="23.5" style="fill:none;"/>
            <path d="M400.529,342.321C399.5,343.953 398.125,345.24 396.406,346.181C394.686,347.123 392.759,347.593 390.625,347.593C388.014,347.593 385.716,346.991 383.733,345.786C381.749,344.581 380.212,342.867 379.119,340.645C378.027,338.423 377.481,335.818 377.481,332.831C377.481,329.918 378.021,327.376 379.101,325.204C380.18,323.033 381.712,321.357 383.695,320.177C385.679,318.997 387.988,318.407 390.625,318.407C392.759,318.407 394.698,318.877 396.443,319.819C398.188,320.76 399.55,322.035 400.529,323.641L397.517,325.713C396.763,324.558 395.746,323.641 394.466,322.964C393.186,322.286 391.893,321.947 390.587,321.947C388.729,321.947 387.11,322.386 385.729,323.265C384.348,324.144 383.281,325.405 382.528,327.05C381.775,328.694 381.398,330.621 381.398,332.831C381.398,335.09 381.775,337.061 382.528,338.743C383.281,340.425 384.354,341.725 385.748,342.641C387.141,343.557 388.754,344.016 390.587,344.016C391.918,344.016 393.198,343.677 394.428,342.999C395.659,342.321 396.688,341.392 397.517,340.212L400.529,342.321Z" style="fill:#241813;fill-rule:nonzero;"/>
            <path id="sharp14" serif:id="sharp" d="M406.122,319.316L406.122,326.375L403.697,326.954L403.697,320.148L402.574,320.148L402.574,327.243L400.873,327.714L400.873,331.334L402.574,330.9L402.574,336.077L400.873,336.584L400.873,340.313L402.574,339.878L402.574,346.684L403.697,346.684L403.697,339.625L406.122,338.973L406.122,345.489L407.244,345.489L407.244,338.684L409.018,338.249L409.018,334.521L407.244,334.955L407.244,329.778L409.018,329.271L409.018,325.687L407.244,326.085L407.244,319.316L406.122,319.316ZM403.697,330.61L406.122,329.995L406.122,335.208L403.697,335.788L403.697,330.61Z" style="fill:#241813;fill-rule:nonzero;"/>
        </g>
        <g id="guohub20" serif:id="guohub">
            <circle id="bgc29" serif:id="bgc" cx="333.239" cy="394.307" r="23.5" style="fill:none;"/>
            <path d="M323.754,377.911C322.726,377.911 321.827,378.154 321.056,378.64C320.285,379.126 319.688,379.827 319.264,380.744C318.841,381.661 318.629,382.751 318.629,384.015C318.629,385.306 318.834,386.407 319.244,387.317C319.653,388.226 320.233,388.921 320.983,389.4C321.733,389.879 322.615,390.119 323.629,390.119C324.434,390.119 325.143,389.987 325.754,389.723C326.365,389.459 326.914,389.056 327.4,388.515L327.4,385.202L323.775,385.202L323.775,383.265L329.462,383.265L329.462,389.286C328.004,391.161 326.059,392.098 323.629,392.098C322.171,392.098 320.903,391.779 319.827,391.14C318.75,390.501 317.924,389.574 317.348,388.358C316.771,387.143 316.483,385.695 316.483,384.015C316.483,382.348 316.778,380.907 317.369,379.692C317.959,378.476 318.799,377.549 319.889,376.911C320.98,376.272 322.268,375.952 323.754,375.952C324.934,375.952 325.994,376.206 326.931,376.713C327.869,377.22 328.622,377.924 329.191,378.827L327.525,379.994C327.08,379.369 326.521,378.865 325.848,378.483C325.174,378.101 324.476,377.911 323.754,377.911Z" style="fill:#241813;fill-rule:nonzero;"/>
            <path d="M340.462,412.593L338.254,412.593L336.4,407.489L330.796,407.489L328.941,412.593L326.712,412.593L332.504,397.031L334.671,397.031L340.462,412.593ZM333.525,399.989L331.504,405.531L335.671,405.531L333.65,399.989L333.525,399.989Z" style="fill:#241813;fill-rule:nonzero;"/>
            <path id="flat13" serif:id="flat" d="M343.125,411.63C343.566,411.155 343.94,410.718 344.245,410.319C344.55,409.921 344.787,409.569 344.957,409.264C345.143,408.941 345.283,408.645 345.376,408.373C345.47,408.102 345.517,407.848 345.517,407.61C345.517,407.135 345.406,406.792 345.186,406.58C344.966,406.368 344.728,406.262 344.474,406.262C344.202,406.262 343.935,406.36 343.672,406.555C343.409,406.75 343.227,407.017 343.125,407.356L343.125,411.63ZM342.337,396.291L343.125,396.291L343.125,406.211C343.753,405.584 344.465,405.27 345.262,405.27C345.805,405.27 346.297,405.453 346.738,405.817C347.178,406.181 347.399,406.712 347.399,407.407C347.399,407.95 347.238,408.45 346.916,408.907C346.593,409.366 346.161,409.823 345.618,410.281L343.863,411.782C343.541,412.053 343.253,412.321 342.998,412.583C342.744,412.846 342.523,413.096 342.337,413.334L342.337,396.291Z" style="fill:#241813;fill-rule:nonzero;"/>
            <path id="sharp15" serif:id="sharp" d="M334.573,375.952L334.573,380.117L333.142,380.458L333.142,376.443L332.48,376.443L332.48,380.629L331.476,380.907L331.476,383.043L332.48,382.786L332.48,385.84L331.476,386.139L331.476,388.339L332.48,388.083L332.48,392.098L333.142,392.098L333.142,387.933L334.573,387.549L334.573,391.393L335.235,391.393L335.235,387.378L336.282,387.122L336.282,384.922L335.235,385.178L335.235,382.124L336.282,381.825L336.282,379.711L335.235,379.946L335.235,375.952L334.573,375.952ZM333.142,382.615L334.573,382.253L334.573,385.328L333.142,385.67L333.142,382.615Z" style="fill:#241813;fill-rule:nonzero;"/>
        </g>
        <g id="guohub21" serif:id="guohub">
            <circle id="bgc30" serif:id="bgc" cx="250" cy="416.807" r="23.5" style="fill:none;"/>
            <path d="M235.608,414.306L235.608,398.744L241.338,398.744C242.865,398.744 244.171,399.063 245.254,399.702C246.338,400.341 247.161,401.244 247.723,402.411C248.286,403.577 248.567,404.945 248.567,406.515C248.567,408.084 248.272,409.456 247.681,410.629C247.091,411.803 246.227,412.709 245.088,413.348C243.949,413.987 242.581,414.306 240.983,414.306L235.608,414.306ZM240.983,412.327C242.733,412.327 244.074,411.824 245.004,410.817C245.935,409.81 246.4,408.376 246.4,406.515C246.4,404.654 245.949,403.22 245.046,402.213C244.143,401.206 242.845,400.702 241.15,400.702L237.671,400.702L237.671,412.327L240.983,412.327Z" style="fill:#241813;fill-rule:nonzero;"/>
            <path d="M247.723,427.989L247.723,433.135L255.702,433.135L255.702,435.093L245.661,435.093L245.661,419.531L255.431,419.531L255.431,421.489L247.723,421.489L247.723,426.052L254.994,426.052L254.994,427.989L247.723,427.989Z" style="fill:#241813;fill-rule:nonzero;"/>
            <path id="flat14" serif:id="flat" d="M259.886,434.13C260.327,433.655 260.7,433.218 261.005,432.819C261.31,432.421 261.548,432.069 261.718,431.764C261.904,431.441 262.044,431.145 262.137,430.873C262.231,430.602 262.277,430.348 262.277,430.11C262.277,429.635 262.167,429.292 261.946,429.08C261.726,428.868 261.489,428.762 261.234,428.762C260.963,428.762 260.696,428.86 260.433,429.055C260.17,429.25 259.988,429.517 259.886,429.856L259.886,434.13ZM259.098,418.791L259.886,418.791L259.886,428.711C260.514,428.084 261.226,427.77 262.023,427.77C262.565,427.77 263.057,427.953 263.499,428.317C263.939,428.681 264.16,429.212 264.16,429.907C264.16,430.45 263.999,430.95 263.676,431.407C263.354,431.866 262.922,432.323 262.379,432.781L260.624,434.282C260.301,434.553 260.013,434.821 259.759,435.083C259.505,435.346 259.284,435.596 259.098,435.834L259.098,418.791Z" style="fill:#241813;fill-rule:nonzero;"/>
            <path id="sharp16" serif:id="sharp" d="M253.334,398.452L253.334,402.617L251.903,402.958L251.903,398.943L251.241,398.943L251.241,403.129L250.237,403.407L250.237,405.543L251.241,405.286L251.241,408.34L250.237,408.639L250.237,410.839L251.241,410.583L251.241,414.598L251.903,414.598L251.903,410.433L253.334,410.049L253.334,413.893L253.996,413.893L253.996,409.878L255.043,409.622L255.043,407.422L253.996,407.678L253.996,404.624L255.043,404.325L255.043,402.211L253.996,402.446L253.996,398.452L253.334,398.452ZM251.903,405.115L253.334,404.753L253.334,407.828L251.903,408.17L251.903,405.115Z" style="fill:#241813;fill-rule:nonzero;"/>
        </g>
        <g id="guohub22" serif:id="guohub">
            <circle id="bgc31" serif:id="bgc" cx="166.307" cy="394.751" r="23.5" style="fill:none;"/>
            <path d="M165.041,392.25L162.832,392.25L160.978,387.146L155.374,387.146L153.52,392.25L151.291,392.25L157.082,376.688L159.249,376.688L165.041,392.25ZM158.103,379.646L156.082,385.188L160.249,385.188L158.228,379.646L158.103,379.646Z" style="fill:#241813;fill-rule:nonzero;"/>
            <path d="M169.562,404.725C170.492,404.961 171.228,405.402 171.77,406.048C172.312,406.693 172.582,407.537 172.582,408.579C172.582,409.995 172.107,411.093 171.155,411.87C170.204,412.648 168.895,413.037 167.228,413.037L161.187,413.037L161.187,397.475L167.145,397.475C168.589,397.475 169.728,397.825 170.562,398.527C171.395,399.228 171.812,400.197 171.812,401.433C171.812,402.252 171.61,402.929 171.207,403.464C170.805,403.999 170.256,404.377 169.562,404.6L169.562,404.725ZM163.249,399.433L163.249,403.933L166.916,403.933C167.735,403.933 168.391,403.728 168.885,403.318C169.378,402.909 169.624,402.322 169.624,401.558C169.624,400.864 169.378,400.336 168.885,399.975C168.391,399.614 167.721,399.433 166.874,399.433L163.249,399.433ZM166.957,411.079C168.013,411.079 168.853,410.853 169.478,410.402C170.103,409.95 170.416,409.294 170.416,408.433C170.416,407.6 170.11,406.968 169.499,406.537C168.888,406.107 168.055,405.891 166.999,405.891L163.249,405.891L163.249,411.079L166.957,411.079Z" style="fill:#241813;fill-rule:nonzero;"/>
            <path id="flat15" serif:id="flat" d="M176.193,412.073C176.635,411.598 177.008,411.162 177.313,410.763C177.618,410.365 177.855,410.012 178.025,409.707C178.212,409.385 178.352,409.088 178.445,408.817C178.538,408.546 178.585,408.291 178.585,408.054C178.585,407.579 178.474,407.236 178.254,407.024C178.034,406.812 177.796,406.706 177.542,406.706C177.271,406.706 177.003,406.803 176.74,406.998C176.478,407.193 176.295,407.46 176.193,407.8L176.193,412.073ZM175.405,396.734L176.193,396.734L176.193,406.655C176.821,406.027 177.533,405.714 178.33,405.714C178.873,405.714 179.365,405.896 179.806,406.26C180.246,406.625 180.467,407.155 180.467,407.85C180.467,408.393 180.306,408.894 179.984,409.351C179.661,409.809 179.229,410.267 178.686,410.725L176.931,412.226C176.609,412.497 176.321,412.764 176.066,413.027C175.812,413.29 175.591,413.54 175.405,413.777L175.405,396.734Z" style="fill:#241813;fill-rule:nonzero;"/>
            <path id="sharp17" serif:id="sharp" d="M169.641,376.396L169.641,380.561L168.211,380.902L168.211,376.887L167.548,376.887L167.548,381.073L166.545,381.351L166.545,383.486L167.548,383.23L167.548,386.284L166.545,386.583L166.545,388.783L167.548,388.526L167.548,392.542L168.211,392.542L168.211,388.377L169.641,387.993L169.641,391.837L170.303,391.837L170.303,387.822L171.35,387.565L171.35,385.366L170.303,385.622L170.303,382.568L171.35,382.269L171.35,380.155L170.303,380.39L170.303,376.396L169.641,376.396ZM168.211,383.059L169.641,382.696L169.641,385.771L168.211,386.113L168.211,383.059Z" style="fill:#241813;fill-rule:nonzero;"/>
        </g>
        <g id="guohub23" serif:id="guohub">
            <circle id="bgc32" serif:id="bgc" cx="105.747" cy="332.959" r="23.5" style="fill:none;"/>
            <path d="M101.228,334.823L101.228,347.025L97.5,347.025L97.5,318.893L114.824,318.893L114.824,322.433L101.228,322.433L101.228,331.246L113.844,331.246L113.844,334.823L101.228,334.823Z" style="fill:#241813;fill-rule:nonzero;"/>
        </g>
        <g id="guohub24" serif:id="guohub">
            <circle id="bgc33" serif:id="bgc" cx="83.662" cy="250" r="23.5" style="fill:none;"/>
            <path d="M95.186,259.321C94.156,260.953 92.782,262.24 91.062,263.181C89.342,264.123 87.415,264.593 85.281,264.593C82.67,264.593 80.373,263.991 78.389,262.786C76.406,261.581 74.868,259.867 73.776,257.645C72.684,255.423 72.138,252.818 72.138,249.831C72.138,246.918 72.678,244.376 73.757,242.204C74.837,240.033 76.368,238.357 78.352,237.177C80.335,235.997 82.645,235.407 85.281,235.407C87.415,235.407 89.355,235.877 91.1,236.819C92.845,237.76 94.207,239.035 95.186,240.641L92.173,242.713C91.42,241.558 90.403,240.641 89.122,239.964C87.842,239.286 86.549,238.947 85.243,238.947C83.386,238.947 81.766,239.386 80.385,240.265C79.004,241.144 77.937,242.405 77.184,244.05C76.431,245.694 76.054,247.621 76.054,249.831C76.054,252.09 76.431,254.061 77.184,255.743C77.937,257.425 79.011,258.725 80.404,259.641C81.798,260.557 83.411,261.016 85.243,261.016C86.574,261.016 87.855,260.677 89.085,259.999C90.315,259.321 91.344,258.392 92.173,257.212L95.186,259.321Z" style="fill:#241813;fill-rule:nonzero;"/>
        </g>
        <g id="guohub25" serif:id="guohub">
            <circle id="bgc34" serif:id="bgc" cx="104.747" cy="167" r="23.5" style="fill:none;"/>
            <path d="M106.16,155.947C104.302,155.947 102.676,156.386 101.283,157.265C99.889,158.144 98.81,159.411 98.044,161.069C97.278,162.726 96.895,164.696 96.895,166.981C96.895,169.316 97.266,171.306 98.006,172.95C98.747,174.595 99.795,175.85 101.151,176.716C102.507,177.583 104.101,178.016 105.934,178.016C107.39,178.016 108.67,177.777 109.775,177.3C110.88,176.823 111.872,176.095 112.75,175.116L112.75,169.128L106.197,169.128L106.197,165.625L116.479,165.625L116.479,176.509C113.842,179.899 110.327,181.593 105.934,181.593C103.298,181.593 101.007,181.016 99.061,179.861C97.115,178.706 95.621,177.03 94.579,174.833C93.537,172.636 93.016,170.019 93.016,166.981C93.016,163.968 93.55,161.364 94.617,159.167C95.684,156.97 97.203,155.294 99.174,154.139C101.145,152.984 103.473,152.407 106.16,152.407C108.294,152.407 110.208,152.865 111.903,153.781C113.598,154.698 114.96,155.972 115.989,157.604L112.976,159.713C112.173,158.583 111.162,157.673 109.945,156.982C108.727,156.292 107.465,155.947 106.16,155.947Z" style="fill:#241813;fill-rule:nonzero;"/>
        </g>
        <g id="guohub26" serif:id="guohub">
            <circle id="bgc35" serif:id="bgc" cx="166.747" cy="106" r="23.5" style="fill:none;"/>
            <path d="M155.675,120.066L155.675,91.934L166.032,91.934C168.794,91.934 171.154,92.511 173.112,93.666C175.07,94.821 176.558,96.453 177.575,98.562C178.592,100.671 179.1,103.144 179.1,105.981C179.1,108.818 178.567,111.298 177.499,113.419C176.432,115.541 174.87,117.179 172.811,118.334C170.752,119.489 168.279,120.066 165.392,120.066L155.675,120.066ZM165.392,116.488C168.555,116.488 170.978,115.578 172.66,113.758C174.342,111.938 175.183,109.345 175.183,105.981C175.183,102.617 174.367,100.025 172.735,98.204C171.104,96.384 168.756,95.474 165.693,95.474L159.404,95.474L159.404,116.488L165.392,116.488Z" style="fill:#241813;fill-rule:nonzero;"/>
        </g>
    </g>
    <g id="cursor">
        <circle cx="250" cy="250" r="217" style="fill:none;"/>
        <path d="M250,176.26L250,191" style="fill:none;stroke:#ea0000;stroke-width:6.25px;stroke-linecap:butt;stroke-linejoin:round;stroke-miterlimit:1.5;"/>
        <path d="M250,161.077L260.228,179.071L239.772,179.071L250,161.077Z" style="fill:#ea0000;"/>
    </g>
</svg>
