<?xml version="1.0" standalone="no"?><!DOCTYPE svg PUBLIC "-//W3C//DTD SVG 1.1//EN" "http://www.w3.org/Graphics/SVG/1.1/DTD/svg11.dtd"><svg t="1736498959107" class="icon" viewBox="0 0 1024 1024" version="1.1" xmlns="http://www.w3.org/2000/svg" p-id="2369" xmlns:xlink="http://www.w3.org/1999/xlink" width="200" height="200"><path d="M532.771226 587.948361c-26.393564 0-39.582705-25.10216-39.582705-75.306479s13.189141-75.31412 39.582705-75.314121c7.916541 0 21.113323 5.287883 38.260734 15.856007 17.155053 10.568124 30.351835 15.856006 39.582706 15.856006 55.423429 0 102.930317-19.821918 143.170186-60.115278C794.032363 367.293882 813.823716 316.432399 813.823716 257.639091 813.823716 86.54705 735.31547 0.657165 578.948502 0.657165c-38.260735 0-70.591705 13.876871-96.977628 42.280136-26.393564 28.410907-39.582705 62.75922-39.582706 103.717386 0 21.801054 6.59457 40.301001 19.791353 55.492202 13.189141 15.198842 29.022223 22.46586 47.499246 22.46586 18.469382 0 34.96727-7.267018 48.164053-22.46586 13.853947-15.1912 20.448517-33.691148 20.448517-55.492202 0-13.86923-7.259376-27.081295-21.778129-39.636195-15.168276-11.890094-23.084817-24.444995-23.084818-38.314225 0-11.890094 4.615435-21.136248 13.853947-27.088936 9.238512-7.259376 19.791353-11.23293 31.666165-11.23293 48.164052 0 81.152187 19.164754 98.30724 56.821814 17.155053 37.649419 25.728758 94.463591 25.728758 169.777711 0 57.471337-5.2726 101.073444-16.490247 130.798681-9.903318 34.355954-35.632076 52.191096-76.536752 52.191096-29.687029 0-55.415787-15.198842-76.529111-44.924078-19.134188-31.047207-28.3727-66.71749-28.372699-106.361327 0-9.903318-4.615435-15.1912-13.189141-15.191201-8.581347 0-13.196782 5.287883-13.196782 15.191201 0 79.272391-24.414429 147.327135-73.892811 204.79083V11.23293C404.776957 3.973553 402.140657 0 396.860416 0H377.726228c-6.59457 0-9.238512 3.965912-9.238512 11.23293v1002.810262c0 6.609853 3.301106 9.253795 9.246153 9.253795h19.126547c5.2726 0 7.916541-3.308747 7.916541-9.253795v-482.251839c48.821217 56.157008 73.892811 124.20411 73.892811 203.476501 0 11.23293 4.615435 16.50553 13.196782 16.505529 8.573706 0 13.189141-5.2726 13.189141-16.505529 0-40.301001 9.246153-75.31412 28.372699-106.368969 21.113323-29.725236 46.184917-44.916437 76.529111-44.916436 40.904676 0 66.633434 17.177977 76.536752 52.191095 11.210006 29.725236 16.490247 73.99215 16.490247 132.785458 0 74.649314-8.573706 130.798681-25.728758 169.112905-17.155053 38.314225-50.143188 57.478979-98.30724 57.478979-11.874812 0-22.427652-3.965912-31.666165-11.23293-9.238512-6.609853-13.853947-15.856006-13.853947-28.410907 0-12.547259 7.916541-25.10216 23.092459-36.992254 14.518753-13.86923 21.770488-27.081295 21.770488-39.636196 0-21.801054-6.59457-40.29336-20.448517-56.149366-13.861588-15.198842-29.69467-23.123024-48.164053-23.123024-18.477023 0-34.310106 7.924182-47.506887 23.123024-13.189141 15.1912-19.791353 34.348313-19.791353 56.149366 0 40.958166 13.196782 75.31412 39.582705 102.395416 26.393564 28.410907 58.724535 42.280137 96.98527 42.280136C735.31547 1023.954151 813.823716 938.736713 813.823716 768.294196c0-60.115278-19.791353-110.319598-60.038864-151.277764-40.247511-40.301001-87.746758-60.115278-143.162545-60.115278-9.895676 0-23.092459 5.280241-39.582705 15.1912-17.155053 9.910959-30.351835 15.856006-38.268376 15.856007z m-208.48165 435.348626c6.59457 0 9.23087-3.308747 9.23087-9.253795V11.23293c0-7.267018-3.293464-11.23293-9.23087-11.23293h-106.21614C212.777912 0 210.149254 3.965912 210.149254 11.23293v1002.810262c0 6.609853 2.6363 9.253795 7.916541 9.253795h106.216139z" p-id="2370"></path></svg>