<?xml version="1.0" encoding="utf-8"?>
<!-- Generator: Adobe Illustrator 28.2.0, SVG Export Plug-In . SVG Version: 6.00 Build 0)  -->
<svg version="1.1" id="图层_1" xmlns="http://www.w3.org/2000/svg" xmlns:xlink="http://www.w3.org/1999/xlink" x="0px" y="0px"
	 viewBox="0 0 200 200" style="enable-background:new 0 0 200 200;" xml:space="preserve">
<style type="text/css">
	.st0{fill:#FFFFFF;}
	.st1{fill:#0090FF;}
</style>
<circle class="st0" cx="100" cy="100" r="97"/>
<path class="st1" d="M72.7,153.3c10.4,4.4,21.7,6.6,33,6.6c10.8,0.1,21.4-1.8,31.5-5.6c8.3-3,15.7-8.1,21.2-15h0
	c0.3-3.8,3.7-6.6,7.5-6.3c3.5,0.3,6.2,3.1,6.4,6.6h0.5c-0.1,0.4-0.3,0.8-0.5,1.2c-0.1,1.8-0.9,3.6-2.3,4.8c-4.5,7.7-11.1,14-19,18.2
	c-13.6,7.1-28.9,10.6-44.3,10.1c-15,0.4-29.9-2.5-43.7-8.5c-11.7-5.4-21.4-14.5-27.4-25.9c-6-11.1-9.1-23.6-9-36.2
	c-0.1-14,3.4-27.8,10.2-40.1c6.3-11.9,16-21.6,27.9-27.9c12.5-6.4,26.4-9.6,40.5-9.3c11.9-0.2,23.7,2.3,34.3,7.5
	c9.4,4.7,17.1,12.1,22.1,21.3c5,9.3,7.4,19.7,7,30.2c0.1,12.6-3.6,24.9-10.7,35.3c-9,12.1-23.2,19.3-38.3,19.5
	c-3.3,0.2-6.7-0.5-9.6-2.2c-2.2-1.6-3.7-3.9-4.3-6.5c-5.5,5.6-13,8.7-20.9,8.7c-6.4-0.2-12.4-2.9-16.7-7.5
	c-5.9-6.6-8.8-15.3-8.1-24.1c0.4-11,3.8-21.8,9.6-31.2C78,64.7,89.6,59.3,97.3,59.3c9.1,0,19.3,4.3,23.6,11.2l0.6-2.3
	c-0.1-0.5-0.2-1-0.2-1.5l-0.1-0.6c0-3.7,3-6.7,6.7-6.7s6.7,3,6.7,6.7v0.1h0.1l-0.1,0.2l0,0.3c0,1.2-0.3,2.5-1,3.5L122.6,114
	c-0.5,2.3-0.9,4.7-1.1,7.1c-0.1,1,0.2,2.1,0.9,2.9c0.5,0.6,1.3,1,2.1,1c5.4-1.1,10.5-3.3,15-6.4c5-3.6,9-8.4,11.6-14
	c2.9-6.4,4.3-13.3,4.1-20.3c0-12.6-2.7-23.1-11.8-31.5S121.5,40,105.2,40c-12.1-0.4-24,2.6-34.5,8.6c-9.6,5.5-17.2,13.8-21.9,23.8
	c-4.9,10-7.5,20.9-7.6,32c-0.1,10.2,2.7,20.3,8.1,29C54.8,142.3,63,149.3,72.7,153.3L72.7,153.3z M109.5,77.7
	c-2.9-2.9-7-4.5-11.1-4.3c-4.3-0.2-8.5,1.4-11.6,4.4c-4.1,3.3-7,7.8-8.4,12.8c-1.9,6.3-4.4,11.8-4.4,16.7c-0.4,5.1,1,10.2,3.9,14.3
	c3,3,7.2,4.7,11.5,4.6c2.6-0.1,5.2-1,7.3-2.5c2.2-1.2,4.2-2.9,5.8-4.8c3.2-4.1,5.6-8.7,7-13.6c2-6,4.4-11.2,4.4-16.3
	C114.1,84.8,112.5,80.7,109.5,77.7L109.5,77.7z"/>
</svg>
