<?xml version="1.0" standalone="no"?><!DOCTYPE svg PUBLIC "-//W3C//DTD SVG 1.1//EN" "http://www.w3.org/Graphics/SVG/1.1/DTD/svg11.dtd"><svg t="1744611586507" class="icon" viewBox="0 0 1024 1024" version="1.1" xmlns="http://www.w3.org/2000/svg" p-id="3403" xmlns:xlink="http://www.w3.org/1999/xlink" width="200" height="200"><path d="M964.16 294.4c-3.328-5.568-5.888-5.76-11.168-2.528-17.44 10.56-35.168 20.64-52.864 30.752-45.024 25.76-90.144 51.424-135.2 77.184-53.344 30.464-106.688 60.896-159.936 91.488-75.328 43.264-150.56 86.656-225.856 129.984-21.056 12.096-41.184 5.6-51.232-16.48-8.448-18.432-16.992-36.832-25.44-55.264-21.92-48.032-43.84-96.064-65.696-144.128-4.032-8.864-2.528-15.264 4.16-20.8 6.304-5.28 13.824-5.248 21.568 0.256 35.136 24.864 70.08 49.92 105.376 74.56 15.84 11.072 33.12 12.64 51.008 4.8 45.824-20.16 91.648-40.224 137.376-60.48 64.928-28.8 129.728-57.76 194.624-86.528a30516.544 30516.544 0 0 1 165.056-72.8c7.136-3.104 7.616-5.44 2.56-11.104-40.96-45.664-89.376-81.248-144.32-108.864a568.64 568.64 0 0 0-159.488-52.064c-33.728-5.856-67.84-9.536-99.712-7.68-45.92-1.28-88.576 3.968-130.976 13.088a560.096 560.096 0 0 0-98.976 30.784c-85.76 35.904-157.696 89.216-211.008 165.76C30.816 336.32 8.352 405.12 7.776 480.48a340.96 340.96 0 0 0 15.264 102.656c20.16 66.24 56.832 122.016 106.176 170.24 16.832 16.416 35.136 31.072 53.792 45.28 11.584 8.8 15.552 20.704 12.224 34.048-6.752 27.136-14.72 54.016-22.144 80.992l-3.648 13.696a15.776 15.776 0 0 0 6.304 17.792c6.496 4.544 13.76 3.424 20.576-0.48 36.352-20.8 72.704-41.6 109.12-62.272 10.624-6.048 21.888-10.528 34.432-8.032 9.312 1.824 18.496 4.416 27.68 6.912 39.36 10.656 79.616 15.808 120.288 17.216 41.248 1.408 82.304-0.64 123.2-7.424 34.112-5.632 67.584-13.504 99.872-25.216 58.976-21.344 113.568-50.72 161.6-91.424 66.944-56.64 113.856-125.6 134.88-211.104a349.12 349.12 0 0 0 5.184-139.2c-7.36-46.304-24.224-89.44-48.416-129.792" fill="#0DC803" p-id="3404"></path></svg>