<?xml version="1.0" encoding="utf-8"?>
<!-- Generator: Adobe Illustrator 28.2.0, SVG Export Plug-In . SVG Version: 6.00 Build 0)  -->
<svg version="1.1" id="图层_1" xmlns="http://www.w3.org/2000/svg" xmlns:xlink="http://www.w3.org/1999/xlink" x="0px" y="0px"
	 viewBox="0 0 255 255" style="enable-background:new 0 0 255 255;" xml:space="preserve">
<style type="text/css">
	.st0{fill:#39BC19;}
	.st1{fill:#FFFFFF;}
</style>
<path class="st0" d="M173.4,92.5h2.8c-4.7-37.3-41.9-65.2-87.6-65.2C40.1,27.2,1,60.8,1,100.8c0.9,24.2,14,47.5,35.4,58.7L29,183.8
	l28-15.8c10.3,2.8,21.4,4.7,32.6,4.7c2.8,0,7.5,0,10.3-0.9C97,166.1,97,160.5,97,154C97,120.4,131.5,92.5,173.4,92.5 M253.5,158.6
	c0-34.5-34.5-64.3-77.3-64.3s-76.4,28-76.4,64.3s34.5,64.3,77.3,64.3c9.3,0,18.6-1.9,28-3.7l23.3,13l-6.5-21.4
	C241.4,199.6,252.6,180,253.5,158.6"/>
<path class="st1" d="M149.2,146.5c-5.6,0-10.3-4.7-10.3-10.3c0-5.6,4.7-10.3,10.3-10.3c5.6,0,10.3,4.7,10.3,10.3
	C158.5,142.8,154.8,146.5,149.2,146.5 M200.4,146.5c-5.6,0-10.3-4.7-10.3-10.3c0-5.6,4.7-10.3,10.3-10.3s10.3,4.7,10.3,10.3
	C211.6,142.8,206,146.5,200.4,146.5 M121.2,61.7c6.5,0,12.1,5.6,12.1,12.1s-5.6,12.1-12.1,12.1s-12.1-4.7-12.1-11.2
	S115.6,61.7,121.2,61.7 M60.6,85.9c-6.5,0-12.1-5.6-12.1-12.1s5.6-12.1,12.1-12.1s12.1,5.6,12.1,12.1C73.7,81.3,68.1,85.9,60.6,85.9
	C61.6,86.9,61.6,86.9,60.6,85.9"/>
</svg>
