<?xml version="1.0" encoding="UTF-8" standalone="no"?><!DOCTYPE svg PUBLIC "-//W3C//DTD SVG 1.1//EN" "http://www.w3.org/Graphics/SVG/1.1/DTD/svg11.dtd"><svg width="567px" height="567px" version="1.1" xmlns="http://www.w3.org/2000/svg" xmlns:xlink="http://www.w3.org/1999/xlink" xml:space="preserve" xmlns:serif="http://www.serif.com/" style="fill-rule:evenodd;clip-rule:evenodd;stroke-linejoin:round;stroke-miterlimit:2;"><g id="_x34_.复合路径_x2B_填色"><g id="六边形"><path d="M283.47,2.85l-243.03,140.31l-0,280.61l243.03,140.31l243.02,-140.31l0,-280.61l-243.02,-140.31" style="fill:#fff;fill-rule:nonzero;"/></g><path d="M229.46,34.03l54.02,-31.18l243.02,140.31l0,31.18l-216.04,124.73l0.01,187.07l162,-93.55l-0,-62.36l-108,62.36l-0,-62.36l162,-93.53l0.01,187.07l-243.01,140.31l-243.03,-140.31l-0,-280.6l27.02,-15.6l216.02,124.73l162,-93.53l-216.02,-124.74Zm-135.02,171.49l0,187.07l162.02,93.53l0,-187.05l-162.02,-93.55Z" style="fill:#0067b4;fill-rule:nonzero;"/></g></svg>