<?xml version="1.0" encoding="UTF-8"?>
<svg id="_图层_1" data-name="图层_1" xmlns="http://www.w3.org/2000/svg" xmlns:xlink="http://www.w3.org/1999/xlink" xmlns:serif="http://www.serif.com/" version="1.1" viewBox="0 0 500 500">
  <!-- Generator: Adobe Illustrator 29.1.0, SVG Export Plug-In . SVG Version: 2.1.0 Build 142)  -->
  <defs>
    <style>
      .st0 {
        fill: url(#_未命名的渐变_3);
      }

      .st1 {
        fill: #52aef2;
      }

      .st2 {
        fill: #4b9ef0;
      }

      .st3 {
        fill: #4691ee;
      }

      .st4 {
        fill: #4085eb;
      }

      .st5 {
        fill: #4c9ff0;
      }
    </style>
    <linearGradient id="_未命名的渐变_3" data-name="未命名的渐变 3" x1="590.4" y1="243" x2="587.5" y2="1981" gradientTransform="translate(84.2 -63.1) scale(.3)" gradientUnits="userSpaceOnUse">
      <stop offset="0" stop-color="#5cc3f6"/>
      <stop offset="1" stop-color="#3771e8"/>
    </linearGradient>
  </defs>
  <polygon class="st1" points="400.1 90.1 400.1 166.6 203.5 200.1 203.5 125.1 400.1 90.1"/>
  <polygon class="st2" points="284.5 220.2 284.5 256.5 203.5 270.2 203.5 235.2 284.5 220.2"/>
  <polygon class="st3" points="284.5 284.3 284.5 321 203.5 334.7 203.5 299.6 284.5 284.3"/>
  <polygon class="st5" points="400.1 199.3 400.1 235.6 319.1 249.3 319.1 214.2 400.1 199.3"/>
  <polygon class="st4" points="284.5 349.2 284.5 385.5 203.5 399.2 203.5 364.7 284.5 349.2"/>
  <path class="st0" d="M461.3,15.9v341.7c-1,64.8-83.6,93.5-124.9,42.9-44.4-54.5,10.2-133.2,77.6-111,2,.6,11.8,5.4,12.3,4.8V52.2l-246.6,43.5c-.8,64.6-.3,129.2-.4,193.8,0,45.8,2.3,94.9,0,140.2-4.5,89.9-137.8,86.9-140.6-.8,0-1.7,0-3.5,0-5.2,1.8-52.4,60.1-84.5,105.6-58.4,1.6-94.7-.7-189.4.4-284.1.1-10-3.7-27.5,8.8-30.5L450.7,4.6c5.8,0,11.1,5.6,10.7,11.3Z"/>
</svg>