<?xml version="1.0" encoding="utf-8"?>
<!-- Generator: Adobe Illustrator 28.2.0, SVG Export Plug-In . SVG Version: 6.00 Build 0)  -->
<svg version="1.1" id="图层_1" xmlns="http://www.w3.org/2000/svg" xmlns:xlink="http://www.w3.org/1999/xlink" x="0px" y="0px"
	 viewBox="0 0 335.71 102.58" style="enable-background:new 0 0 335.71 102.58;" xml:space="preserve">
<style type="text/css">
	.st0{fill:#3E3A39;}
	.st1{display:none;fill:url(#SVGID_1_);}
	.st2{fill:url(#SVGID_00000111191914424118999750000017086833790127962805_);}
	.st3{fill:none;}
	.st4{fill:#4870B6;}
	.st5{fill:#EFF8FD;}
</style>
<g>
	<path class="st0" d="M33.32,30h6.02c-1.43,5.33-3.2,10.13-5.19,14.55h-6.54C29.95,39.83,31.89,35.11,33.32,30z M42.02,40.48h4.2
		V27.06H29.56l2.6-19.65c11.12,0,22.12-0.39,33.38-1.13v5.32c-9.61,0.74-18.96,1.08-28.4,1.17l-1.21,9.09h10.3v-6.02h5.63v6.02H67.3
		v5.19H51.85v18.96h-9.83V40.48z M62.33,30c1.43,5.11,3.38,9.83,5.71,14.55H61.5c-1.99-4.42-3.77-9.22-5.19-14.55H62.33z"/>
	<path class="st0" d="M100.07,29.31v2.9h8.53v5.07h-8.53v3.12h9.74v5.15H84.62v-3.85l-14.29,2.38v-5.54l4.5-0.74V27.4h-3.68v-5.45
		h3.68V13.6h-4.29V8.05h13.46v5.54h-3.64v8.35h3.29v5.45h-3.29v9.44l4.24-0.69v4.24h9.74v-3.12h-8.57v-5.07h8.57v-2.9h-7.88V7.75
		h21.43v21.56H100.07z M94.75,16.11v-3.29h-2.9v3.29H94.75z M94.75,24.2v-3.29h-2.9v3.29H94.75z M102.54,16.11v-3.29h-2.86v3.29
		H102.54z M102.54,24.2v-3.29h-2.86v3.29H102.54z"/>
	<path class="st0" d="M112.11,19.4h10.35v18.44l5.37-1.6v6.45l-11.17,3.33V25.15h-4.55V19.4z M120.99,7.06l2.99,9.39h-5.89
		l-2.99-9.39H120.99z M136.96,26.54h-10.3v-5.76h10.26V6.63h5.8v14.16h9.87v5.76h-9.87v19.91h-5.76V26.54z"/>
	<path class="st0" d="M162.59,36.37c0.13-0.69,0.26-1.39,0.35-2.08h-4.29v-18.1c-1.13,0.61-2.38,1.08-3.68,1.34v-5.02
		c2.38-1.17,4.24-2.86,5.41-5.24h13.94v4.72h-4.42l1.3,2.94h-5.67l-1.3-2.94h-0.74c-1.21,1.65-2.81,3.07-4.68,4.11h14.67v-3.59
		c2.38-1.17,4.24-2.86,5.41-5.24h14.59v4.72h-5.15l1.3,2.94h-5.67l-1.3-2.94h-0.65c-1.21,1.65-2.81,3.07-4.67,4.11h12.9v18.18h-4.59
		v2.08h8.27v4.85h-8.27v4.81h-5.63v-4.81h-13.12c-0.61,1.6-1.43,3.2-2.47,4.81h-7.1c1.43-1.65,2.55-3.2,3.38-4.81h-5.76v-4.85
		H162.59z M184.62,21.34v-1.43h-20.35v1.43H184.62z M184.62,25.98v-1.43h-20.35v1.43H184.62z M184.62,30.61v-1.47h-20.35v1.47
		H184.62z M180.03,36.37v-2.08h-11.51c-0.04,0.69-0.13,1.38-0.26,2.08H180.03z"/>
	<path class="st0" d="M196.53,32.51c2.51-0.95,4.42-2.34,5.76-4.16h-5.54v-5.19h17.06v-2.04h5.71v2.04h6.93l-0.69-2.04h5.5
		l0.69,2.04h4.63v5.19h-5.54c1.34,1.82,3.25,3.2,5.76,4.16v5.84c-1-0.35-1.95-0.74-2.81-1.17v8.18h-16.02V31.52h8.96
		c-0.74-1-1.34-2.04-1.91-3.16H208.3c-0.56,1.12-1.17,2.16-1.91,3.16h8.96v13.85h-16.02v-8.18c-0.87,0.43-1.82,0.82-2.81,1.17V32.51
		z M198.91,7.53h16.36v12.94h-16.36V7.53z M209.77,15.8v-3.68h-5.37v3.68H209.77z M209.99,40.61v-4.42h-5.33v4.42H209.99z
		 M218.04,7.53h16.36v12.94h-16.36V7.53z M228.65,40.61v-4.42h-5.32v4.42H228.65z M228.91,15.8v-3.68h-5.37v3.68H228.91z"/>
</g>
<linearGradient id="SVGID_1_" gradientUnits="userSpaceOnUse" x1="241.764" y1="27.3095" x2="314.3789" y2="27.3095">
	<stop  offset="0" style="stop-color:#1B3C96"/>
	<stop  offset="1" style="stop-color:#000000"/>
</linearGradient>
<rect x="241.76" y="6.65" class="st1" width="72.61" height="41.31"/>
<linearGradient id="SVGID_00000108992416631792940230000016311912579467981221_" gradientUnits="userSpaceOnUse" x1="240.2816" y1="27.2588" x2="316.5087" y2="27.2588">
	<stop  offset="0.0576" style="stop-color:#4E75B9"/>
	<stop  offset="0.9523" style="stop-color:#75B5E3"/>
</linearGradient>
<path style="fill:url(#SVGID_00000108992416631792940230000016311912579467981221_);" d="M283.31,19.41
	c0.01,0.01,0.02,0.03,0.02,0.06v5.37c0,0.03-0.01,0.05-0.02,0.07c-0.02,0.01-0.04,0.02-0.07,0.02c-1.7,0-3.08,0.23-4.13,0.69
	c-1.06,0.47-1.84,1.23-2.35,2.28c-0.51,1.06-0.76,2.5-0.76,4.32v11.27c0,0.03-0.01,0.05-0.02,0.07c-0.02,0.01-0.04,0.02-0.07,0.02
	h-5.55c-0.03,0-0.05-0.01-0.06-0.02c-0.02-0.02-0.03-0.04-0.03-0.07V19.97c0-0.03,0.01-0.06,0.03-0.07
	c0.01-0.02,0.03-0.02,0.06-0.02h5.55c0.03,0,0.05,0,0.07,0.02c0.01,0.01,0.02,0.04,0.02,0.07v2.07c0.14-0.14,0.29-0.25,0.44-0.37
	c1.97-1.53,4.24-2.29,6.8-2.29C283.27,19.38,283.29,19.39,283.31,19.41z M266.65,15.67c0.92,1.55,1.39,3.16,1.39,4.83
	c0,1.64-0.47,3.24-1.39,4.81c-0.92,1.57-2.21,2.85-3.84,3.85c-1.64,0.99-3.48,1.49-5.5,1.49h-5.1v12.84c0,0.03-0.01,0.05-0.03,0.07
	c-0.01,0.01-0.03,0.02-0.06,0.02h-5.82c-0.03,0-0.05-0.01-0.06-0.02c-0.02-0.02-0.03-0.04-0.03-0.07V10.53
	c0-0.03,0.01-0.05,0.03-0.07c0.01-0.01,0.03-0.02,0.06-0.02h11.01c2.02,0,3.86,0.49,5.5,1.45
	C264.44,12.86,265.73,14.12,266.65,15.67z M262.05,20.5c0-0.8-0.18-1.52-0.54-2.17c-0.36-0.64-0.9-1.14-1.61-1.52
	c-0.72-0.37-1.58-0.56-2.59-0.56h-5.1v8.59h5.1c1.01,0,1.87-0.19,2.59-0.58c0.71-0.39,1.25-0.91,1.61-1.57
	C261.87,22.04,262.05,21.31,262.05,20.5z M308.87,31.73c0,2.2-0.55,4.25-1.66,6.15c-1.1,1.89-2.6,3.4-4.49,4.51
	c-1.89,1.12-3.96,1.68-6.19,1.68c-2.24,0-4.31-0.56-6.2-1.68c-1.89-1.11-3.39-2.62-4.49-4.51c-1.11-1.9-1.66-3.95-1.66-6.15
	c0-2.24,0.56-4.3,1.68-6.2c1.12-1.89,2.62-3.39,4.52-4.49c1.89-1.1,3.94-1.66,6.15-1.66c2.23,0,4.3,0.56,6.19,1.66
	c1.89,1.1,3.39,2.6,4.49,4.49C308.32,27.43,308.87,29.49,308.87,31.73z M303.01,31.73c0-1.4-0.26-2.63-0.78-3.69
	c-0.53-1.06-1.28-1.89-2.26-2.48c-0.99-0.6-2.13-0.9-3.44-0.9c-1.32,0-2.46,0.3-3.45,0.9c-0.98,0.59-1.74,1.42-2.26,2.48
	c-0.52,1.06-0.78,2.29-0.78,3.69c0,1.37,0.27,2.59,0.81,3.67c0.53,1.07,1.28,1.9,2.25,2.5c0.97,0.6,2.11,0.89,3.43,0.89
	c1.31,0,2.45-0.29,3.44-0.89c0.98-0.6,1.73-1.43,2.26-2.5C302.75,34.32,303.01,33.1,303.01,31.73z"/>
<g>
	<rect x="-5.65" y="-186.99" class="st3" width="184.7" height="18.11"/>
</g>
<path class="st4" d="M310.49,95.72H25.23c-11.3,0-20.46-9.16-20.46-20.46v0c0-11.3,9.16-20.46,20.46-20.46h285.26
	c11.3,0,20.46,9.16,20.46,20.46v0C330.94,86.56,321.79,95.72,310.49,95.72z"/>
<g>
	<path class="st5" d="M25.35,82.62V68.76h1.8v13.87H25.35z M28.92,76.96l-1.52-5.74h-0.54v-2.46h1.33l1.52,5.96h0.08l0.19,2.25
		H28.92z M29.46,76.96l0.28-2.25h0.11l1.52-5.96h1.33v2.46h-0.54l-1.52,5.74H29.46z M32.41,82.62V68.76h1.8v13.87H32.41z"/>
	<path class="st5" d="M39.59,82.82c-1.05,0-1.85-0.32-2.43-0.97s-0.86-1.56-0.86-2.74v-6.84h1.99v6.84c0,0.59,0.16,1.05,0.49,1.37
		c0.33,0.32,0.78,0.48,1.37,0.48c0.73,0,1.27-0.24,1.64-0.72c0.37-0.48,0.55-1.28,0.55-2.41l0.51,2.79h-0.66
		c-0.16,0.7-0.46,1.24-0.92,1.62S40.26,82.82,39.59,82.82z M42.36,79.69v-7.42h1.99v6.84L42.36,79.69z M42.52,82.72l-0.17-2.48
		v-1.82h1.99v2.32l1.37,0.21v1.66L42.52,82.72z"/>
	<path class="st5" d="M50.59,82.82c-0.75,0-1.39-0.02-1.93-0.07s-1.03-0.12-1.47-0.22l0.23-1.88c0.66,0.1,1.24,0.18,1.74,0.23
		s0.98,0.08,1.43,0.08c1.01,0,1.74-0.1,2.19-0.31s0.68-0.53,0.68-0.98c0-0.31-0.08-0.54-0.24-0.7s-0.41-0.27-0.74-0.36l-2.29-0.61
		c-0.98-0.26-1.7-0.58-2.16-0.97c-0.46-0.38-0.69-0.97-0.69-1.75c0-1.13,0.42-1.95,1.25-2.46c0.84-0.51,2.18-0.76,4.04-0.76
		c0.48,0,0.93,0.01,1.35,0.04c0.42,0.03,0.84,0.08,1.28,0.15l-0.21,1.8c-0.51-0.05-0.96-0.09-1.34-0.11
		c-0.39-0.02-0.77-0.03-1.14-0.03c-1.11,0-1.92,0.1-2.42,0.3s-0.75,0.52-0.75,0.97c0,0.3,0.1,0.52,0.31,0.65s0.52,0.26,0.95,0.37
		l1.84,0.47c1.05,0.26,1.81,0.61,2.3,1.04c0.48,0.44,0.73,1.07,0.73,1.9c0,1.11-0.39,1.92-1.17,2.43
		C53.57,82.57,52.32,82.82,50.59,82.82z"/>
	<path class="st5" d="M58.01,82.62v-1.7H62v1.7H58.01z M58.58,73.97v-1.7h5.22v1.7H58.58z M62.74,70.63c-0.38,0-0.71-0.14-0.98-0.42
		c-0.27-0.28-0.41-0.62-0.41-1.02c0-0.4,0.14-0.75,0.41-1.03c0.27-0.28,0.6-0.42,0.98-0.42c0.39,0,0.72,0.14,0.99,0.42
		c0.27,0.28,0.4,0.62,0.4,1.03c0,0.4-0.13,0.74-0.4,1.02C63.45,70.49,63.13,70.63,62.74,70.63z M61.81,82.62v-9.77h1.99v9.77H61.81z
		 M63.61,82.62v-1.7h3.25v1.7H63.61z"/>
	<path class="st5" d="M73.89,82.82c-1.7,0-3.01-0.46-3.93-1.39s-1.39-2.26-1.39-4c0-1.69,0.44-3.01,1.31-3.95
		c0.87-0.94,2.12-1.41,3.74-1.41c0.97,0,1.8,0.19,2.49,0.56c0.69,0.37,1.18,0.9,1.48,1.59l-1.53,1.2c-0.28-0.48-0.64-0.84-1.08-1.1
		c-0.44-0.26-0.92-0.39-1.44-0.39c-0.94,0-1.67,0.29-2.19,0.88s-0.78,1.43-0.78,2.51c0,1.18,0.31,2.08,0.92,2.7s1.48,0.93,2.62,0.93
		c0.46,0,0.93-0.02,1.39-0.07s0.91-0.11,1.35-0.19l0.23,1.82c-0.51,0.12-1.04,0.2-1.59,0.23S74.41,82.82,73.89,82.82z"/>
	<path class="st5" d="M88.18,70.61v-1.86h9.77v1.86H88.18z M92.13,82.62V68.76h1.88v13.87H92.13z"/>
	<path class="st5" d="M99.8,82.62V67.98h1.99v14.65H99.8z M105.92,82.62v-6.74c0-0.66-0.16-1.16-0.47-1.52s-0.75-0.53-1.31-0.53
		c-1.57,0-2.35,0.99-2.35,2.97l-0.58-2.66h0.77c0.06-0.7,0.3-1.22,0.73-1.56c0.43-0.34,1.06-0.51,1.9-0.51c1.05,0,1.87,0.33,2.44,1
		c0.58,0.66,0.86,1.6,0.86,2.81v6.74H105.92z"/>
	<path class="st5" d="M115.6,82.82c-1.7,0-3.01-0.46-3.93-1.39s-1.39-2.26-1.39-4c0-1.69,0.39-3.01,1.17-3.95
		c0.78-0.94,1.89-1.41,3.31-1.41c1.35,0,2.39,0.42,3.12,1.27c0.74,0.85,1.1,2.08,1.1,3.69c0,0.48-0.02,0.92-0.06,1.33h-6.99v-1.58
		h5.24c0-0.93-0.21-1.65-0.64-2.14s-1.01-0.75-1.77-0.75c-0.84,0-1.5,0.3-1.97,0.9s-0.7,1.45-0.7,2.54c0,1.2,0.32,2.11,0.96,2.73
		s1.55,0.94,2.74,0.94c0.41,0,0.82-0.02,1.22-0.07c0.4-0.05,0.81-0.12,1.22-0.2l0.24,1.82c-0.59,0.12-1.13,0.19-1.62,0.22
		S115.97,82.82,115.6,82.82z"/>
	<path class="st5" d="M125.43,82.82c-1.38,0-2.45-0.47-3.21-1.41c-0.76-0.94-1.15-2.26-1.15-3.96c0-1.71,0.38-3.04,1.15-3.97
		c0.76-0.93,1.83-1.4,3.21-1.4c1.38,0,2.46,0.47,3.22,1.4c0.76,0.93,1.14,2.26,1.14,3.97c0,1.71-0.38,3.03-1.14,3.96
		C127.88,82.35,126.81,82.82,125.43,82.82z M125.43,80.96c0.73,0,1.3-0.31,1.69-0.92s0.6-1.48,0.6-2.6c0-1.13-0.2-1.99-0.6-2.6
		s-0.96-0.91-1.69-0.91s-1.3,0.3-1.7,0.91s-0.6,1.48-0.6,2.6c0,1.12,0.2,1.99,0.6,2.6S124.7,80.96,125.43,80.96z"/>
	<path class="st5" d="M131.33,82.62v-1.7h6.65v1.7H131.33z M131.71,73.97v-1.7h3.32l0.19,1.7H131.71z M133.55,82.62V72.27h1.62
		l0.38,2.97v7.38H133.55z M135.54,78.17l-0.58-3.24h0.77c0.11-1.9,1.03-2.85,2.74-2.85c1.03,0,1.77,0.31,2.23,0.92
		s0.69,1.6,0.69,2.97h-1.97c0-0.75-0.11-1.3-0.32-1.63c-0.22-0.33-0.56-0.5-1.05-0.5c-0.85,0-1.48,0.38-1.89,1.13
		C135.75,75.72,135.54,76.78,135.54,78.17z"/>
	<path class="st5" d="M145.85,82.62l-3.96-10.35h2.07l3.25,8.79h0.3v1.56H145.85z M142.07,87.31l-0.09-1.86l1.56-0.2
		c0.66-0.08,1.22-0.27,1.69-0.56s0.87-0.71,1.2-1.27c0.33-0.56,0.62-1.3,0.87-2.21l2.48-8.95h2.07l-2.87,9.43
		c-0.38,1.24-0.8,2.23-1.26,2.99s-1.02,1.32-1.65,1.7c-0.64,0.38-1.4,0.62-2.29,0.72L142.07,87.31z"/>
	<path class="st5" d="M168.53,82.82c-4.14,0-6.22-2.38-6.22-7.15c0-2.26,0.52-4.01,1.57-5.25s2.52-1.86,4.42-1.86
		c0.92,0,1.72,0.15,2.4,0.45s1.18,0.73,1.49,1.29l-1.39,1.44c-0.28-0.44-0.64-0.78-1.08-1.03c-0.44-0.24-0.91-0.36-1.41-0.36
		c-1.21,0-2.18,0.45-2.91,1.36c-0.73,0.91-1.09,2.19-1.09,3.86c0,3.63,1.51,5.45,4.53,5.45c0.91,0,1.8-0.2,2.69-0.59l0.43,1.72
		C170.87,82.6,169.73,82.82,168.53,82.82z"/>
	<path class="st5" d="M176.46,82.82c-1.04,0-1.84-0.26-2.41-0.78s-0.85-1.26-0.85-2.21c0-1.09,0.39-1.93,1.18-2.52
		c0.79-0.59,1.9-0.88,3.33-0.88c0.59,0,1.12,0.04,1.59,0.11c0.47,0.08,0.88,0.19,1.24,0.34l-0.41,1.41
		c-0.42-0.1-0.83-0.15-1.23-0.17c-0.4-0.02-0.81-0.02-1.23-0.02c-1.73,0-2.59,0.55-2.59,1.64c0,0.46,0.15,0.81,0.45,1.05
		c0.3,0.25,0.72,0.37,1.26,0.37c0.62,0,1.14-0.11,1.55-0.33c0.42-0.22,0.73-0.5,0.93-0.85c0.21-0.34,0.31-0.7,0.31-1.06v-1.13
		l0.58,2.66h-0.79l0.32-0.31c0,0.6-0.13,1.1-0.4,1.5c-0.27,0.4-0.64,0.7-1.12,0.9C177.69,82.72,177.11,82.82,176.46,82.82z
		 M179.97,82.72l-0.13-3.07l-0.26-0.86v-2.68c0-0.69-0.23-1.2-0.7-1.52c-0.47-0.32-1.16-0.5-2.08-0.52l-2.38-0.07l0.19-1.84
		l2.01,0.03c1.65,0.03,2.87,0.4,3.67,1.11s1.2,1.75,1.2,3.12v4.32l1.69,0.21v1.66L179.97,82.72z"/>
	<path class="st5" d="M184,69.68v-1.7h3.1v1.7H184z M190.2,82.82c-1.15,0-1.99-0.33-2.5-0.98c-0.51-0.65-0.77-1.69-0.77-3.12V67.98
		h1.99v10.64c0,0.55,0.05,0.99,0.15,1.34c0.1,0.34,0.3,0.6,0.59,0.76s0.72,0.24,1.29,0.24c0.52,0,1.18-0.12,1.99-0.37l0.23,1.82
		c-0.51,0.14-0.99,0.25-1.46,0.31C191.24,82.79,190.73,82.82,190.2,82.82z"/>
	<path class="st5" d="M200.46,82.82c-1.7,0-3.01-0.46-3.93-1.39c-0.92-0.93-1.38-2.26-1.38-4c0-1.69,0.44-3.01,1.31-3.95
		s2.12-1.41,3.74-1.41c0.97,0,1.8,0.19,2.49,0.56c0.69,0.37,1.18,0.9,1.48,1.59l-1.53,1.2c-0.28-0.48-0.64-0.84-1.08-1.1
		s-0.92-0.39-1.44-0.39c-0.94,0-1.67,0.29-2.19,0.88c-0.52,0.59-0.78,1.43-0.78,2.51c0,1.18,0.31,2.08,0.92,2.7s1.48,0.93,2.62,0.93
		c0.46,0,0.93-0.02,1.39-0.07s0.91-0.11,1.35-0.19l0.22,1.82c-0.51,0.12-1.04,0.2-1.59,0.23C201.51,82.8,200.98,82.82,200.46,82.82z
		"/>
	<path class="st5" d="M209.31,82.82c-1.04,0-1.85-0.32-2.43-0.97c-0.57-0.65-0.86-1.56-0.86-2.74v-6.84h1.99v6.84
		c0,0.59,0.16,1.05,0.49,1.37c0.33,0.32,0.78,0.48,1.37,0.48c0.73,0,1.27-0.24,1.64-0.72s0.55-1.28,0.55-2.41l0.51,2.79h-0.66
		c-0.16,0.7-0.46,1.24-0.92,1.62S209.98,82.82,209.31,82.82z M212.07,79.69v-7.42h1.99v6.84L212.07,79.69z M212.24,82.72l-0.17-2.48
		v-1.82h1.99v2.32l1.37,0.21v1.66L212.24,82.72z"/>
	<path class="st5" d="M216.36,69.68v-1.7h3.1v1.7H216.36z M222.56,82.82c-1.15,0-1.99-0.33-2.5-0.98c-0.51-0.65-0.77-1.69-0.77-3.12
		V67.98h1.99v10.64c0,0.55,0.05,0.99,0.15,1.34c0.1,0.34,0.3,0.6,0.59,0.76s0.72,0.24,1.29,0.24c0.52,0,1.18-0.12,1.99-0.37
		l0.23,1.82c-0.51,0.14-0.99,0.25-1.46,0.31C223.6,82.79,223.1,82.82,222.56,82.82z"/>
	<path class="st5" d="M230.4,82.82c-1.04,0-1.84-0.26-2.41-0.78s-0.85-1.26-0.85-2.21c0-1.09,0.39-1.93,1.18-2.52
		c0.79-0.59,1.9-0.88,3.33-0.88c0.59,0,1.12,0.04,1.59,0.11c0.47,0.08,0.88,0.19,1.24,0.34l-0.41,1.41
		c-0.42-0.1-0.83-0.15-1.23-0.17c-0.4-0.02-0.81-0.02-1.23-0.02c-1.73,0-2.59,0.55-2.59,1.64c0,0.46,0.15,0.81,0.45,1.05
		c0.3,0.25,0.72,0.37,1.26,0.37c0.62,0,1.14-0.11,1.55-0.33c0.42-0.22,0.73-0.5,0.93-0.85c0.21-0.34,0.31-0.7,0.31-1.06v-1.13
		l0.58,2.66h-0.79l0.32-0.31c0,0.6-0.13,1.1-0.4,1.5c-0.27,0.4-0.64,0.7-1.12,0.9C231.62,82.72,231.05,82.82,230.4,82.82z
		 M233.91,82.72l-0.13-3.07l-0.26-0.86v-2.68c0-0.69-0.23-1.2-0.7-1.52c-0.47-0.32-1.16-0.5-2.08-0.52l-2.38-0.07l0.19-1.84
		l2.01,0.03c1.65,0.03,2.87,0.4,3.67,1.11s1.2,1.75,1.2,3.12v4.32l1.69,0.21v1.66L233.91,82.72z"/>
	<path class="st5" d="M237.67,73.97v-1.7h9.01v1.7H237.67z M240.17,77.74v-8.59h1.99v8.59H240.17z M244.45,82.82
		c-1.51,0-2.6-0.33-3.27-0.98c-0.67-0.65-1.01-1.69-1.01-3.12v-1.76h1.99v1.66c0,0.82,0.19,1.42,0.58,1.79
		c0.38,0.37,1.02,0.56,1.9,0.56c0.31,0,0.64-0.02,1-0.05s0.75-0.08,1.2-0.14l0.23,1.82c-0.44,0.08-0.87,0.14-1.28,0.18
		S244.92,82.82,244.45,82.82z"/>
	<path class="st5" d="M253.44,82.82c-1.38,0-2.45-0.47-3.21-1.41s-1.15-2.26-1.15-3.96c0-1.71,0.38-3.04,1.15-3.97
		s1.83-1.4,3.21-1.4c1.38,0,2.46,0.47,3.22,1.4s1.14,2.26,1.14,3.97c0,1.71-0.38,3.03-1.14,3.96S254.82,82.82,253.44,82.82z
		 M253.44,80.96c0.73,0,1.3-0.31,1.7-0.92s0.6-1.48,0.6-2.6c0-1.13-0.2-1.99-0.6-2.6s-0.96-0.91-1.7-0.91s-1.3,0.3-1.69,0.91
		s-0.6,1.48-0.6,2.6c0,1.12,0.2,1.99,0.6,2.6S252.7,80.96,253.44,80.96z"/>
	<path class="st5" d="M259.34,82.62v-1.7h6.65v1.7H259.34z M259.72,73.97v-1.7h3.32l0.19,1.7H259.72z M261.56,82.62V72.27h1.61
		l0.38,2.97v7.38H261.56z M263.55,78.17l-0.58-3.24h0.77c0.11-1.9,1.03-2.85,2.74-2.85c1.03,0,1.77,0.31,2.24,0.92
		c0.46,0.61,0.69,1.6,0.69,2.97h-1.97c0-0.75-0.11-1.3-0.32-1.63s-0.56-0.5-1.05-0.5c-0.84,0-1.48,0.38-1.89,1.13
		C263.75,75.72,263.55,76.78,263.55,78.17z"/>
	<path class="st5" d="M280.22,82.62V68.76h1.88v13.87H280.22z M281.88,78.33v-1.86h2.27c1.03,0,1.8-0.27,2.33-0.8
		c0.53-0.53,0.79-1.31,0.79-2.33c0-0.9-0.26-1.58-0.79-2.04c-0.53-0.46-1.3-0.69-2.33-0.69h-2.24v-1.86h2.24
		c1.67,0,2.94,0.39,3.8,1.16c0.86,0.77,1.29,1.92,1.29,3.43c0,1.63-0.43,2.87-1.29,3.72c-0.86,0.84-2.13,1.26-3.8,1.26H281.88z"/>
	<path class="st5" d="M290.26,82.62v-1.7h6.65v1.7H290.26z M290.64,73.97v-1.7h3.32l0.19,1.7H290.64z M292.48,82.62V72.27h1.61
		l0.38,2.97v7.38H292.48z M294.47,78.17l-0.58-3.24h0.77c0.11-1.9,1.03-2.85,2.74-2.85c1.03,0,1.77,0.31,2.24,0.92
		c0.46,0.61,0.69,1.6,0.69,2.97h-1.97c0-0.75-0.11-1.3-0.32-1.63s-0.56-0.5-1.05-0.5c-0.84,0-1.48,0.38-1.89,1.13
		C294.67,75.72,294.47,76.78,294.47,78.17z"/>
	<path class="st5" d="M305.93,82.82c-1.38,0-2.45-0.47-3.21-1.41s-1.15-2.26-1.15-3.96c0-1.71,0.38-3.04,1.15-3.97
		s1.83-1.4,3.21-1.4c1.38,0,2.46,0.47,3.22,1.4s1.14,2.26,1.14,3.97c0,1.71-0.38,3.03-1.14,3.96S307.31,82.82,305.93,82.82z
		 M305.93,80.96c0.73,0,1.3-0.31,1.7-0.92s0.6-1.48,0.6-2.6c0-1.13-0.2-1.99-0.6-2.6s-0.96-0.91-1.7-0.91s-1.3,0.3-1.69,0.91
		s-0.6,1.48-0.6,2.6c0,1.12,0.2,1.99,0.6,2.6S305.2,80.96,305.93,80.96z"/>
</g>
<g>
</g>
<g>
</g>
<g>
</g>
<g>
</g>
<g>
</g>
<g>
</g>
</svg>
